<?xml version="1.0" encoding="utf-8" standalone="no"?>
<!DOCTYPE svg PUBLIC "-//W3C//DTD SVG 1.1//EN"
  "http://www.w3.org/Graphics/SVG/1.1/DTD/svg11.dtd">
<svg xmlns:xlink="http://www.w3.org/1999/xlink" width="635.931842pt" height="352.8pt" viewBox="0 0 635.931842 352.8" xmlns="http://www.w3.org/2000/svg" version="1.1">
 <metadata>
  <rdf:RDF xmlns:dc="http://purl.org/dc/elements/1.1/" xmlns:cc="http://creativecommons.org/ns#" xmlns:rdf="http://www.w3.org/1999/02/22-rdf-syntax-ns#">
   <cc:Work>
    <dc:type rdf:resource="http://purl.org/dc/dcmitype/StillImage"/>
    <dc:date>2026-06-30T22:52:53.209243</dc:date>
    <dc:format>image/svg+xml</dc:format>
    <dc:creator>
     <cc:Agent>
      <dc:title>Matplotlib v3.10.8, https://matplotlib.org/</dc:title>
     </cc:Agent>
    </dc:creator>
   </cc:Work>
  </rdf:RDF>
 </metadata>
 <defs>
  <style type="text/css">*{stroke-linejoin: round; stroke-linecap: butt}</style>
 </defs>
 <g id="figure_1">
  <g id="patch_1">
   <path d="M 0 352.8 
L 635.931842 352.8 
L 635.931842 0 
L 0 0 
z
" style="fill: #ffffff"/>
  </g>
  <g id="axes_1">
   <g id="patch_2">
    <path d="M 27.783141 90.672 
L 180.340539 90.672 
Q 183.972858 90.672 183.972858 87.288 
L 183.972858 51.192 
Q 183.972858 47.808 180.340539 47.808 
L 27.783141 47.808 
Q 24.150822 47.808 24.150822 51.192 
L 24.150822 87.288 
Q 24.150822 90.672 27.783141 90.672 
z
" clip-path="url(#pf251e7942a)" style="fill: #fff2cc; stroke: #555555; stroke-width: 1.2; stroke-linejoin: miter"/>
   </g>
   <g id="patch_3">
    <path d="M 215.452956 90.672 
L 404.333544 90.672 
Q 407.965863 90.672 407.965863 87.288 
L 407.965863 51.192 
Q 407.965863 47.808 404.333544 47.808 
L 215.452956 47.808 
Q 211.820637 47.808 211.820637 51.192 
L 211.820637 87.288 
Q 211.820637 90.672 215.452956 90.672 
z
" clip-path="url(#pf251e7942a)" style="fill: #fde2bd; stroke: #555555; stroke-width: 1.2; stroke-linejoin: miter"/>
   </g>
   <g id="patch_4">
    <path d="M 12.648478 186.552 
L 195.475201 186.552 
Q 199.10752 186.552 199.10752 183.168 
L 199.10752 147.072 
Q 199.10752 143.688 195.475201 143.688 
L 12.648478 143.688 
Q 9.016159 143.688 9.016159 147.072 
L 9.016159 183.168 
Q 9.016159 186.552 12.648478 186.552 
z
" clip-path="url(#pf251e7942a)" style="fill: #d9edf7; stroke: #555555; stroke-width: 1.2; stroke-linejoin: miter"/>
   </g>
   <g id="patch_5">
    <path d="M 209.399091 186.552 
L 410.387409 186.552 
Q 414.019728 186.552 414.019728 183.168 
L 414.019728 147.072 
Q 414.019728 143.688 410.387409 143.688 
L 209.399091 143.688 
Q 205.766772 143.688 205.766772 147.072 
L 205.766772 183.168 
Q 205.766772 186.552 209.399091 186.552 
z
" clip-path="url(#pf251e7942a)" style="fill: #dff0d8; stroke: #555555; stroke-width: 1.2; stroke-linejoin: miter"/>
   </g>
   <g id="patch_6">
    <path d="M 433.392096 186.552 
L 598.057224 186.552 
Q 601.689543 186.552 601.689543 183.168 
L 601.689543 147.072 
Q 601.689543 143.688 598.057224 143.688 
L 433.392096 143.688 
Q 429.759777 143.688 429.759777 147.072 
L 429.759777 183.168 
Q 429.759777 186.552 433.392096 186.552 
z
" clip-path="url(#pf251e7942a)" style="fill: #e6e0f8; stroke: #555555; stroke-width: 1.2; stroke-linejoin: miter"/>
   </g>
   <g id="patch_7">
    <path d="M 421.284366 295.968 
L 610.164954 295.968 
Q 613.797273 295.968 613.797273 292.584 
L 613.797273 240.696 
Q 613.797273 237.312 610.164954 237.312 
L 421.284366 237.312 
Q 417.652047 237.312 417.652047 240.696 
L 417.652047 292.584 
Q 417.652047 295.968 421.284366 295.968 
z
" clip-path="url(#pf251e7942a)" style="fill: #f8d7da; stroke: #555555; stroke-width: 1.2; stroke-linejoin: miter"/>
   </g>
   <g id="patch_8">
    <path d="M 184.760703 69.24 
Q 196.382638 69.24 206.439326 69.24 
" clip-path="url(#pf251e7942a)" style="fill: none; stroke: #555555; stroke-width: 1.4; stroke-linecap: round"/>
    <path d="M 201.639326 66.84 
L 206.439326 69.24 
L 201.639326 71.64 
z
" clip-path="url(#pf251e7942a)" style="fill: #555555; stroke: #555555; stroke-width: 1.4; stroke-linecap: round"/>
   </g>
   <g id="patch_9">
    <path d="M 104.06184 90.980128 
Q 104.06184 116.335175 104.06184 140.124975 
" clip-path="url(#pf251e7942a)" style="fill: none; stroke: #555555; stroke-width: 1.4; stroke-linecap: round"/>
    <path d="M 106.46184 135.324975 
L 104.06184 140.124975 
L 101.66184 135.324975 
z
" clip-path="url(#pf251e7942a)" style="fill: #555555; stroke: #555555; stroke-width: 1.4; stroke-linecap: round"/>
   </g>
   <g id="patch_10">
    <path d="M 309.89325 90.980128 
Q 309.89325 116.335175 309.89325 140.124975 
" clip-path="url(#pf251e7942a)" style="fill: none; stroke: #555555; stroke-width: 1.4; stroke-linecap: round"/>
    <path d="M 312.29325 135.324975 
L 309.89325 140.124975 
L 307.49325 135.324975 
z
" clip-path="url(#pf251e7942a)" style="fill: #555555; stroke: #555555; stroke-width: 1.4; stroke-linecap: round"/>
   </g>
   <g id="patch_11">
    <path d="M 199.898839 165.12 
Q 201.831417 165.12 202.198748 165.12 
" clip-path="url(#pf251e7942a)" style="fill: none; stroke: #555555; stroke-width: 1.4; stroke-linecap: round"/>
    <path d="M 197.398748 162.72 
L 202.198748 165.12 
L 197.398748 167.52 
z
" clip-path="url(#pf251e7942a)" style="fill: #555555; stroke: #555555; stroke-width: 1.4; stroke-linecap: round"/>
   </g>
   <g id="patch_12">
    <path d="M 417.834875 165.12 
Q 423.403747 165.12 427.407371 165.12 
" clip-path="url(#pf251e7942a)" style="fill: none; stroke: #555555; stroke-width: 1.4; stroke-linecap: round"/>
    <path d="M 422.607371 162.72 
L 427.407371 165.12 
L 422.607371 167.52 
z
" clip-path="url(#pf251e7942a)" style="fill: #555555; stroke: #555555; stroke-width: 1.4; stroke-linecap: round"/>
   </g>
   <g id="patch_13">
    <path d="M 515.72466 188.54958 
Q 515.72466 211.083567 515.72466 232.052306 
" clip-path="url(#pf251e7942a)" style="fill: none; stroke: #555555; stroke-width: 1.4; stroke-linecap: round"/>
    <path d="M 518.12466 227.252306 
L 515.72466 232.052306 
L 513.32466 227.252306 
z
" clip-path="url(#pf251e7942a)" style="fill: #555555; stroke: #555555; stroke-width: 1.4; stroke-linecap: round"/>
   </g>
   <g id="patch_14">
    <path d="M 609.152468 259.044078 
Q 576.068313 102.374282 419.13492 78.20228 
" clip-path="url(#pf251e7942a)" style="fill: none; stroke: #7f7f7f; stroke-width: 1.2; stroke-linecap: round"/>
    <path d="M 423.513619 81.30502 
L 419.13492 78.20228 
L 424.244332 76.560965 
z
" clip-path="url(#pf251e7942a)" style="fill: #7f7f7f; stroke: #7f7f7f; stroke-width: 1.2; stroke-linecap: round"/>
   </g>
   <g id="text_1">
    <!-- Choose number of -->
    <g transform="translate(58.089965 66.400469) scale(0.1 -0.1)">
     <defs>
      <path id="DejaVuSans-43" d="M 4122 4306 
L 4122 3641 
Q 3803 3938 3442 4084 
Q 3081 4231 2675 4231 
Q 1875 4231 1450 3742 
Q 1025 3253 1025 2328 
Q 1025 1406 1450 917 
Q 1875 428 2675 428 
Q 3081 428 3442 575 
Q 3803 722 4122 1019 
L 4122 359 
Q 3791 134 3420 21 
Q 3050 -91 2638 -91 
Q 1578 -91 968 557 
Q 359 1206 359 2328 
Q 359 3453 968 4101 
Q 1578 4750 2638 4750 
Q 3056 4750 3426 4639 
Q 3797 4528 4122 4306 
z
" transform="scale(0.015625)"/>
      <path id="DejaVuSans-68" d="M 3513 2113 
L 3513 0 
L 2938 0 
L 2938 2094 
Q 2938 2591 2744 2837 
Q 2550 3084 2163 3084 
Q 1697 3084 1428 2787 
Q 1159 2491 1159 1978 
L 1159 0 
L 581 0 
L 581 4863 
L 1159 4863 
L 1159 2956 
Q 1366 3272 1645 3428 
Q 1925 3584 2291 3584 
Q 2894 3584 3203 3211 
Q 3513 2838 3513 2113 
z
" transform="scale(0.015625)"/>
      <path id="DejaVuSans-6f" d="M 1959 3097 
Q 1497 3097 1228 2736 
Q 959 2375 959 1747 
Q 959 1119 1226 758 
Q 1494 397 1959 397 
Q 2419 397 2687 759 
Q 2956 1122 2956 1747 
Q 2956 2369 2687 2733 
Q 2419 3097 1959 3097 
z
M 1959 3584 
Q 2709 3584 3137 3096 
Q 3566 2609 3566 1747 
Q 3566 888 3137 398 
Q 2709 -91 1959 -91 
Q 1206 -91 779 398 
Q 353 888 353 1747 
Q 353 2609 779 3096 
Q 1206 3584 1959 3584 
z
" transform="scale(0.015625)"/>
      <path id="DejaVuSans-73" d="M 2834 3397 
L 2834 2853 
Q 2591 2978 2328 3040 
Q 2066 3103 1784 3103 
Q 1356 3103 1142 2972 
Q 928 2841 928 2578 
Q 928 2378 1081 2264 
Q 1234 2150 1697 2047 
L 1894 2003 
Q 2506 1872 2764 1633 
Q 3022 1394 3022 966 
Q 3022 478 2636 193 
Q 2250 -91 1575 -91 
Q 1294 -91 989 -36 
Q 684 19 347 128 
L 347 722 
Q 666 556 975 473 
Q 1284 391 1588 391 
Q 1994 391 2212 530 
Q 2431 669 2431 922 
Q 2431 1156 2273 1281 
Q 2116 1406 1581 1522 
L 1381 1569 
Q 847 1681 609 1914 
Q 372 2147 372 2553 
Q 372 3047 722 3315 
Q 1072 3584 1716 3584 
Q 2034 3584 2315 3537 
Q 2597 3491 2834 3397 
z
" transform="scale(0.015625)"/>
      <path id="DejaVuSans-65" d="M 3597 1894 
L 3597 1613 
L 953 1613 
Q 991 1019 1311 708 
Q 1631 397 2203 397 
Q 2534 397 2845 478 
Q 3156 559 3463 722 
L 3463 178 
Q 3153 47 2828 -22 
Q 2503 -91 2169 -91 
Q 1331 -91 842 396 
Q 353 884 353 1716 
Q 353 2575 817 3079 
Q 1281 3584 2069 3584 
Q 2775 3584 3186 3129 
Q 3597 2675 3597 1894 
z
M 3022 2063 
Q 3016 2534 2758 2815 
Q 2500 3097 2075 3097 
Q 1594 3097 1305 2825 
Q 1016 2553 972 2059 
L 3022 2063 
z
" transform="scale(0.015625)"/>
      <path id="DejaVuSans-20" transform="scale(0.015625)"/>
      <path id="DejaVuSans-6e" d="M 3513 2113 
L 3513 0 
L 2938 0 
L 2938 2094 
Q 2938 2591 2744 2837 
Q 2550 3084 2163 3084 
Q 1697 3084 1428 2787 
Q 1159 2491 1159 1978 
L 1159 0 
L 581 0 
L 581 3500 
L 1159 3500 
L 1159 2956 
Q 1366 3272 1645 3428 
Q 1925 3584 2291 3584 
Q 2894 3584 3203 3211 
Q 3513 2838 3513 2113 
z
" transform="scale(0.015625)"/>
      <path id="DejaVuSans-75" d="M 544 1381 
L 544 3500 
L 1119 3500 
L 1119 1403 
Q 1119 906 1312 657 
Q 1506 409 1894 409 
Q 2359 409 2629 706 
Q 2900 1003 2900 1516 
L 2900 3500 
L 3475 3500 
L 3475 0 
L 2900 0 
L 2900 538 
Q 2691 219 2414 64 
Q 2138 -91 1772 -91 
Q 1169 -91 856 284 
Q 544 659 544 1381 
z
M 1991 3584 
L 1991 3584 
z
" transform="scale(0.015625)"/>
      <path id="DejaVuSans-6d" d="M 3328 2828 
Q 3544 3216 3844 3400 
Q 4144 3584 4550 3584 
Q 5097 3584 5394 3201 
Q 5691 2819 5691 2113 
L 5691 0 
L 5113 0 
L 5113 2094 
Q 5113 2597 4934 2840 
Q 4756 3084 4391 3084 
Q 3944 3084 3684 2787 
Q 3425 2491 3425 1978 
L 3425 0 
L 2847 0 
L 2847 2094 
Q 2847 2600 2669 2842 
Q 2491 3084 2119 3084 
Q 1678 3084 1418 2786 
Q 1159 2488 1159 1978 
L 1159 0 
L 581 0 
L 581 3500 
L 1159 3500 
L 1159 2956 
Q 1356 3278 1631 3431 
Q 1906 3584 2284 3584 
Q 2666 3584 2933 3390 
Q 3200 3197 3328 2828 
z
" transform="scale(0.015625)"/>
      <path id="DejaVuSans-62" d="M 3116 1747 
Q 3116 2381 2855 2742 
Q 2594 3103 2138 3103 
Q 1681 3103 1420 2742 
Q 1159 2381 1159 1747 
Q 1159 1113 1420 752 
Q 1681 391 2138 391 
Q 2594 391 2855 752 
Q 3116 1113 3116 1747 
z
M 1159 2969 
Q 1341 3281 1617 3432 
Q 1894 3584 2278 3584 
Q 2916 3584 3314 3078 
Q 3713 2572 3713 1747 
Q 3713 922 3314 415 
Q 2916 -91 2278 -91 
Q 1894 -91 1617 61 
Q 1341 213 1159 525 
L 1159 0 
L 581 0 
L 581 4863 
L 1159 4863 
L 1159 2969 
z
" transform="scale(0.015625)"/>
      <path id="DejaVuSans-72" d="M 2631 2963 
Q 2534 3019 2420 3045 
Q 2306 3072 2169 3072 
Q 1681 3072 1420 2755 
Q 1159 2438 1159 1844 
L 1159 0 
L 581 0 
L 581 3500 
L 1159 3500 
L 1159 2956 
Q 1341 3275 1631 3429 
Q 1922 3584 2338 3584 
Q 2397 3584 2469 3576 
Q 2541 3569 2628 3553 
L 2631 2963 
z
" transform="scale(0.015625)"/>
      <path id="DejaVuSans-66" d="M 2375 4863 
L 2375 4384 
L 1825 4384 
Q 1516 4384 1395 4259 
Q 1275 4134 1275 3809 
L 1275 3500 
L 2222 3500 
L 2222 3053 
L 1275 3053 
L 1275 0 
L 697 0 
L 697 3053 
L 147 3053 
L 147 3500 
L 697 3500 
L 697 3744 
Q 697 4328 969 4595 
Q 1241 4863 1831 4863 
L 2375 4863 
z
" transform="scale(0.015625)"/>
     </defs>
     <use xlink:href="#DejaVuSans-43"/>
     <use xlink:href="#DejaVuSans-68" transform="translate(69.824219 0)"/>
     <use xlink:href="#DejaVuSans-6f" transform="translate(133.203125 0)"/>
     <use xlink:href="#DejaVuSans-6f" transform="translate(194.384766 0)"/>
     <use xlink:href="#DejaVuSans-73" transform="translate(255.566406 0)"/>
     <use xlink:href="#DejaVuSans-65" transform="translate(307.666016 0)"/>
     <use xlink:href="#DejaVuSans-20" transform="translate(369.189453 0)"/>
     <use xlink:href="#DejaVuSans-6e" transform="translate(400.976562 0)"/>
     <use xlink:href="#DejaVuSans-75" transform="translate(464.355469 0)"/>
     <use xlink:href="#DejaVuSans-6d" transform="translate(527.734375 0)"/>
     <use xlink:href="#DejaVuSans-62" transform="translate(625.146484 0)"/>
     <use xlink:href="#DejaVuSans-65" transform="translate(688.623047 0)"/>
     <use xlink:href="#DejaVuSans-72" transform="translate(750.146484 0)"/>
     <use xlink:href="#DejaVuSans-20" transform="translate(791.259766 0)"/>
     <use xlink:href="#DejaVuSans-6f" transform="translate(823.046875 0)"/>
     <use xlink:href="#DejaVuSans-66" transform="translate(884.228516 0)"/>
    </g>
    <!-- components k -->
    <g transform="translate(68.686059 77.598281) scale(0.1 -0.1)">
     <defs>
      <path id="DejaVuSans-63" d="M 3122 3366 
L 3122 2828 
Q 2878 2963 2633 3030 
Q 2388 3097 2138 3097 
Q 1578 3097 1268 2742 
Q 959 2388 959 1747 
Q 959 1106 1268 751 
Q 1578 397 2138 397 
Q 2388 397 2633 464 
Q 2878 531 3122 666 
L 3122 134 
Q 2881 22 2623 -34 
Q 2366 -91 2075 -91 
Q 1284 -91 818 406 
Q 353 903 353 1747 
Q 353 2603 823 3093 
Q 1294 3584 2113 3584 
Q 2378 3584 2631 3529 
Q 2884 3475 3122 3366 
z
" transform="scale(0.015625)"/>
      <path id="DejaVuSans-70" d="M 1159 525 
L 1159 -1331 
L 581 -1331 
L 581 3500 
L 1159 3500 
L 1159 2969 
Q 1341 3281 1617 3432 
Q 1894 3584 2278 3584 
Q 2916 3584 3314 3078 
Q 3713 2572 3713 1747 
Q 3713 922 3314 415 
Q 2916 -91 2278 -91 
Q 1894 -91 1617 61 
Q 1341 213 1159 525 
z
M 3116 1747 
Q 3116 2381 2855 2742 
Q 2594 3103 2138 3103 
Q 1681 3103 1420 2742 
Q 1159 2381 1159 1747 
Q 1159 1113 1420 752 
Q 1681 391 2138 391 
Q 2594 391 2855 752 
Q 3116 1113 3116 1747 
z
" transform="scale(0.015625)"/>
      <path id="DejaVuSans-74" d="M 1172 4494 
L 1172 3500 
L 2356 3500 
L 2356 3053 
L 1172 3053 
L 1172 1153 
Q 1172 725 1289 603 
Q 1406 481 1766 481 
L 2356 481 
L 2356 0 
L 1766 0 
Q 1100 0 847 248 
Q 594 497 594 1153 
L 594 3053 
L 172 3053 
L 172 3500 
L 594 3500 
L 594 4494 
L 1172 4494 
z
" transform="scale(0.015625)"/>
      <path id="DejaVuSans-6b" d="M 581 4863 
L 1159 4863 
L 1159 1991 
L 2875 3500 
L 3609 3500 
L 1753 1863 
L 3688 0 
L 2938 0 
L 1159 1709 
L 1159 0 
L 581 0 
L 581 4863 
z
" transform="scale(0.015625)"/>
     </defs>
     <use xlink:href="#DejaVuSans-63"/>
     <use xlink:href="#DejaVuSans-6f" transform="translate(54.980469 0)"/>
     <use xlink:href="#DejaVuSans-6d" transform="translate(116.162109 0)"/>
     <use xlink:href="#DejaVuSans-70" transform="translate(213.574219 0)"/>
     <use xlink:href="#DejaVuSans-6f" transform="translate(277.050781 0)"/>
     <use xlink:href="#DejaVuSans-6e" transform="translate(338.232422 0)"/>
     <use xlink:href="#DejaVuSans-65" transform="translate(401.611328 0)"/>
     <use xlink:href="#DejaVuSans-6e" transform="translate(463.134766 0)"/>
     <use xlink:href="#DejaVuSans-74" transform="translate(526.513672 0)"/>
     <use xlink:href="#DejaVuSans-73" transform="translate(565.722656 0)"/>
     <use xlink:href="#DejaVuSans-20" transform="translate(617.822266 0)"/>
     <use xlink:href="#DejaVuSans-6b" transform="translate(649.609375 0)"/>
    </g>
   </g>
   <g id="text_2">
    <!-- Set mixture parameters -->
    <g transform="translate(250.135437 65.889375) scale(0.1 -0.1)">
     <defs>
      <path id="DejaVuSans-53" d="M 3425 4513 
L 3425 3897 
Q 3066 4069 2747 4153 
Q 2428 4238 2131 4238 
Q 1616 4238 1336 4038 
Q 1056 3838 1056 3469 
Q 1056 3159 1242 3001 
Q 1428 2844 1947 2747 
L 2328 2669 
Q 3034 2534 3370 2195 
Q 3706 1856 3706 1288 
Q 3706 609 3251 259 
Q 2797 -91 1919 -91 
Q 1588 -91 1214 -16 
Q 841 59 441 206 
L 441 856 
Q 825 641 1194 531 
Q 1563 422 1919 422 
Q 2459 422 2753 634 
Q 3047 847 3047 1241 
Q 3047 1584 2836 1778 
Q 2625 1972 2144 2069 
L 1759 2144 
Q 1053 2284 737 2584 
Q 422 2884 422 3419 
Q 422 4038 858 4394 
Q 1294 4750 2059 4750 
Q 2388 4750 2728 4690 
Q 3069 4631 3425 4513 
z
" transform="scale(0.015625)"/>
      <path id="DejaVuSans-69" d="M 603 3500 
L 1178 3500 
L 1178 0 
L 603 0 
L 603 3500 
z
M 603 4863 
L 1178 4863 
L 1178 4134 
L 603 4134 
L 603 4863 
z
" transform="scale(0.015625)"/>
      <path id="DejaVuSans-78" d="M 3513 3500 
L 2247 1797 
L 3578 0 
L 2900 0 
L 1881 1375 
L 863 0 
L 184 0 
L 1544 1831 
L 300 3500 
L 978 3500 
L 1906 2253 
L 2834 3500 
L 3513 3500 
z
" transform="scale(0.015625)"/>
      <path id="DejaVuSans-61" d="M 2194 1759 
Q 1497 1759 1228 1600 
Q 959 1441 959 1056 
Q 959 750 1161 570 
Q 1363 391 1709 391 
Q 2188 391 2477 730 
Q 2766 1069 2766 1631 
L 2766 1759 
L 2194 1759 
z
M 3341 1997 
L 3341 0 
L 2766 0 
L 2766 531 
Q 2569 213 2275 61 
Q 1981 -91 1556 -91 
Q 1019 -91 701 211 
Q 384 513 384 1019 
Q 384 1609 779 1909 
Q 1175 2209 1959 2209 
L 2766 2209 
L 2766 2266 
Q 2766 2663 2505 2880 
Q 2244 3097 1772 3097 
Q 1472 3097 1187 3025 
Q 903 2953 641 2809 
L 641 3341 
Q 956 3463 1253 3523 
Q 1550 3584 1831 3584 
Q 2591 3584 2966 3190 
Q 3341 2797 3341 1997 
z
" transform="scale(0.015625)"/>
     </defs>
     <use xlink:href="#DejaVuSans-53"/>
     <use xlink:href="#DejaVuSans-65" transform="translate(63.476562 0)"/>
     <use xlink:href="#DejaVuSans-74" transform="translate(125 0)"/>
     <use xlink:href="#DejaVuSans-20" transform="translate(164.208984 0)"/>
     <use xlink:href="#DejaVuSans-6d" transform="translate(195.996094 0)"/>
     <use xlink:href="#DejaVuSans-69" transform="translate(293.408203 0)"/>
     <use xlink:href="#DejaVuSans-78" transform="translate(321.191406 0)"/>
     <use xlink:href="#DejaVuSans-74" transform="translate(380.371094 0)"/>
     <use xlink:href="#DejaVuSans-75" transform="translate(419.580078 0)"/>
     <use xlink:href="#DejaVuSans-72" transform="translate(482.958984 0)"/>
     <use xlink:href="#DejaVuSans-65" transform="translate(521.822266 0)"/>
     <use xlink:href="#DejaVuSans-20" transform="translate(583.345703 0)"/>
     <use xlink:href="#DejaVuSans-70" transform="translate(615.132812 0)"/>
     <use xlink:href="#DejaVuSans-61" transform="translate(678.609375 0)"/>
     <use xlink:href="#DejaVuSans-72" transform="translate(739.888672 0)"/>
     <use xlink:href="#DejaVuSans-61" transform="translate(781.001953 0)"/>
     <use xlink:href="#DejaVuSans-6d" transform="translate(842.28125 0)"/>
     <use xlink:href="#DejaVuSans-65" transform="translate(939.693359 0)"/>
     <use xlink:href="#DejaVuSans-74" transform="translate(1001.216797 0)"/>
     <use xlink:href="#DejaVuSans-65" transform="translate(1040.425781 0)"/>
     <use xlink:href="#DejaVuSans-72" transform="translate(1101.949219 0)"/>
     <use xlink:href="#DejaVuSans-73" transform="translate(1143.0625 0)"/>
    </g>
    <!-- $\{\pi_j, \mu_j, \Sigma_j\}$ -->
    <g transform="translate(285.64325 77.089063) scale(0.1 -0.1)">
     <defs>
      <path id="DejaVuSans-7b" d="M 3272 -594 
L 3272 -1044 
L 3078 -1044 
Q 2300 -1044 2036 -812 
Q 1772 -581 1772 109 
L 1772 856 
Q 1772 1328 1603 1509 
Q 1434 1691 991 1691 
L 800 1691 
L 800 2138 
L 991 2138 
Q 1438 2138 1605 2317 
Q 1772 2497 1772 2963 
L 1772 3713 
Q 1772 4403 2036 4633 
Q 2300 4863 3078 4863 
L 3272 4863 
L 3272 4416 
L 3059 4416 
Q 2619 4416 2484 4278 
Q 2350 4141 2350 3700 
L 2350 2925 
Q 2350 2434 2208 2212 
Q 2066 1991 1722 1913 
Q 2069 1828 2209 1606 
Q 2350 1384 2350 897 
L 2350 122 
Q 2350 -319 2484 -456 
Q 2619 -594 3059 -594 
L 3272 -594 
z
" transform="scale(0.015625)"/>
      <path id="DejaVuSans-Oblique-3c0" d="M 584 3500 
L 3938 3500 
L 3825 2925 
L 3384 2925 
L 2966 775 
Q 2922 550 2981 450 
Q 3038 353 3209 353 
Q 3256 353 3325 363 
Q 3397 369 3419 372 
L 3338 -44 
Q 3222 -84 3103 -103 
Q 2981 -122 2866 -122 
Q 2491 -122 2388 81 
Q 2284 288 2391 838 
L 2797 2925 
L 1506 2925 
L 938 0 
L 350 0 
L 919 2925 
L 472 2925 
L 584 3500 
z
" transform="scale(0.015625)"/>
      <path id="DejaVuSans-Oblique-6a" d="M 928 3500 
L 1503 3500 
L 813 -63 
L 809 -78 
Q 694 -675 544 -897 
Q 403 -1106 132 -1218 
Q -138 -1331 -506 -1331 
L -722 -1331 
L -628 -844 
L -481 -844 
Q -144 -844 -1 -703 
Q 141 -563 238 -63 
L 928 3500 
z
M 1197 4863 
L 1772 4863 
L 1631 4134 
L 1056 4134 
L 1197 4863 
z
" transform="scale(0.015625)"/>
      <path id="DejaVuSans-2c" d="M 750 794 
L 1409 794 
L 1409 256 
L 897 -744 
L 494 -744 
L 750 256 
L 750 794 
z
" transform="scale(0.015625)"/>
      <path id="DejaVuSans-Oblique-3bc" d="M -84 -1331 
L 856 3500 
L 1434 3500 
L 1009 1322 
Q 997 1256 987 1175 
Q 978 1094 978 1013 
Q 978 722 1161 565 
Q 1344 409 1684 409 
Q 2147 409 2431 671 
Q 2716 934 2816 1459 
L 3213 3500 
L 3788 3500 
L 3266 809 
Q 3253 750 3248 706 
Q 3244 663 3244 628 
Q 3244 531 3283 486 
Q 3322 441 3406 441 
Q 3438 441 3492 456 
Q 3547 472 3647 513 
L 3559 50 
Q 3422 -19 3297 -55 
Q 3172 -91 3053 -91 
Q 2847 -91 2730 40 
Q 2613 172 2613 403 
Q 2438 153 2195 31 
Q 1953 -91 1625 -91 
Q 1334 -91 1117 43 
Q 900 178 831 397 
L 494 -1331 
L -84 -1331 
z
" transform="scale(0.015625)"/>
      <path id="DejaVuSans-3a3" d="M 1353 531 
L 3634 531 
L 3634 0 
L 628 0 
L 628 531 
L 2125 2481 
L 628 4134 
L 628 4666 
L 3578 4666 
L 3578 4134 
L 1353 4134 
L 2850 2494 
L 1353 531 
z
" transform="scale(0.015625)"/>
      <path id="DejaVuSans-7d" d="M 800 -594 
L 1019 -594 
Q 1456 -594 1589 -459 
Q 1722 -325 1722 122 
L 1722 897 
Q 1722 1384 1862 1606 
Q 2003 1828 2350 1913 
Q 2003 1991 1862 2212 
Q 1722 2434 1722 2925 
L 1722 3700 
Q 1722 4144 1589 4280 
Q 1456 4416 1019 4416 
L 800 4416 
L 800 4863 
L 997 4863 
Q 1775 4863 2036 4633 
Q 2297 4403 2297 3713 
L 2297 2963 
Q 2297 2497 2465 2317 
Q 2634 2138 3078 2138 
L 3272 2138 
L 3272 1691 
L 3078 1691 
Q 2634 1691 2465 1509 
Q 2297 1328 2297 856 
L 2297 109 
Q 2297 -581 2036 -812 
Q 1775 -1044 997 -1044 
L 800 -1044 
L 800 -594 
z
" transform="scale(0.015625)"/>
     </defs>
     <use xlink:href="#DejaVuSans-7b" transform="translate(0 0.015625)"/>
     <use xlink:href="#DejaVuSans-Oblique-3c0" transform="translate(63.623047 0.015625)"/>
     <use xlink:href="#DejaVuSans-Oblique-6a" transform="translate(123.828125 -16.390625) scale(0.7)"/>
     <use xlink:href="#DejaVuSans-2c" transform="translate(146.010742 0.015625)"/>
     <use xlink:href="#DejaVuSans-Oblique-3bc" transform="translate(197.280273 0.015625)"/>
     <use xlink:href="#DejaVuSans-Oblique-6a" transform="translate(260.90332 -16.390625) scale(0.7)"/>
     <use xlink:href="#DejaVuSans-2c" transform="translate(283.085938 0.015625)"/>
     <use xlink:href="#DejaVuSans-3a3" transform="translate(334.355469 0.015625)"/>
     <use xlink:href="#DejaVuSans-Oblique-6a" transform="translate(398.496094 -16.390625) scale(0.7)"/>
     <use xlink:href="#DejaVuSans-7d" transform="translate(420.678711 0.015625)"/>
    </g>
   </g>
   <g id="text_3">
    <!-- Hidden component -->
    <g transform="translate(56.44309 162.269375) scale(0.1 -0.1)">
     <defs>
      <path id="DejaVuSans-48" d="M 628 4666 
L 1259 4666 
L 1259 2753 
L 3553 2753 
L 3553 4666 
L 4184 4666 
L 4184 0 
L 3553 0 
L 3553 2222 
L 1259 2222 
L 1259 0 
L 628 0 
L 628 4666 
z
" transform="scale(0.015625)"/>
      <path id="DejaVuSans-64" d="M 2906 2969 
L 2906 4863 
L 3481 4863 
L 3481 0 
L 2906 0 
L 2906 525 
Q 2725 213 2448 61 
Q 2172 -91 1784 -91 
Q 1150 -91 751 415 
Q 353 922 353 1747 
Q 353 2572 751 3078 
Q 1150 3584 1784 3584 
Q 2172 3584 2448 3432 
Q 2725 3281 2906 2969 
z
M 947 1747 
Q 947 1113 1208 752 
Q 1469 391 1925 391 
Q 2381 391 2643 752 
Q 2906 1113 2906 1747 
Q 2906 2381 2643 2742 
Q 2381 3103 1925 3103 
Q 1469 3103 1208 2742 
Q 947 2381 947 1747 
z
" transform="scale(0.015625)"/>
     </defs>
     <use xlink:href="#DejaVuSans-48"/>
     <use xlink:href="#DejaVuSans-69" transform="translate(75.195312 0)"/>
     <use xlink:href="#DejaVuSans-64" transform="translate(102.978516 0)"/>
     <use xlink:href="#DejaVuSans-64" transform="translate(166.455078 0)"/>
     <use xlink:href="#DejaVuSans-65" transform="translate(229.931641 0)"/>
     <use xlink:href="#DejaVuSans-6e" transform="translate(291.455078 0)"/>
     <use xlink:href="#DejaVuSans-20" transform="translate(354.833984 0)"/>
     <use xlink:href="#DejaVuSans-63" transform="translate(386.621094 0)"/>
     <use xlink:href="#DejaVuSans-6f" transform="translate(441.601562 0)"/>
     <use xlink:href="#DejaVuSans-6d" transform="translate(502.783203 0)"/>
     <use xlink:href="#DejaVuSans-70" transform="translate(600.195312 0)"/>
     <use xlink:href="#DejaVuSans-6f" transform="translate(663.671875 0)"/>
     <use xlink:href="#DejaVuSans-6e" transform="translate(724.853516 0)"/>
     <use xlink:href="#DejaVuSans-65" transform="translate(788.232422 0)"/>
     <use xlink:href="#DejaVuSans-6e" transform="translate(849.755859 0)"/>
     <use xlink:href="#DejaVuSans-74" transform="translate(913.134766 0)"/>
    </g>
    <!-- $z_i \sim \mathrm{Categorical}(\pi)$ -->
    <g transform="translate(58.76184 173.469062) scale(0.1 -0.1)">
     <defs>
      <path id="DejaVuSans-Oblique-7a" d="M 744 3500 
L 3475 3500 
L 3372 2975 
L 738 459 
L 2913 459 
L 2822 0 
L -19 0 
L 84 525 
L 2719 3041 
L 653 3041 
L 744 3500 
z
" transform="scale(0.015625)"/>
      <path id="DejaVuSans-Oblique-69" d="M 1172 4863 
L 1747 4863 
L 1606 4134 
L 1031 4134 
L 1172 4863 
z
M 909 3500 
L 1484 3500 
L 800 0 
L 225 0 
L 909 3500 
z
" transform="scale(0.015625)"/>
      <path id="DejaVuSans-223c" d="M 4684 2556 
L 4684 1997 
Q 4356 1753 4076 1645 
Q 3797 1538 3494 1538 
Q 3150 1538 2694 1722 
Q 2663 1734 2641 1744 
Q 2622 1750 2575 1769 
Q 2091 1959 1797 1959 
Q 1522 1959 1253 1840 
Q 984 1722 678 1459 
L 678 2019 
Q 1006 2263 1286 2370 
Q 1566 2478 1869 2478 
Q 2213 2478 2672 2294 
Q 2706 2278 2722 2272 
Q 2741 2266 2788 2247 
Q 3272 2056 3566 2056 
Q 3834 2056 4098 2173 
Q 4363 2291 4684 2556 
z
" transform="scale(0.015625)"/>
      <path id="DejaVuSans-67" d="M 2906 1791 
Q 2906 2416 2648 2759 
Q 2391 3103 1925 3103 
Q 1463 3103 1205 2759 
Q 947 2416 947 1791 
Q 947 1169 1205 825 
Q 1463 481 1925 481 
Q 2391 481 2648 825 
Q 2906 1169 2906 1791 
z
M 3481 434 
Q 3481 -459 3084 -895 
Q 2688 -1331 1869 -1331 
Q 1566 -1331 1297 -1286 
Q 1028 -1241 775 -1147 
L 775 -588 
Q 1028 -725 1275 -790 
Q 1522 -856 1778 -856 
Q 2344 -856 2625 -561 
Q 2906 -266 2906 331 
L 2906 616 
Q 2728 306 2450 153 
Q 2172 0 1784 0 
Q 1141 0 747 490 
Q 353 981 353 1791 
Q 353 2603 747 3093 
Q 1141 3584 1784 3584 
Q 2172 3584 2450 3431 
Q 2728 3278 2906 2969 
L 2906 3500 
L 3481 3500 
L 3481 434 
z
" transform="scale(0.015625)"/>
      <path id="DejaVuSans-6c" d="M 603 4863 
L 1178 4863 
L 1178 0 
L 603 0 
L 603 4863 
z
" transform="scale(0.015625)"/>
      <path id="DejaVuSans-28" d="M 1984 4856 
Q 1566 4138 1362 3434 
Q 1159 2731 1159 2009 
Q 1159 1288 1364 580 
Q 1569 -128 1984 -844 
L 1484 -844 
Q 1016 -109 783 600 
Q 550 1309 550 2009 
Q 550 2706 781 3412 
Q 1013 4119 1484 4856 
L 1984 4856 
z
" transform="scale(0.015625)"/>
      <path id="DejaVuSans-29" d="M 513 4856 
L 1013 4856 
Q 1481 4119 1714 3412 
Q 1947 2706 1947 2009 
Q 1947 1309 1714 600 
Q 1481 -109 1013 -844 
L 513 -844 
Q 928 -128 1133 580 
Q 1338 1288 1338 2009 
Q 1338 2731 1133 3434 
Q 928 4138 513 4856 
z
" transform="scale(0.015625)"/>
     </defs>
     <use xlink:href="#DejaVuSans-Oblique-7a" transform="translate(0 0.015625)"/>
     <use xlink:href="#DejaVuSans-Oblique-69" transform="translate(52.490234 -16.390625) scale(0.7)"/>
     <use xlink:href="#DejaVuSans-223c" transform="translate(94.155273 0.015625)"/>
     <use xlink:href="#DejaVuSans-43" transform="translate(197.426758 0.015625)"/>
     <use xlink:href="#DejaVuSans-61" transform="translate(267.250977 0.015625)"/>
     <use xlink:href="#DejaVuSans-74" transform="translate(328.530273 0.015625)"/>
     <use xlink:href="#DejaVuSans-65" transform="translate(367.739258 0.015625)"/>
     <use xlink:href="#DejaVuSans-67" transform="translate(429.262695 0.015625)"/>
     <use xlink:href="#DejaVuSans-6f" transform="translate(492.739258 0.015625)"/>
     <use xlink:href="#DejaVuSans-72" transform="translate(553.920898 0.015625)"/>
     <use xlink:href="#DejaVuSans-69" transform="translate(595.03418 0.015625)"/>
     <use xlink:href="#DejaVuSans-63" transform="translate(622.817383 0.015625)"/>
     <use xlink:href="#DejaVuSans-61" transform="translate(677.797852 0.015625)"/>
     <use xlink:href="#DejaVuSans-6c" transform="translate(739.077148 0.015625)"/>
     <use xlink:href="#DejaVuSans-28" transform="translate(766.860352 0.015625)"/>
     <use xlink:href="#DejaVuSans-Oblique-3c0" transform="translate(805.874023 0.015625)"/>
     <use xlink:href="#DejaVuSans-29" transform="translate(866.079102 0.015625)"/>
    </g>
   </g>
   <g id="text_4">
    <!-- Generate features -->
    <g transform="translate(264.297937 161.679375) scale(0.1 -0.1)">
     <defs>
      <path id="DejaVuSans-47" d="M 3809 666 
L 3809 1919 
L 2778 1919 
L 2778 2438 
L 4434 2438 
L 4434 434 
Q 4069 175 3628 42 
Q 3188 -91 2688 -91 
Q 1594 -91 976 548 
Q 359 1188 359 2328 
Q 359 3472 976 4111 
Q 1594 4750 2688 4750 
Q 3144 4750 3555 4637 
Q 3966 4525 4313 4306 
L 4313 3634 
Q 3963 3931 3569 4081 
Q 3175 4231 2741 4231 
Q 1884 4231 1454 3753 
Q 1025 3275 1025 2328 
Q 1025 1384 1454 906 
Q 1884 428 2741 428 
Q 3075 428 3337 486 
Q 3600 544 3809 666 
z
" transform="scale(0.015625)"/>
     </defs>
     <use xlink:href="#DejaVuSans-47"/>
     <use xlink:href="#DejaVuSans-65" transform="translate(77.490234 0)"/>
     <use xlink:href="#DejaVuSans-6e" transform="translate(139.013672 0)"/>
     <use xlink:href="#DejaVuSans-65" transform="translate(202.392578 0)"/>
     <use xlink:href="#DejaVuSans-72" transform="translate(263.916016 0)"/>
     <use xlink:href="#DejaVuSans-61" transform="translate(305.029297 0)"/>
     <use xlink:href="#DejaVuSans-74" transform="translate(366.308594 0)"/>
     <use xlink:href="#DejaVuSans-65" transform="translate(405.517578 0)"/>
     <use xlink:href="#DejaVuSans-20" transform="translate(467.041016 0)"/>
     <use xlink:href="#DejaVuSans-66" transform="translate(498.828125 0)"/>
     <use xlink:href="#DejaVuSans-65" transform="translate(534.033203 0)"/>
     <use xlink:href="#DejaVuSans-61" transform="translate(595.556641 0)"/>
     <use xlink:href="#DejaVuSans-74" transform="translate(656.835938 0)"/>
     <use xlink:href="#DejaVuSans-75" transform="translate(696.044922 0)"/>
     <use xlink:href="#DejaVuSans-72" transform="translate(759.423828 0)"/>
     <use xlink:href="#DejaVuSans-65" transform="translate(798.287109 0)"/>
     <use xlink:href="#DejaVuSans-73" transform="translate(859.810547 0)"/>
    </g>
    <!-- $x_i \sim \mathcal{N}(\mu_{z_i},\Sigma_{z_i})$ -->
    <g transform="translate(276.54325 173.359062) scale(0.1 -0.1)">
     <defs>
      <path id="DejaVuSans-Oblique-78" d="M 3841 3500 
L 2234 1784 
L 3219 0 
L 2559 0 
L 1819 1388 
L 531 0 
L -166 0 
L 1556 1844 
L 641 3500 
L 1300 3500 
L 1972 2234 
L 3144 3500 
L 3841 3500 
z
" transform="scale(0.015625)"/>
      <path id="STIXNonUnicode-Italic-e23a" d="M 4294 800 
L 4301 800 
Q 5293 4070 5408 4378 
Q 5472 4538 5523 4614 
Q 5830 5088 6253 5088 
Q 6490 5088 6650 4931 
Q 6810 4774 6810 4550 
Q 6810 4378 6720 4272 
Q 6630 4166 6470 4166 
Q 6368 4166 6297 4224 
Q 6227 4282 6198 4349 
Q 6170 4416 6118 4473 
Q 6067 4531 6003 4531 
Q 5939 4531 5881 4508 
Q 5824 4486 5785 4457 
Q 5747 4429 5705 4371 
Q 5664 4314 5638 4275 
Q 5613 4237 5584 4163 
Q 5555 4090 5545 4058 
Q 5536 4026 5510 3952 
Q 5485 3878 5485 3866 
L 4262 -154 
L 4134 -154 
Q 3078 1280 2483 2893 
L 2470 2893 
Q 2406 2579 2358 2361 
Q 2310 2144 2214 1792 
Q 2118 1440 2028 1190 
Q 1939 941 1804 653 
Q 1670 365 1529 185 
Q 1389 6 1203 -115 
Q 1018 -237 813 -237 
Q 576 -237 416 -80 
Q 256 77 256 301 
Q 256 474 345 579 
Q 435 685 595 685 
Q 698 685 768 627 
Q 838 570 867 502 
Q 896 435 947 377 
Q 998 320 1062 320 
Q 1222 320 1369 480 
Q 1517 640 1638 928 
Q 1760 1216 1862 1542 
Q 1965 1869 2057 2288 
Q 2150 2707 2214 3033 
Q 2278 3360 2348 3741 
Q 2419 4122 2458 4294 
L 2630 4294 
Q 2682 4166 2874 3680 
Q 3066 3194 3142 3008 
Q 3219 2822 3392 2422 
Q 3565 2022 3683 1798 
Q 3802 1574 3968 1292 
Q 4134 1011 4294 800 
z
" transform="scale(0.015625)"/>
     </defs>
     <use xlink:href="#DejaVuSans-Oblique-78" transform="translate(0 0.5)"/>
     <use xlink:href="#DejaVuSans-Oblique-69" transform="translate(59.179688 -15.90625) scale(0.7)"/>
     <use xlink:href="#DejaVuSans-223c" transform="translate(100.844727 0.5)"/>
     <use xlink:href="#STIXNonUnicode-Italic-e23a" transform="translate(204.116211 0.5)"/>
     <use xlink:href="#DejaVuSans-28" transform="translate(299.816193 0.5)"/>
     <use xlink:href="#DejaVuSans-Oblique-3bc" transform="translate(338.829865 0.5)"/>
     <use xlink:href="#DejaVuSans-Oblique-7a" transform="translate(402.452911 -15.90625) scale(0.7)"/>
     <use xlink:href="#DejaVuSans-Oblique-69" transform="translate(439.196075 -27.390625) scale(0.49)"/>
     <use xlink:href="#DejaVuSans-2c" transform="translate(457.458282 0.5)"/>
     <use xlink:href="#DejaVuSans-3a3" transform="translate(508.727814 0.5)"/>
     <use xlink:href="#DejaVuSans-Oblique-7a" transform="translate(572.868439 -15.90625) scale(0.7)"/>
     <use xlink:href="#DejaVuSans-Oblique-69" transform="translate(609.611603 -27.390625) scale(0.49)"/>
     <use xlink:href="#DejaVuSans-29" transform="translate(627.87381 0.5)"/>
    </g>
   </g>
   <g id="text_5">
    <!-- Observed data -->
    <g transform="translate(478.816066 162.280469) scale(0.1 -0.1)">
     <defs>
      <path id="DejaVuSans-4f" d="M 2522 4238 
Q 1834 4238 1429 3725 
Q 1025 3213 1025 2328 
Q 1025 1447 1429 934 
Q 1834 422 2522 422 
Q 3209 422 3611 934 
Q 4013 1447 4013 2328 
Q 4013 3213 3611 3725 
Q 3209 4238 2522 4238 
z
M 2522 4750 
Q 3503 4750 4090 4092 
Q 4678 3434 4678 2328 
Q 4678 1225 4090 567 
Q 3503 -91 2522 -91 
Q 1538 -91 948 565 
Q 359 1222 359 2328 
Q 359 3434 948 4092 
Q 1538 4750 2522 4750 
z
" transform="scale(0.015625)"/>
      <path id="DejaVuSans-76" d="M 191 3500 
L 800 3500 
L 1894 563 
L 2988 3500 
L 3597 3500 
L 2284 0 
L 1503 0 
L 191 3500 
z
" transform="scale(0.015625)"/>
     </defs>
     <use xlink:href="#DejaVuSans-4f"/>
     <use xlink:href="#DejaVuSans-62" transform="translate(78.710938 0)"/>
     <use xlink:href="#DejaVuSans-73" transform="translate(142.1875 0)"/>
     <use xlink:href="#DejaVuSans-65" transform="translate(194.287109 0)"/>
     <use xlink:href="#DejaVuSans-72" transform="translate(255.810547 0)"/>
     <use xlink:href="#DejaVuSans-76" transform="translate(296.923828 0)"/>
     <use xlink:href="#DejaVuSans-65" transform="translate(356.103516 0)"/>
     <use xlink:href="#DejaVuSans-64" transform="translate(417.626953 0)"/>
     <use xlink:href="#DejaVuSans-20" transform="translate(481.103516 0)"/>
     <use xlink:href="#DejaVuSans-64" transform="translate(512.890625 0)"/>
     <use xlink:href="#DejaVuSans-61" transform="translate(576.367188 0)"/>
     <use xlink:href="#DejaVuSans-74" transform="translate(637.646484 0)"/>
     <use xlink:href="#DejaVuSans-61" transform="translate(676.855469 0)"/>
    </g>
    <!-- $X=\{x_1,\ldots,x_n\}$ -->
    <g transform="translate(479.02466 173.478281) scale(0.1 -0.1)">
     <defs>
      <path id="DejaVuSans-Oblique-58" d="M 878 4666 
L 1516 4666 
L 2316 2981 
L 3763 4666 
L 4500 4666 
L 2578 2438 
L 3738 0 
L 3103 0 
L 2163 1966 
L 459 0 
L -275 0 
L 1906 2509 
L 878 4666 
z
" transform="scale(0.015625)"/>
      <path id="DejaVuSans-3d" d="M 678 2906 
L 4684 2906 
L 4684 2381 
L 678 2381 
L 678 2906 
z
M 678 1631 
L 4684 1631 
L 4684 1100 
L 678 1100 
L 678 1631 
z
" transform="scale(0.015625)"/>
      <path id="DejaVuSans-31" d="M 794 531 
L 1825 531 
L 1825 4091 
L 703 3866 
L 703 4441 
L 1819 4666 
L 2450 4666 
L 2450 531 
L 3481 531 
L 3481 0 
L 794 0 
L 794 531 
z
" transform="scale(0.015625)"/>
      <path id="DejaVuSans-2026" d="M 2869 794 
L 3531 794 
L 3531 0 
L 2869 0 
L 2869 794 
z
M 4997 794 
L 5663 794 
L 5663 0 
L 4997 0 
L 4997 794 
z
M 738 794 
L 1403 794 
L 1403 0 
L 738 0 
L 738 794 
z
" transform="scale(0.015625)"/>
      <path id="DejaVuSans-Oblique-6e" d="M 3566 2113 
L 3156 0 
L 2578 0 
L 2988 2091 
Q 3016 2238 3031 2350 
Q 3047 2463 3047 2528 
Q 3047 2791 2881 2937 
Q 2716 3084 2419 3084 
Q 1956 3084 1622 2776 
Q 1288 2469 1184 1941 
L 800 0 
L 225 0 
L 903 3500 
L 1478 3500 
L 1363 2950 
Q 1603 3253 1940 3418 
Q 2278 3584 2650 3584 
Q 3113 3584 3367 3334 
Q 3622 3084 3622 2631 
Q 3622 2519 3608 2391 
Q 3594 2263 3566 2113 
z
" transform="scale(0.015625)"/>
     </defs>
     <use xlink:href="#DejaVuSans-Oblique-58" transform="translate(0 0.015625)"/>
     <use xlink:href="#DejaVuSans-3d" transform="translate(87.988281 0.015625)"/>
     <use xlink:href="#DejaVuSans-7b" transform="translate(191.259766 0.015625)"/>
     <use xlink:href="#DejaVuSans-Oblique-78" transform="translate(254.882812 0.015625)"/>
     <use xlink:href="#DejaVuSans-31" transform="translate(314.0625 -16.390625) scale(0.7)"/>
     <use xlink:href="#DejaVuSans-2c" transform="translate(361.333008 0.015625)"/>
     <use xlink:href="#DejaVuSans-2026" transform="translate(412.602539 0.015625)"/>
     <use xlink:href="#DejaVuSans-2c" transform="translate(512.602539 0.015625)"/>
     <use xlink:href="#DejaVuSans-Oblique-78" transform="translate(563.87207 0.015625)"/>
     <use xlink:href="#DejaVuSans-Oblique-6e" transform="translate(623.051758 -16.390625) scale(0.7)"/>
     <use xlink:href="#DejaVuSans-7d" transform="translate(670.151367 0.015625)"/>
    </g>
   </g>
   <g id="text_6">
    <!-- Fit GMM to X -->
    <g transform="translate(484.148097 257.570469) scale(0.1 -0.1)">
     <defs>
      <path id="DejaVuSans-46" d="M 628 4666 
L 3309 4666 
L 3309 4134 
L 1259 4134 
L 1259 2759 
L 3109 2759 
L 3109 2228 
L 1259 2228 
L 1259 0 
L 628 0 
L 628 4666 
z
" transform="scale(0.015625)"/>
      <path id="DejaVuSans-4d" d="M 628 4666 
L 1569 4666 
L 2759 1491 
L 3956 4666 
L 4897 4666 
L 4897 0 
L 4281 0 
L 4281 4097 
L 3078 897 
L 2444 897 
L 1241 4097 
L 1241 0 
L 628 0 
L 628 4666 
z
" transform="scale(0.015625)"/>
      <path id="DejaVuSans-58" d="M 403 4666 
L 1081 4666 
L 2241 2931 
L 3406 4666 
L 4084 4666 
L 2584 2425 
L 4184 0 
L 3506 0 
L 2194 1984 
L 872 0 
L 191 0 
L 1856 2491 
L 403 4666 
z
" transform="scale(0.015625)"/>
     </defs>
     <use xlink:href="#DejaVuSans-46"/>
     <use xlink:href="#DejaVuSans-69" transform="translate(50.269531 0)"/>
     <use xlink:href="#DejaVuSans-74" transform="translate(78.052734 0)"/>
     <use xlink:href="#DejaVuSans-20" transform="translate(117.261719 0)"/>
     <use xlink:href="#DejaVuSans-47" transform="translate(149.048828 0)"/>
     <use xlink:href="#DejaVuSans-4d" transform="translate(226.539062 0)"/>
     <use xlink:href="#DejaVuSans-4d" transform="translate(312.818359 0)"/>
     <use xlink:href="#DejaVuSans-20" transform="translate(399.097656 0)"/>
     <use xlink:href="#DejaVuSans-74" transform="translate(430.884766 0)"/>
     <use xlink:href="#DejaVuSans-6f" transform="translate(470.09375 0)"/>
     <use xlink:href="#DejaVuSans-20" transform="translate(531.275391 0)"/>
     <use xlink:href="#DejaVuSans-58" transform="translate(563.0625 0)"/>
    </g>
    <!-- soft memberships -->
    <g transform="translate(470.773879 268.768281) scale(0.1 -0.1)">
     <use xlink:href="#DejaVuSans-73"/>
     <use xlink:href="#DejaVuSans-6f" transform="translate(52.099609 0)"/>
     <use xlink:href="#DejaVuSans-66" transform="translate(113.28125 0)"/>
     <use xlink:href="#DejaVuSans-74" transform="translate(146.736328 0)"/>
     <use xlink:href="#DejaVuSans-20" transform="translate(185.945312 0)"/>
     <use xlink:href="#DejaVuSans-6d" transform="translate(217.732422 0)"/>
     <use xlink:href="#DejaVuSans-65" transform="translate(315.144531 0)"/>
     <use xlink:href="#DejaVuSans-6d" transform="translate(376.667969 0)"/>
     <use xlink:href="#DejaVuSans-62" transform="translate(474.080078 0)"/>
     <use xlink:href="#DejaVuSans-65" transform="translate(537.556641 0)"/>
     <use xlink:href="#DejaVuSans-72" transform="translate(599.080078 0)"/>
     <use xlink:href="#DejaVuSans-73" transform="translate(640.193359 0)"/>
     <use xlink:href="#DejaVuSans-68" transform="translate(692.292969 0)"/>
     <use xlink:href="#DejaVuSans-69" transform="translate(755.671875 0)"/>
     <use xlink:href="#DejaVuSans-70" transform="translate(783.455078 0)"/>
     <use xlink:href="#DejaVuSans-73" transform="translate(846.931641 0)"/>
    </g>
    <!-- $\gamma_{ij}=P(z_i=j\mid x_i)$ -->
    <g transform="translate(477.82466 280.207969) scale(0.1 -0.1)">
     <defs>
      <path id="DejaVuSans-Oblique-3b3" d="M 1491 2950 
L 1838 788 
L 3456 3500 
L 4066 3500 
L 1972 0 
L 1713 -1331 
L 1138 -1331 
L 1397 0 
L 988 2613 
Q 925 3006 628 3006 
L 475 3006 
L 569 3500 
L 788 3500 
Q 1403 3500 1491 2950 
z
" transform="scale(0.015625)"/>
      <path id="DejaVuSans-Oblique-50" d="M 1081 4666 
L 2541 4666 
Q 3178 4666 3512 4369 
Q 3847 4072 3847 3500 
Q 3847 2731 3353 2303 
Q 2859 1875 1966 1875 
L 1172 1875 
L 806 0 
L 172 0 
L 1081 4666 
z
M 1613 4147 
L 1275 2394 
L 2069 2394 
Q 2606 2394 2893 2669 
Q 3181 2944 3181 3456 
Q 3181 3784 2986 3965 
Q 2791 4147 2438 4147 
L 1613 4147 
z
" transform="scale(0.015625)"/>
      <path id="DejaVuSans-2223" d="M 1350 4934 
L 1850 4934 
L 1850 -1369 
L 1350 -1369 
L 1350 4934 
z
" transform="scale(0.015625)"/>
     </defs>
     <use xlink:href="#DejaVuSans-Oblique-3b3" transform="translate(0 0.90625)"/>
     <use xlink:href="#DejaVuSans-Oblique-69" transform="translate(59.179688 -15.5) scale(0.7)"/>
     <use xlink:href="#DejaVuSans-Oblique-6a" transform="translate(78.62793 -15.5) scale(0.7)"/>
     <use xlink:href="#DejaVuSans-3d" transform="translate(120.292969 0.90625)"/>
     <use xlink:href="#DejaVuSans-Oblique-50" transform="translate(223.564453 0.90625)"/>
     <use xlink:href="#DejaVuSans-28" transform="translate(283.867188 0.90625)"/>
     <use xlink:href="#DejaVuSans-Oblique-7a" transform="translate(322.880859 0.90625)"/>
     <use xlink:href="#DejaVuSans-Oblique-69" transform="translate(375.371094 -15.5) scale(0.7)"/>
     <use xlink:href="#DejaVuSans-3d" transform="translate(417.036133 0.90625)"/>
     <use xlink:href="#DejaVuSans-Oblique-6a" transform="translate(520.307617 0.90625)"/>
     <use xlink:href="#DejaVuSans-2223" transform="translate(567.573242 0.90625)"/>
     <use xlink:href="#DejaVuSans-Oblique-78" transform="translate(637.055664 0.90625)"/>
     <use xlink:href="#DejaVuSans-Oblique-69" transform="translate(696.235352 -15.5) scale(0.7)"/>
     <use xlink:href="#DejaVuSans-29" transform="translate(718.417969 0.90625)"/>
    </g>
   </g>
   <g id="text_7">
    <!-- parameter updates -->
    <g style="fill: #7f7f7f" transform="translate(541.956373 114.624422) scale(0.09 -0.09)">
     <use xlink:href="#DejaVuSans-70"/>
     <use xlink:href="#DejaVuSans-61" transform="translate(63.476562 0)"/>
     <use xlink:href="#DejaVuSans-72" transform="translate(124.755859 0)"/>
     <use xlink:href="#DejaVuSans-61" transform="translate(165.869141 0)"/>
     <use xlink:href="#DejaVuSans-6d" transform="translate(227.148438 0)"/>
     <use xlink:href="#DejaVuSans-65" transform="translate(324.560547 0)"/>
     <use xlink:href="#DejaVuSans-74" transform="translate(386.083984 0)"/>
     <use xlink:href="#DejaVuSans-65" transform="translate(425.292969 0)"/>
     <use xlink:href="#DejaVuSans-72" transform="translate(486.816406 0)"/>
     <use xlink:href="#DejaVuSans-20" transform="translate(527.929688 0)"/>
     <use xlink:href="#DejaVuSans-75" transform="translate(559.716797 0)"/>
     <use xlink:href="#DejaVuSans-70" transform="translate(623.095703 0)"/>
     <use xlink:href="#DejaVuSans-64" transform="translate(686.572266 0)"/>
     <use xlink:href="#DejaVuSans-61" transform="translate(750.048828 0)"/>
     <use xlink:href="#DejaVuSans-74" transform="translate(811.328125 0)"/>
     <use xlink:href="#DejaVuSans-65" transform="translate(850.537109 0)"/>
     <use xlink:href="#DejaVuSans-73" transform="translate(912.060547 0)"/>
    </g>
    <!-- during fitting -->
    <g style="fill: #7f7f7f" transform="translate(556.075123 124.702453) scale(0.09 -0.09)">
     <use xlink:href="#DejaVuSans-64"/>
     <use xlink:href="#DejaVuSans-75" transform="translate(63.476562 0)"/>
     <use xlink:href="#DejaVuSans-72" transform="translate(126.855469 0)"/>
     <use xlink:href="#DejaVuSans-69" transform="translate(167.96875 0)"/>
     <use xlink:href="#DejaVuSans-6e" transform="translate(195.751953 0)"/>
     <use xlink:href="#DejaVuSans-67" transform="translate(259.130859 0)"/>
     <use xlink:href="#DejaVuSans-20" transform="translate(322.607422 0)"/>
     <use xlink:href="#DejaVuSans-66" transform="translate(354.394531 0)"/>
     <use xlink:href="#DejaVuSans-69" transform="translate(389.599609 0)"/>
     <use xlink:href="#DejaVuSans-74" transform="translate(417.382812 0)"/>
     <use xlink:href="#DejaVuSans-74" transform="translate(456.591797 0)"/>
     <use xlink:href="#DejaVuSans-69" transform="translate(495.800781 0)"/>
     <use xlink:href="#DejaVuSans-6e" transform="translate(523.583984 0)"/>
     <use xlink:href="#DejaVuSans-67" transform="translate(586.962891 0)"/>
    </g>
   </g>
   <g id="text_8">
    <!-- The observed wine measurements are visible; the component identity is hidden. -->
    <g transform="translate(108.261219 320.22) scale(0.1 -0.1)">
     <defs>
      <path id="DejaVuSans-54" d="M -19 4666 
L 3928 4666 
L 3928 4134 
L 2272 4134 
L 2272 0 
L 1638 0 
L 1638 4134 
L -19 4134 
L -19 4666 
z
" transform="scale(0.015625)"/>
      <path id="DejaVuSans-77" d="M 269 3500 
L 844 3500 
L 1563 769 
L 2278 3500 
L 2956 3500 
L 3675 769 
L 4391 3500 
L 4966 3500 
L 4050 0 
L 3372 0 
L 2619 2869 
L 1863 0 
L 1184 0 
L 269 3500 
z
" transform="scale(0.015625)"/>
      <path id="DejaVuSans-3b" d="M 750 3309 
L 1409 3309 
L 1409 2516 
L 750 2516 
L 750 3309 
z
M 750 794 
L 1409 794 
L 1409 256 
L 897 -744 
L 494 -744 
L 750 256 
L 750 794 
z
" transform="scale(0.015625)"/>
      <path id="DejaVuSans-79" d="M 2059 -325 
Q 1816 -950 1584 -1140 
Q 1353 -1331 966 -1331 
L 506 -1331 
L 506 -850 
L 844 -850 
Q 1081 -850 1212 -737 
Q 1344 -625 1503 -206 
L 1606 56 
L 191 3500 
L 800 3500 
L 1894 763 
L 2988 3500 
L 3597 3500 
L 2059 -325 
z
" transform="scale(0.015625)"/>
      <path id="DejaVuSans-2e" d="M 684 794 
L 1344 794 
L 1344 0 
L 684 0 
L 684 794 
z
" transform="scale(0.015625)"/>
     </defs>
     <use xlink:href="#DejaVuSans-54"/>
     <use xlink:href="#DejaVuSans-68" transform="translate(61.083984 0)"/>
     <use xlink:href="#DejaVuSans-65" transform="translate(124.462891 0)"/>
     <use xlink:href="#DejaVuSans-20" transform="translate(185.986328 0)"/>
     <use xlink:href="#DejaVuSans-6f" transform="translate(217.773438 0)"/>
     <use xlink:href="#DejaVuSans-62" transform="translate(278.955078 0)"/>
     <use xlink:href="#DejaVuSans-73" transform="translate(342.431641 0)"/>
     <use xlink:href="#DejaVuSans-65" transform="translate(394.53125 0)"/>
     <use xlink:href="#DejaVuSans-72" transform="translate(456.054688 0)"/>
     <use xlink:href="#DejaVuSans-76" transform="translate(497.167969 0)"/>
     <use xlink:href="#DejaVuSans-65" transform="translate(556.347656 0)"/>
     <use xlink:href="#DejaVuSans-64" transform="translate(617.871094 0)"/>
     <use xlink:href="#DejaVuSans-20" transform="translate(681.347656 0)"/>
     <use xlink:href="#DejaVuSans-77" transform="translate(713.134766 0)"/>
     <use xlink:href="#DejaVuSans-69" transform="translate(794.921875 0)"/>
     <use xlink:href="#DejaVuSans-6e" transform="translate(822.705078 0)"/>
     <use xlink:href="#DejaVuSans-65" transform="translate(886.083984 0)"/>
     <use xlink:href="#DejaVuSans-20" transform="translate(947.607422 0)"/>
     <use xlink:href="#DejaVuSans-6d" transform="translate(979.394531 0)"/>
     <use xlink:href="#DejaVuSans-65" transform="translate(1076.806641 0)"/>
     <use xlink:href="#DejaVuSans-61" transform="translate(1138.330078 0)"/>
     <use xlink:href="#DejaVuSans-73" transform="translate(1199.609375 0)"/>
     <use xlink:href="#DejaVuSans-75" transform="translate(1251.708984 0)"/>
     <use xlink:href="#DejaVuSans-72" transform="translate(1315.087891 0)"/>
     <use xlink:href="#DejaVuSans-65" transform="translate(1353.951172 0)"/>
     <use xlink:href="#DejaVuSans-6d" transform="translate(1415.474609 0)"/>
     <use xlink:href="#DejaVuSans-65" transform="translate(1512.886719 0)"/>
     <use xlink:href="#DejaVuSans-6e" transform="translate(1574.410156 0)"/>
     <use xlink:href="#DejaVuSans-74" transform="translate(1637.789062 0)"/>
     <use xlink:href="#DejaVuSans-73" transform="translate(1676.998047 0)"/>
     <use xlink:href="#DejaVuSans-20" transform="translate(1729.097656 0)"/>
     <use xlink:href="#DejaVuSans-61" transform="translate(1760.884766 0)"/>
     <use xlink:href="#DejaVuSans-72" transform="translate(1822.164062 0)"/>
     <use xlink:href="#DejaVuSans-65" transform="translate(1861.027344 0)"/>
     <use xlink:href="#DejaVuSans-20" transform="translate(1922.550781 0)"/>
     <use xlink:href="#DejaVuSans-76" transform="translate(1954.337891 0)"/>
     <use xlink:href="#DejaVuSans-69" transform="translate(2013.517578 0)"/>
     <use xlink:href="#DejaVuSans-73" transform="translate(2041.300781 0)"/>
     <use xlink:href="#DejaVuSans-69" transform="translate(2093.400391 0)"/>
     <use xlink:href="#DejaVuSans-62" transform="translate(2121.183594 0)"/>
     <use xlink:href="#DejaVuSans-6c" transform="translate(2184.660156 0)"/>
     <use xlink:href="#DejaVuSans-65" transform="translate(2212.443359 0)"/>
     <use xlink:href="#DejaVuSans-3b" transform="translate(2273.966797 0)"/>
     <use xlink:href="#DejaVuSans-20" transform="translate(2307.658203 0)"/>
     <use xlink:href="#DejaVuSans-74" transform="translate(2339.445312 0)"/>
     <use xlink:href="#DejaVuSans-68" transform="translate(2378.654297 0)"/>
     <use xlink:href="#DejaVuSans-65" transform="translate(2442.033203 0)"/>
     <use xlink:href="#DejaVuSans-20" transform="translate(2503.556641 0)"/>
     <use xlink:href="#DejaVuSans-63" transform="translate(2535.34375 0)"/>
     <use xlink:href="#DejaVuSans-6f" transform="translate(2590.324219 0)"/>
     <use xlink:href="#DejaVuSans-6d" transform="translate(2651.505859 0)"/>
     <use xlink:href="#DejaVuSans-70" transform="translate(2748.917969 0)"/>
     <use xlink:href="#DejaVuSans-6f" transform="translate(2812.394531 0)"/>
     <use xlink:href="#DejaVuSans-6e" transform="translate(2873.576172 0)"/>
     <use xlink:href="#DejaVuSans-65" transform="translate(2936.955078 0)"/>
     <use xlink:href="#DejaVuSans-6e" transform="translate(2998.478516 0)"/>
     <use xlink:href="#DejaVuSans-74" transform="translate(3061.857422 0)"/>
     <use xlink:href="#DejaVuSans-20" transform="translate(3101.066406 0)"/>
     <use xlink:href="#DejaVuSans-69" transform="translate(3132.853516 0)"/>
     <use xlink:href="#DejaVuSans-64" transform="translate(3160.636719 0)"/>
     <use xlink:href="#DejaVuSans-65" transform="translate(3224.113281 0)"/>
     <use xlink:href="#DejaVuSans-6e" transform="translate(3285.636719 0)"/>
     <use xlink:href="#DejaVuSans-74" transform="translate(3349.015625 0)"/>
     <use xlink:href="#DejaVuSans-69" transform="translate(3388.224609 0)"/>
     <use xlink:href="#DejaVuSans-74" transform="translate(3416.007812 0)"/>
     <use xlink:href="#DejaVuSans-79" transform="translate(3455.216797 0)"/>
     <use xlink:href="#DejaVuSans-20" transform="translate(3514.396484 0)"/>
     <use xlink:href="#DejaVuSans-69" transform="translate(3546.183594 0)"/>
     <use xlink:href="#DejaVuSans-73" transform="translate(3573.966797 0)"/>
     <use xlink:href="#DejaVuSans-20" transform="translate(3626.066406 0)"/>
     <use xlink:href="#DejaVuSans-68" transform="translate(3657.853516 0)"/>
     <use xlink:href="#DejaVuSans-69" transform="translate(3721.232422 0)"/>
     <use xlink:href="#DejaVuSans-64" transform="translate(3749.015625 0)"/>
     <use xlink:href="#DejaVuSans-64" transform="translate(3812.492188 0)"/>
     <use xlink:href="#DejaVuSans-65" transform="translate(3875.96875 0)"/>
     <use xlink:href="#DejaVuSans-6e" transform="translate(3937.492188 0)"/>
     <use xlink:href="#DejaVuSans-2e" transform="translate(4000.871094 0)"/>
    </g>
   </g>
  </g>
 </g>
 <defs>
  <clipPath id="pf251e7942a">
   <rect x="7.2" y="7.2" width="605.3865" height="338.4"/>
  </clipPath>
 </defs>
</svg>
