<?xml version="1.0" encoding="utf-8" standalone="no"?>
<!DOCTYPE svg PUBLIC "-//W3C//DTD SVG 1.1//EN"
  "http://www.w3.org/Graphics/SVG/1.1/DTD/svg11.dtd">
<svg xmlns:xlink="http://www.w3.org/1999/xlink" width="523.14125pt" height="322.93875pt" viewBox="0 0 523.14125 322.93875" xmlns="http://www.w3.org/2000/svg" version="1.1">
 <metadata>
  <rdf:RDF xmlns:dc="http://purl.org/dc/elements/1.1/" xmlns:cc="http://creativecommons.org/ns#" xmlns:rdf="http://www.w3.org/1999/02/22-rdf-syntax-ns#">
   <cc:Work>
    <dc:type rdf:resource="http://purl.org/dc/dcmitype/StillImage"/>
    <dc:date>2026-06-30T22:52:57.437352</dc:date>
    <dc:format>image/svg+xml</dc:format>
    <dc:creator>
     <cc:Agent>
      <dc:title>Matplotlib v3.10.8, https://matplotlib.org/</dc:title>
     </cc:Agent>
    </dc:creator>
   </cc:Work>
  </rdf:RDF>
 </metadata>
 <defs>
  <style type="text/css">*{stroke-linejoin: round; stroke-linecap: butt}</style>
 </defs>
 <g id="figure_1">
  <g id="patch_1">
   <path d="M 0 322.93875 
L 523.14125 322.93875 
L 523.14125 0 
L 0 0 
z
" style="fill: #ffffff"/>
  </g>
  <g id="axes_1">
   <g id="patch_2">
    <path d="M 45.690625 287.318125 
L 482.540625 287.318125 
L 482.540625 22.318125 
L 45.690625 22.318125 
z
" style="fill: #ffffff"/>
   </g>
   <g id="patch_3">
    <path d="M 65.547443 287.318125 
L 90.368466 287.318125 
L 90.368466 34.937173 
L 65.547443 34.937173 
z
" clip-path="url(#pddac861c5b)" style="fill: #1f77b4; opacity: 0.75"/>
   </g>
   <g id="patch_4">
    <path d="M 96.573722 287.318125 
L 121.394744 287.318125 
L 121.394744 153.402132 
L 96.573722 153.402132 
z
" clip-path="url(#pddac861c5b)" style="fill: #1f77b4; opacity: 0.75"/>
   </g>
   <g id="patch_5">
    <path d="M 127.6 287.318125 
L 152.421023 287.318125 
L 152.421023 209.763379 
L 127.6 209.763379 
z
" clip-path="url(#pddac861c5b)" style="fill: #1f77b4; opacity: 0.75"/>
   </g>
   <g id="patch_6">
    <path d="M 158.626278 287.318125 
L 183.447301 287.318125 
L 183.447301 238.032342 
L 158.626278 238.032342 
z
" clip-path="url(#pddac861c5b)" style="fill: #1f77b4; opacity: 0.75"/>
   </g>
   <g id="patch_7">
    <path d="M 189.652557 287.318125 
L 214.47358 287.318125 
L 214.47358 241.558373 
L 189.652557 241.558373 
z
" clip-path="url(#pddac861c5b)" style="fill: #1f77b4; opacity: 0.75"/>
   </g>
   <g id="patch_8">
    <path d="M 220.678835 287.318125 
L 245.499858 287.318125 
L 245.499858 252.905213 
L 220.678835 252.905213 
z
" clip-path="url(#pddac861c5b)" style="fill: #1f77b4; opacity: 0.75"/>
   </g>
   <g id="patch_9">
    <path d="M 251.705114 287.318125 
L 276.526136 287.318125 
L 276.526136 257.76575 
L 251.705114 257.76575 
z
" clip-path="url(#pddac861c5b)" style="fill: #1f77b4; opacity: 0.75"/>
   </g>
   <g id="patch_10">
    <path d="M 282.731392 287.318125 
L 307.552415 287.318125 
L 307.552415 268.627752 
L 282.731392 268.627752 
z
" clip-path="url(#pddac861c5b)" style="fill: #1f77b4; opacity: 0.75"/>
   </g>
   <g id="patch_11">
    <path d="M 313.75767 287.318125 
L 338.578693 287.318125 
L 338.578693 271.825113 
L 313.75767 271.825113 
z
" clip-path="url(#pddac861c5b)" style="fill: #1f77b4; opacity: 0.75"/>
   </g>
   <g id="patch_12">
    <path d="M 344.783949 287.318125 
L 369.604972 287.318125 
L 369.604972 273.861894 
L 344.783949 273.861894 
z
" clip-path="url(#pddac861c5b)" style="fill: #1f77b4; opacity: 0.75"/>
   </g>
   <g id="patch_13">
    <path d="M 375.810227 287.318125 
L 400.63125 287.318125 
L 400.63125 275.208783 
L 375.810227 275.208783 
z
" clip-path="url(#pddac861c5b)" style="fill: #1f77b4; opacity: 0.75"/>
   </g>
   <g id="patch_14">
    <path d="M 406.836506 287.318125 
L 431.657528 287.318125 
L 431.657528 278.266755 
L 406.836506 278.266755 
z
" clip-path="url(#pddac861c5b)" style="fill: #1f77b4; opacity: 0.75"/>
   </g>
   <g id="patch_15">
    <path d="M 437.862784 287.318125 
L 462.683807 287.318125 
L 462.683807 281.77383 
L 437.862784 281.77383 
z
" clip-path="url(#pddac861c5b)" style="fill: #1f77b4; opacity: 0.75"/>
   </g>
   <g id="matplotlib.axis_1">
    <g id="xtick_1">
     <g id="line2d_1">
      <defs>
       <path id="m9dba635476" d="M 0 0 
L 0 3.5 
" style="stroke: #000000; stroke-width: 0.8"/>
      </defs>
      <g>
       <use xlink:href="#m9dba635476" x="77.957955" y="287.318125" style="stroke: #000000; stroke-width: 0.8"/>
      </g>
     </g>
     <g id="text_1">
      <!-- 1 -->
      <g transform="translate(75.412955 300.396875) scale(0.08 -0.08)">
       <defs>
        <path id="DejaVuSans-31" d="M 794 531 
L 1825 531 
L 1825 4091 
L 703 3866 
L 703 4441 
L 1819 4666 
L 2450 4666 
L 2450 531 
L 3481 531 
L 3481 0 
L 794 0 
L 794 531 
z
" transform="scale(0.015625)"/>
       </defs>
       <use xlink:href="#DejaVuSans-31"/>
      </g>
     </g>
    </g>
    <g id="xtick_2">
     <g id="line2d_2">
      <g>
       <use xlink:href="#m9dba635476" x="108.984233" y="287.318125" style="stroke: #000000; stroke-width: 0.8"/>
      </g>
     </g>
     <g id="text_2">
      <!-- 2 -->
      <g transform="translate(106.439233 300.396875) scale(0.08 -0.08)">
       <defs>
        <path id="DejaVuSans-32" d="M 1228 531 
L 3431 531 
L 3431 0 
L 469 0 
L 469 531 
Q 828 903 1448 1529 
Q 2069 2156 2228 2338 
Q 2531 2678 2651 2914 
Q 2772 3150 2772 3378 
Q 2772 3750 2511 3984 
Q 2250 4219 1831 4219 
Q 1534 4219 1204 4116 
Q 875 4013 500 3803 
L 500 4441 
Q 881 4594 1212 4672 
Q 1544 4750 1819 4750 
Q 2544 4750 2975 4387 
Q 3406 4025 3406 3419 
Q 3406 3131 3298 2873 
Q 3191 2616 2906 2266 
Q 2828 2175 2409 1742 
Q 1991 1309 1228 531 
z
" transform="scale(0.015625)"/>
       </defs>
       <use xlink:href="#DejaVuSans-32"/>
      </g>
     </g>
    </g>
    <g id="xtick_3">
     <g id="line2d_3">
      <g>
       <use xlink:href="#m9dba635476" x="140.010511" y="287.318125" style="stroke: #000000; stroke-width: 0.8"/>
      </g>
     </g>
     <g id="text_3">
      <!-- 3 -->
      <g transform="translate(137.465511 300.396875) scale(0.08 -0.08)">
       <defs>
        <path id="DejaVuSans-33" d="M 2597 2516 
Q 3050 2419 3304 2112 
Q 3559 1806 3559 1356 
Q 3559 666 3084 287 
Q 2609 -91 1734 -91 
Q 1441 -91 1130 -33 
Q 819 25 488 141 
L 488 750 
Q 750 597 1062 519 
Q 1375 441 1716 441 
Q 2309 441 2620 675 
Q 2931 909 2931 1356 
Q 2931 1769 2642 2001 
Q 2353 2234 1838 2234 
L 1294 2234 
L 1294 2753 
L 1863 2753 
Q 2328 2753 2575 2939 
Q 2822 3125 2822 3475 
Q 2822 3834 2567 4026 
Q 2313 4219 1838 4219 
Q 1578 4219 1281 4162 
Q 984 4106 628 3988 
L 628 4550 
Q 988 4650 1302 4700 
Q 1616 4750 1894 4750 
Q 2613 4750 3031 4423 
Q 3450 4097 3450 3541 
Q 3450 3153 3228 2886 
Q 3006 2619 2597 2516 
z
" transform="scale(0.015625)"/>
       </defs>
       <use xlink:href="#DejaVuSans-33"/>
      </g>
     </g>
    </g>
    <g id="xtick_4">
     <g id="line2d_4">
      <g>
       <use xlink:href="#m9dba635476" x="171.03679" y="287.318125" style="stroke: #000000; stroke-width: 0.8"/>
      </g>
     </g>
     <g id="text_4">
      <!-- 4 -->
      <g transform="translate(168.49179 300.396875) scale(0.08 -0.08)">
       <defs>
        <path id="DejaVuSans-34" d="M 2419 4116 
L 825 1625 
L 2419 1625 
L 2419 4116 
z
M 2253 4666 
L 3047 4666 
L 3047 1625 
L 3713 1625 
L 3713 1100 
L 3047 1100 
L 3047 0 
L 2419 0 
L 2419 1100 
L 313 1100 
L 313 1709 
L 2253 4666 
z
" transform="scale(0.015625)"/>
       </defs>
       <use xlink:href="#DejaVuSans-34"/>
      </g>
     </g>
    </g>
    <g id="xtick_5">
     <g id="line2d_5">
      <g>
       <use xlink:href="#m9dba635476" x="202.063068" y="287.318125" style="stroke: #000000; stroke-width: 0.8"/>
      </g>
     </g>
     <g id="text_5">
      <!-- 5 -->
      <g transform="translate(199.518068 300.396875) scale(0.08 -0.08)">
       <defs>
        <path id="DejaVuSans-35" d="M 691 4666 
L 3169 4666 
L 3169 4134 
L 1269 4134 
L 1269 2991 
Q 1406 3038 1543 3061 
Q 1681 3084 1819 3084 
Q 2600 3084 3056 2656 
Q 3513 2228 3513 1497 
Q 3513 744 3044 326 
Q 2575 -91 1722 -91 
Q 1428 -91 1123 -41 
Q 819 9 494 109 
L 494 744 
Q 775 591 1075 516 
Q 1375 441 1709 441 
Q 2250 441 2565 725 
Q 2881 1009 2881 1497 
Q 2881 1984 2565 2268 
Q 2250 2553 1709 2553 
Q 1456 2553 1204 2497 
Q 953 2441 691 2322 
L 691 4666 
z
" transform="scale(0.015625)"/>
       </defs>
       <use xlink:href="#DejaVuSans-35"/>
      </g>
     </g>
    </g>
    <g id="xtick_6">
     <g id="line2d_6">
      <g>
       <use xlink:href="#m9dba635476" x="233.089347" y="287.318125" style="stroke: #000000; stroke-width: 0.8"/>
      </g>
     </g>
     <g id="text_6">
      <!-- 6 -->
      <g transform="translate(230.544347 300.396875) scale(0.08 -0.08)">
       <defs>
        <path id="DejaVuSans-36" d="M 2113 2584 
Q 1688 2584 1439 2293 
Q 1191 2003 1191 1497 
Q 1191 994 1439 701 
Q 1688 409 2113 409 
Q 2538 409 2786 701 
Q 3034 994 3034 1497 
Q 3034 2003 2786 2293 
Q 2538 2584 2113 2584 
z
M 3366 4563 
L 3366 3988 
Q 3128 4100 2886 4159 
Q 2644 4219 2406 4219 
Q 1781 4219 1451 3797 
Q 1122 3375 1075 2522 
Q 1259 2794 1537 2939 
Q 1816 3084 2150 3084 
Q 2853 3084 3261 2657 
Q 3669 2231 3669 1497 
Q 3669 778 3244 343 
Q 2819 -91 2113 -91 
Q 1303 -91 875 529 
Q 447 1150 447 2328 
Q 447 3434 972 4092 
Q 1497 4750 2381 4750 
Q 2619 4750 2861 4703 
Q 3103 4656 3366 4563 
z
" transform="scale(0.015625)"/>
       </defs>
       <use xlink:href="#DejaVuSans-36"/>
      </g>
     </g>
    </g>
    <g id="xtick_7">
     <g id="line2d_7">
      <g>
       <use xlink:href="#m9dba635476" x="264.115625" y="287.318125" style="stroke: #000000; stroke-width: 0.8"/>
      </g>
     </g>
     <g id="text_7">
      <!-- 7 -->
      <g transform="translate(261.570625 300.396875) scale(0.08 -0.08)">
       <defs>
        <path id="DejaVuSans-37" d="M 525 4666 
L 3525 4666 
L 3525 4397 
L 1831 0 
L 1172 0 
L 2766 4134 
L 525 4134 
L 525 4666 
z
" transform="scale(0.015625)"/>
       </defs>
       <use xlink:href="#DejaVuSans-37"/>
      </g>
     </g>
    </g>
    <g id="xtick_8">
     <g id="line2d_8">
      <g>
       <use xlink:href="#m9dba635476" x="295.141903" y="287.318125" style="stroke: #000000; stroke-width: 0.8"/>
      </g>
     </g>
     <g id="text_8">
      <!-- 8 -->
      <g transform="translate(292.596903 300.396875) scale(0.08 -0.08)">
       <defs>
        <path id="DejaVuSans-38" d="M 2034 2216 
Q 1584 2216 1326 1975 
Q 1069 1734 1069 1313 
Q 1069 891 1326 650 
Q 1584 409 2034 409 
Q 2484 409 2743 651 
Q 3003 894 3003 1313 
Q 3003 1734 2745 1975 
Q 2488 2216 2034 2216 
z
M 1403 2484 
Q 997 2584 770 2862 
Q 544 3141 544 3541 
Q 544 4100 942 4425 
Q 1341 4750 2034 4750 
Q 2731 4750 3128 4425 
Q 3525 4100 3525 3541 
Q 3525 3141 3298 2862 
Q 3072 2584 2669 2484 
Q 3125 2378 3379 2068 
Q 3634 1759 3634 1313 
Q 3634 634 3220 271 
Q 2806 -91 2034 -91 
Q 1263 -91 848 271 
Q 434 634 434 1313 
Q 434 1759 690 2068 
Q 947 2378 1403 2484 
z
M 1172 3481 
Q 1172 3119 1398 2916 
Q 1625 2713 2034 2713 
Q 2441 2713 2670 2916 
Q 2900 3119 2900 3481 
Q 2900 3844 2670 4047 
Q 2441 4250 2034 4250 
Q 1625 4250 1398 4047 
Q 1172 3844 1172 3481 
z
" transform="scale(0.015625)"/>
       </defs>
       <use xlink:href="#DejaVuSans-38"/>
      </g>
     </g>
    </g>
    <g id="xtick_9">
     <g id="line2d_9">
      <g>
       <use xlink:href="#m9dba635476" x="326.168182" y="287.318125" style="stroke: #000000; stroke-width: 0.8"/>
      </g>
     </g>
     <g id="text_9">
      <!-- 9 -->
      <g transform="translate(323.623182 300.396875) scale(0.08 -0.08)">
       <defs>
        <path id="DejaVuSans-39" d="M 703 97 
L 703 672 
Q 941 559 1184 500 
Q 1428 441 1663 441 
Q 2288 441 2617 861 
Q 2947 1281 2994 2138 
Q 2813 1869 2534 1725 
Q 2256 1581 1919 1581 
Q 1219 1581 811 2004 
Q 403 2428 403 3163 
Q 403 3881 828 4315 
Q 1253 4750 1959 4750 
Q 2769 4750 3195 4129 
Q 3622 3509 3622 2328 
Q 3622 1225 3098 567 
Q 2575 -91 1691 -91 
Q 1453 -91 1209 -44 
Q 966 3 703 97 
z
M 1959 2075 
Q 2384 2075 2632 2365 
Q 2881 2656 2881 3163 
Q 2881 3666 2632 3958 
Q 2384 4250 1959 4250 
Q 1534 4250 1286 3958 
Q 1038 3666 1038 3163 
Q 1038 2656 1286 2365 
Q 1534 2075 1959 2075 
z
" transform="scale(0.015625)"/>
       </defs>
       <use xlink:href="#DejaVuSans-39"/>
      </g>
     </g>
    </g>
    <g id="xtick_10">
     <g id="line2d_10">
      <g>
       <use xlink:href="#m9dba635476" x="357.19446" y="287.318125" style="stroke: #000000; stroke-width: 0.8"/>
      </g>
     </g>
     <g id="text_10">
      <!-- 10 -->
      <g transform="translate(352.10446 300.396875) scale(0.08 -0.08)">
       <defs>
        <path id="DejaVuSans-30" d="M 2034 4250 
Q 1547 4250 1301 3770 
Q 1056 3291 1056 2328 
Q 1056 1369 1301 889 
Q 1547 409 2034 409 
Q 2525 409 2770 889 
Q 3016 1369 3016 2328 
Q 3016 3291 2770 3770 
Q 2525 4250 2034 4250 
z
M 2034 4750 
Q 2819 4750 3233 4129 
Q 3647 3509 3647 2328 
Q 3647 1150 3233 529 
Q 2819 -91 2034 -91 
Q 1250 -91 836 529 
Q 422 1150 422 2328 
Q 422 3509 836 4129 
Q 1250 4750 2034 4750 
z
" transform="scale(0.015625)"/>
       </defs>
       <use xlink:href="#DejaVuSans-31"/>
       <use xlink:href="#DejaVuSans-30" transform="translate(63.623047 0)"/>
      </g>
     </g>
    </g>
    <g id="xtick_11">
     <g id="line2d_11">
      <g>
       <use xlink:href="#m9dba635476" x="388.220739" y="287.318125" style="stroke: #000000; stroke-width: 0.8"/>
      </g>
     </g>
     <g id="text_11">
      <!-- 11 -->
      <g transform="translate(383.130739 300.396875) scale(0.08 -0.08)">
       <use xlink:href="#DejaVuSans-31"/>
       <use xlink:href="#DejaVuSans-31" transform="translate(63.623047 0)"/>
      </g>
     </g>
    </g>
    <g id="xtick_12">
     <g id="line2d_12">
      <g>
       <use xlink:href="#m9dba635476" x="419.247017" y="287.318125" style="stroke: #000000; stroke-width: 0.8"/>
      </g>
     </g>
     <g id="text_12">
      <!-- 12 -->
      <g transform="translate(414.157017 300.396875) scale(0.08 -0.08)">
       <use xlink:href="#DejaVuSans-31"/>
       <use xlink:href="#DejaVuSans-32" transform="translate(63.623047 0)"/>
      </g>
     </g>
    </g>
    <g id="xtick_13">
     <g id="line2d_13">
      <g>
       <use xlink:href="#m9dba635476" x="450.273295" y="287.318125" style="stroke: #000000; stroke-width: 0.8"/>
      </g>
     </g>
     <g id="text_13">
      <!-- 13 -->
      <g transform="translate(445.183295 300.396875) scale(0.08 -0.08)">
       <use xlink:href="#DejaVuSans-31"/>
       <use xlink:href="#DejaVuSans-33" transform="translate(63.623047 0)"/>
      </g>
     </g>
    </g>
    <g id="text_14">
     <!-- principal component -->
     <g transform="translate(212.686719 313.659062) scale(0.1 -0.1)">
      <defs>
       <path id="DejaVuSans-70" d="M 1159 525 
L 1159 -1331 
L 581 -1331 
L 581 3500 
L 1159 3500 
L 1159 2969 
Q 1341 3281 1617 3432 
Q 1894 3584 2278 3584 
Q 2916 3584 3314 3078 
Q 3713 2572 3713 1747 
Q 3713 922 3314 415 
Q 2916 -91 2278 -91 
Q 1894 -91 1617 61 
Q 1341 213 1159 525 
z
M 3116 1747 
Q 3116 2381 2855 2742 
Q 2594 3103 2138 3103 
Q 1681 3103 1420 2742 
Q 1159 2381 1159 1747 
Q 1159 1113 1420 752 
Q 1681 391 2138 391 
Q 2594 391 2855 752 
Q 3116 1113 3116 1747 
z
" transform="scale(0.015625)"/>
       <path id="DejaVuSans-72" d="M 2631 2963 
Q 2534 3019 2420 3045 
Q 2306 3072 2169 3072 
Q 1681 3072 1420 2755 
Q 1159 2438 1159 1844 
L 1159 0 
L 581 0 
L 581 3500 
L 1159 3500 
L 1159 2956 
Q 1341 3275 1631 3429 
Q 1922 3584 2338 3584 
Q 2397 3584 2469 3576 
Q 2541 3569 2628 3553 
L 2631 2963 
z
" transform="scale(0.015625)"/>
       <path id="DejaVuSans-69" d="M 603 3500 
L 1178 3500 
L 1178 0 
L 603 0 
L 603 3500 
z
M 603 4863 
L 1178 4863 
L 1178 4134 
L 603 4134 
L 603 4863 
z
" transform="scale(0.015625)"/>
       <path id="DejaVuSans-6e" d="M 3513 2113 
L 3513 0 
L 2938 0 
L 2938 2094 
Q 2938 2591 2744 2837 
Q 2550 3084 2163 3084 
Q 1697 3084 1428 2787 
Q 1159 2491 1159 1978 
L 1159 0 
L 581 0 
L 581 3500 
L 1159 3500 
L 1159 2956 
Q 1366 3272 1645 3428 
Q 1925 3584 2291 3584 
Q 2894 3584 3203 3211 
Q 3513 2838 3513 2113 
z
" transform="scale(0.015625)"/>
       <path id="DejaVuSans-63" d="M 3122 3366 
L 3122 2828 
Q 2878 2963 2633 3030 
Q 2388 3097 2138 3097 
Q 1578 3097 1268 2742 
Q 959 2388 959 1747 
Q 959 1106 1268 751 
Q 1578 397 2138 397 
Q 2388 397 2633 464 
Q 2878 531 3122 666 
L 3122 134 
Q 2881 22 2623 -34 
Q 2366 -91 2075 -91 
Q 1284 -91 818 406 
Q 353 903 353 1747 
Q 353 2603 823 3093 
Q 1294 3584 2113 3584 
Q 2378 3584 2631 3529 
Q 2884 3475 3122 3366 
z
" transform="scale(0.015625)"/>
       <path id="DejaVuSans-61" d="M 2194 1759 
Q 1497 1759 1228 1600 
Q 959 1441 959 1056 
Q 959 750 1161 570 
Q 1363 391 1709 391 
Q 2188 391 2477 730 
Q 2766 1069 2766 1631 
L 2766 1759 
L 2194 1759 
z
M 3341 1997 
L 3341 0 
L 2766 0 
L 2766 531 
Q 2569 213 2275 61 
Q 1981 -91 1556 -91 
Q 1019 -91 701 211 
Q 384 513 384 1019 
Q 384 1609 779 1909 
Q 1175 2209 1959 2209 
L 2766 2209 
L 2766 2266 
Q 2766 2663 2505 2880 
Q 2244 3097 1772 3097 
Q 1472 3097 1187 3025 
Q 903 2953 641 2809 
L 641 3341 
Q 956 3463 1253 3523 
Q 1550 3584 1831 3584 
Q 2591 3584 2966 3190 
Q 3341 2797 3341 1997 
z
" transform="scale(0.015625)"/>
       <path id="DejaVuSans-6c" d="M 603 4863 
L 1178 4863 
L 1178 0 
L 603 0 
L 603 4863 
z
" transform="scale(0.015625)"/>
       <path id="DejaVuSans-20" transform="scale(0.015625)"/>
       <path id="DejaVuSans-6f" d="M 1959 3097 
Q 1497 3097 1228 2736 
Q 959 2375 959 1747 
Q 959 1119 1226 758 
Q 1494 397 1959 397 
Q 2419 397 2687 759 
Q 2956 1122 2956 1747 
Q 2956 2369 2687 2733 
Q 2419 3097 1959 3097 
z
M 1959 3584 
Q 2709 3584 3137 3096 
Q 3566 2609 3566 1747 
Q 3566 888 3137 398 
Q 2709 -91 1959 -91 
Q 1206 -91 779 398 
Q 353 888 353 1747 
Q 353 2609 779 3096 
Q 1206 3584 1959 3584 
z
" transform="scale(0.015625)"/>
       <path id="DejaVuSans-6d" d="M 3328 2828 
Q 3544 3216 3844 3400 
Q 4144 3584 4550 3584 
Q 5097 3584 5394 3201 
Q 5691 2819 5691 2113 
L 5691 0 
L 5113 0 
L 5113 2094 
Q 5113 2597 4934 2840 
Q 4756 3084 4391 3084 
Q 3944 3084 3684 2787 
Q 3425 2491 3425 1978 
L 3425 0 
L 2847 0 
L 2847 2094 
Q 2847 2600 2669 2842 
Q 2491 3084 2119 3084 
Q 1678 3084 1418 2786 
Q 1159 2488 1159 1978 
L 1159 0 
L 581 0 
L 581 3500 
L 1159 3500 
L 1159 2956 
Q 1356 3278 1631 3431 
Q 1906 3584 2284 3584 
Q 2666 3584 2933 3390 
Q 3200 3197 3328 2828 
z
" transform="scale(0.015625)"/>
       <path id="DejaVuSans-65" d="M 3597 1894 
L 3597 1613 
L 953 1613 
Q 991 1019 1311 708 
Q 1631 397 2203 397 
Q 2534 397 2845 478 
Q 3156 559 3463 722 
L 3463 178 
Q 3153 47 2828 -22 
Q 2503 -91 2169 -91 
Q 1331 -91 842 396 
Q 353 884 353 1716 
Q 353 2575 817 3079 
Q 1281 3584 2069 3584 
Q 2775 3584 3186 3129 
Q 3597 2675 3597 1894 
z
M 3022 2063 
Q 3016 2534 2758 2815 
Q 2500 3097 2075 3097 
Q 1594 3097 1305 2825 
Q 1016 2553 972 2059 
L 3022 2063 
z
" transform="scale(0.015625)"/>
       <path id="DejaVuSans-74" d="M 1172 4494 
L 1172 3500 
L 2356 3500 
L 2356 3053 
L 1172 3053 
L 1172 1153 
Q 1172 725 1289 603 
Q 1406 481 1766 481 
L 2356 481 
L 2356 0 
L 1766 0 
Q 1100 0 847 248 
Q 594 497 594 1153 
L 594 3053 
L 172 3053 
L 172 3500 
L 594 3500 
L 594 4494 
L 1172 4494 
z
" transform="scale(0.015625)"/>
      </defs>
      <use xlink:href="#DejaVuSans-70"/>
      <use xlink:href="#DejaVuSans-72" transform="translate(63.476562 0)"/>
      <use xlink:href="#DejaVuSans-69" transform="translate(104.589844 0)"/>
      <use xlink:href="#DejaVuSans-6e" transform="translate(132.373047 0)"/>
      <use xlink:href="#DejaVuSans-63" transform="translate(195.751953 0)"/>
      <use xlink:href="#DejaVuSans-69" transform="translate(250.732422 0)"/>
      <use xlink:href="#DejaVuSans-70" transform="translate(278.515625 0)"/>
      <use xlink:href="#DejaVuSans-61" transform="translate(341.992188 0)"/>
      <use xlink:href="#DejaVuSans-6c" transform="translate(403.271484 0)"/>
      <use xlink:href="#DejaVuSans-20" transform="translate(431.054688 0)"/>
      <use xlink:href="#DejaVuSans-63" transform="translate(462.841797 0)"/>
      <use xlink:href="#DejaVuSans-6f" transform="translate(517.822266 0)"/>
      <use xlink:href="#DejaVuSans-6d" transform="translate(579.003906 0)"/>
      <use xlink:href="#DejaVuSans-70" transform="translate(676.416016 0)"/>
      <use xlink:href="#DejaVuSans-6f" transform="translate(739.892578 0)"/>
      <use xlink:href="#DejaVuSans-6e" transform="translate(801.074219 0)"/>
      <use xlink:href="#DejaVuSans-65" transform="translate(864.453125 0)"/>
      <use xlink:href="#DejaVuSans-6e" transform="translate(925.976562 0)"/>
      <use xlink:href="#DejaVuSans-74" transform="translate(989.355469 0)"/>
     </g>
    </g>
   </g>
   <g id="matplotlib.axis_2">
    <g id="ytick_1">
     <g id="line2d_14">
      <path d="M 45.690625 287.318125 
L 482.540625 287.318125 
" clip-path="url(#pddac861c5b)" style="fill: none; stroke: #d0d0d0; stroke-opacity: 0.7; stroke-width: 0.6; stroke-linecap: square"/>
     </g>
     <g id="line2d_15">
      <defs>
       <path id="m88693df169" d="M 0 0 
L -3.5 0 
" style="stroke: #000000; stroke-width: 0.8"/>
      </defs>
      <g>
       <use xlink:href="#m88693df169" x="45.690625" y="287.318125" style="stroke: #000000; stroke-width: 0.8"/>
      </g>
     </g>
     <g id="text_15">
      <!-- 0.00 -->
      <g transform="translate(20.878125 290.3575) scale(0.08 -0.08)">
       <defs>
        <path id="DejaVuSans-2e" d="M 684 794 
L 1344 794 
L 1344 0 
L 684 0 
L 684 794 
z
" transform="scale(0.015625)"/>
       </defs>
       <use xlink:href="#DejaVuSans-30"/>
       <use xlink:href="#DejaVuSans-2e" transform="translate(63.623047 0)"/>
       <use xlink:href="#DejaVuSans-30" transform="translate(95.410156 0)"/>
       <use xlink:href="#DejaVuSans-30" transform="translate(159.033203 0)"/>
      </g>
     </g>
    </g>
    <g id="ytick_2">
     <g id="line2d_16">
      <path d="M 45.690625 252.457768 
L 482.540625 252.457768 
" clip-path="url(#pddac861c5b)" style="fill: none; stroke: #d0d0d0; stroke-opacity: 0.7; stroke-width: 0.6; stroke-linecap: square"/>
     </g>
     <g id="line2d_17">
      <g>
       <use xlink:href="#m88693df169" x="45.690625" y="252.457768" style="stroke: #000000; stroke-width: 0.8"/>
      </g>
     </g>
     <g id="text_16">
      <!-- 0.05 -->
      <g transform="translate(20.878125 255.497143) scale(0.08 -0.08)">
       <use xlink:href="#DejaVuSans-30"/>
       <use xlink:href="#DejaVuSans-2e" transform="translate(63.623047 0)"/>
       <use xlink:href="#DejaVuSans-30" transform="translate(95.410156 0)"/>
       <use xlink:href="#DejaVuSans-35" transform="translate(159.033203 0)"/>
      </g>
     </g>
    </g>
    <g id="ytick_3">
     <g id="line2d_18">
      <path d="M 45.690625 217.597411 
L 482.540625 217.597411 
" clip-path="url(#pddac861c5b)" style="fill: none; stroke: #d0d0d0; stroke-opacity: 0.7; stroke-width: 0.6; stroke-linecap: square"/>
     </g>
     <g id="line2d_19">
      <g>
       <use xlink:href="#m88693df169" x="45.690625" y="217.597411" style="stroke: #000000; stroke-width: 0.8"/>
      </g>
     </g>
     <g id="text_17">
      <!-- 0.10 -->
      <g transform="translate(20.878125 220.636786) scale(0.08 -0.08)">
       <use xlink:href="#DejaVuSans-30"/>
       <use xlink:href="#DejaVuSans-2e" transform="translate(63.623047 0)"/>
       <use xlink:href="#DejaVuSans-31" transform="translate(95.410156 0)"/>
       <use xlink:href="#DejaVuSans-30" transform="translate(159.033203 0)"/>
      </g>
     </g>
    </g>
    <g id="ytick_4">
     <g id="line2d_20">
      <path d="M 45.690625 182.737054 
L 482.540625 182.737054 
" clip-path="url(#pddac861c5b)" style="fill: none; stroke: #d0d0d0; stroke-opacity: 0.7; stroke-width: 0.6; stroke-linecap: square"/>
     </g>
     <g id="line2d_21">
      <g>
       <use xlink:href="#m88693df169" x="45.690625" y="182.737054" style="stroke: #000000; stroke-width: 0.8"/>
      </g>
     </g>
     <g id="text_18">
      <!-- 0.15 -->
      <g transform="translate(20.878125 185.776429) scale(0.08 -0.08)">
       <use xlink:href="#DejaVuSans-30"/>
       <use xlink:href="#DejaVuSans-2e" transform="translate(63.623047 0)"/>
       <use xlink:href="#DejaVuSans-31" transform="translate(95.410156 0)"/>
       <use xlink:href="#DejaVuSans-35" transform="translate(159.033203 0)"/>
      </g>
     </g>
    </g>
    <g id="ytick_5">
     <g id="line2d_22">
      <path d="M 45.690625 147.876698 
L 482.540625 147.876698 
" clip-path="url(#pddac861c5b)" style="fill: none; stroke: #d0d0d0; stroke-opacity: 0.7; stroke-width: 0.6; stroke-linecap: square"/>
     </g>
     <g id="line2d_23">
      <g>
       <use xlink:href="#m88693df169" x="45.690625" y="147.876698" style="stroke: #000000; stroke-width: 0.8"/>
      </g>
     </g>
     <g id="text_19">
      <!-- 0.20 -->
      <g transform="translate(20.878125 150.916073) scale(0.08 -0.08)">
       <use xlink:href="#DejaVuSans-30"/>
       <use xlink:href="#DejaVuSans-2e" transform="translate(63.623047 0)"/>
       <use xlink:href="#DejaVuSans-32" transform="translate(95.410156 0)"/>
       <use xlink:href="#DejaVuSans-30" transform="translate(159.033203 0)"/>
      </g>
     </g>
    </g>
    <g id="ytick_6">
     <g id="line2d_24">
      <path d="M 45.690625 113.016341 
L 482.540625 113.016341 
" clip-path="url(#pddac861c5b)" style="fill: none; stroke: #d0d0d0; stroke-opacity: 0.7; stroke-width: 0.6; stroke-linecap: square"/>
     </g>
     <g id="line2d_25">
      <g>
       <use xlink:href="#m88693df169" x="45.690625" y="113.016341" style="stroke: #000000; stroke-width: 0.8"/>
      </g>
     </g>
     <g id="text_20">
      <!-- 0.25 -->
      <g transform="translate(20.878125 116.055716) scale(0.08 -0.08)">
       <use xlink:href="#DejaVuSans-30"/>
       <use xlink:href="#DejaVuSans-2e" transform="translate(63.623047 0)"/>
       <use xlink:href="#DejaVuSans-32" transform="translate(95.410156 0)"/>
       <use xlink:href="#DejaVuSans-35" transform="translate(159.033203 0)"/>
      </g>
     </g>
    </g>
    <g id="ytick_7">
     <g id="line2d_26">
      <path d="M 45.690625 78.155984 
L 482.540625 78.155984 
" clip-path="url(#pddac861c5b)" style="fill: none; stroke: #d0d0d0; stroke-opacity: 0.7; stroke-width: 0.6; stroke-linecap: square"/>
     </g>
     <g id="line2d_27">
      <g>
       <use xlink:href="#m88693df169" x="45.690625" y="78.155984" style="stroke: #000000; stroke-width: 0.8"/>
      </g>
     </g>
     <g id="text_21">
      <!-- 0.30 -->
      <g transform="translate(20.878125 81.195359) scale(0.08 -0.08)">
       <use xlink:href="#DejaVuSans-30"/>
       <use xlink:href="#DejaVuSans-2e" transform="translate(63.623047 0)"/>
       <use xlink:href="#DejaVuSans-33" transform="translate(95.410156 0)"/>
       <use xlink:href="#DejaVuSans-30" transform="translate(159.033203 0)"/>
      </g>
     </g>
    </g>
    <g id="ytick_8">
     <g id="line2d_28">
      <path d="M 45.690625 43.295627 
L 482.540625 43.295627 
" clip-path="url(#pddac861c5b)" style="fill: none; stroke: #d0d0d0; stroke-opacity: 0.7; stroke-width: 0.6; stroke-linecap: square"/>
     </g>
     <g id="line2d_29">
      <g>
       <use xlink:href="#m88693df169" x="45.690625" y="43.295627" style="stroke: #000000; stroke-width: 0.8"/>
      </g>
     </g>
     <g id="text_22">
      <!-- 0.35 -->
      <g transform="translate(20.878125 46.335002) scale(0.08 -0.08)">
       <use xlink:href="#DejaVuSans-30"/>
       <use xlink:href="#DejaVuSans-2e" transform="translate(63.623047 0)"/>
       <use xlink:href="#DejaVuSans-33" transform="translate(95.410156 0)"/>
       <use xlink:href="#DejaVuSans-35" transform="translate(159.033203 0)"/>
      </g>
     </g>
    </g>
    <g id="text_23">
     <!-- explained variance ratio -->
     <g transform="translate(14.798438 215.435312) rotate(-90) scale(0.1 -0.1)">
      <defs>
       <path id="DejaVuSans-78" d="M 3513 3500 
L 2247 1797 
L 3578 0 
L 2900 0 
L 1881 1375 
L 863 0 
L 184 0 
L 1544 1831 
L 300 3500 
L 978 3500 
L 1906 2253 
L 2834 3500 
L 3513 3500 
z
" transform="scale(0.015625)"/>
       <path id="DejaVuSans-64" d="M 2906 2969 
L 2906 4863 
L 3481 4863 
L 3481 0 
L 2906 0 
L 2906 525 
Q 2725 213 2448 61 
Q 2172 -91 1784 -91 
Q 1150 -91 751 415 
Q 353 922 353 1747 
Q 353 2572 751 3078 
Q 1150 3584 1784 3584 
Q 2172 3584 2448 3432 
Q 2725 3281 2906 2969 
z
M 947 1747 
Q 947 1113 1208 752 
Q 1469 391 1925 391 
Q 2381 391 2643 752 
Q 2906 1113 2906 1747 
Q 2906 2381 2643 2742 
Q 2381 3103 1925 3103 
Q 1469 3103 1208 2742 
Q 947 2381 947 1747 
z
" transform="scale(0.015625)"/>
       <path id="DejaVuSans-76" d="M 191 3500 
L 800 3500 
L 1894 563 
L 2988 3500 
L 3597 3500 
L 2284 0 
L 1503 0 
L 191 3500 
z
" transform="scale(0.015625)"/>
      </defs>
      <use xlink:href="#DejaVuSans-65"/>
      <use xlink:href="#DejaVuSans-78" transform="translate(59.773438 0)"/>
      <use xlink:href="#DejaVuSans-70" transform="translate(118.953125 0)"/>
      <use xlink:href="#DejaVuSans-6c" transform="translate(182.429688 0)"/>
      <use xlink:href="#DejaVuSans-61" transform="translate(210.212891 0)"/>
      <use xlink:href="#DejaVuSans-69" transform="translate(271.492188 0)"/>
      <use xlink:href="#DejaVuSans-6e" transform="translate(299.275391 0)"/>
      <use xlink:href="#DejaVuSans-65" transform="translate(362.654297 0)"/>
      <use xlink:href="#DejaVuSans-64" transform="translate(424.177734 0)"/>
      <use xlink:href="#DejaVuSans-20" transform="translate(487.654297 0)"/>
      <use xlink:href="#DejaVuSans-76" transform="translate(519.441406 0)"/>
      <use xlink:href="#DejaVuSans-61" transform="translate(578.621094 0)"/>
      <use xlink:href="#DejaVuSans-72" transform="translate(639.900391 0)"/>
      <use xlink:href="#DejaVuSans-69" transform="translate(681.013672 0)"/>
      <use xlink:href="#DejaVuSans-61" transform="translate(708.796875 0)"/>
      <use xlink:href="#DejaVuSans-6e" transform="translate(770.076172 0)"/>
      <use xlink:href="#DejaVuSans-63" transform="translate(833.455078 0)"/>
      <use xlink:href="#DejaVuSans-65" transform="translate(888.435547 0)"/>
      <use xlink:href="#DejaVuSans-20" transform="translate(949.958984 0)"/>
      <use xlink:href="#DejaVuSans-72" transform="translate(981.746094 0)"/>
      <use xlink:href="#DejaVuSans-61" transform="translate(1022.859375 0)"/>
      <use xlink:href="#DejaVuSans-74" transform="translate(1084.138672 0)"/>
      <use xlink:href="#DejaVuSans-69" transform="translate(1123.347656 0)"/>
      <use xlink:href="#DejaVuSans-6f" transform="translate(1151.130859 0)"/>
     </g>
    </g>
   </g>
   <g id="patch_16">
    <path d="M 45.690625 287.318125 
L 45.690625 22.318125 
" style="fill: none; stroke: #555555; stroke-width: 0.8; stroke-linejoin: miter; stroke-linecap: square"/>
   </g>
   <g id="patch_17">
    <path d="M 482.540625 287.318125 
L 482.540625 22.318125 
" style="fill: none; stroke: #555555; stroke-width: 0.8; stroke-linejoin: miter; stroke-linecap: square"/>
   </g>
   <g id="patch_18">
    <path d="M 45.690625 287.318125 
L 482.540625 287.318125 
" style="fill: none; stroke: #555555; stroke-width: 0.8; stroke-linejoin: miter; stroke-linecap: square"/>
   </g>
   <g id="patch_19">
    <path d="M 45.690625 22.318125 
L 482.540625 22.318125 
" style="fill: none; stroke: #555555; stroke-width: 0.8; stroke-linejoin: miter; stroke-linecap: square"/>
   </g>
   <g id="text_24">
    <!-- Scree plot for Wine data -->
    <g transform="translate(191.441563 16.318125) scale(0.12 -0.12)">
     <defs>
      <path id="DejaVuSans-53" d="M 3425 4513 
L 3425 3897 
Q 3066 4069 2747 4153 
Q 2428 4238 2131 4238 
Q 1616 4238 1336 4038 
Q 1056 3838 1056 3469 
Q 1056 3159 1242 3001 
Q 1428 2844 1947 2747 
L 2328 2669 
Q 3034 2534 3370 2195 
Q 3706 1856 3706 1288 
Q 3706 609 3251 259 
Q 2797 -91 1919 -91 
Q 1588 -91 1214 -16 
Q 841 59 441 206 
L 441 856 
Q 825 641 1194 531 
Q 1563 422 1919 422 
Q 2459 422 2753 634 
Q 3047 847 3047 1241 
Q 3047 1584 2836 1778 
Q 2625 1972 2144 2069 
L 1759 2144 
Q 1053 2284 737 2584 
Q 422 2884 422 3419 
Q 422 4038 858 4394 
Q 1294 4750 2059 4750 
Q 2388 4750 2728 4690 
Q 3069 4631 3425 4513 
z
" transform="scale(0.015625)"/>
      <path id="DejaVuSans-66" d="M 2375 4863 
L 2375 4384 
L 1825 4384 
Q 1516 4384 1395 4259 
Q 1275 4134 1275 3809 
L 1275 3500 
L 2222 3500 
L 2222 3053 
L 1275 3053 
L 1275 0 
L 697 0 
L 697 3053 
L 147 3053 
L 147 3500 
L 697 3500 
L 697 3744 
Q 697 4328 969 4595 
Q 1241 4863 1831 4863 
L 2375 4863 
z
" transform="scale(0.015625)"/>
      <path id="DejaVuSans-57" d="M 213 4666 
L 850 4666 
L 1831 722 
L 2809 4666 
L 3519 4666 
L 4500 722 
L 5478 4666 
L 6119 4666 
L 4947 0 
L 4153 0 
L 3169 4050 
L 2175 0 
L 1381 0 
L 213 4666 
z
" transform="scale(0.015625)"/>
     </defs>
     <use xlink:href="#DejaVuSans-53"/>
     <use xlink:href="#DejaVuSans-63" transform="translate(63.476562 0)"/>
     <use xlink:href="#DejaVuSans-72" transform="translate(118.457031 0)"/>
     <use xlink:href="#DejaVuSans-65" transform="translate(157.320312 0)"/>
     <use xlink:href="#DejaVuSans-65" transform="translate(218.84375 0)"/>
     <use xlink:href="#DejaVuSans-20" transform="translate(280.367188 0)"/>
     <use xlink:href="#DejaVuSans-70" transform="translate(312.154297 0)"/>
     <use xlink:href="#DejaVuSans-6c" transform="translate(375.630859 0)"/>
     <use xlink:href="#DejaVuSans-6f" transform="translate(403.414062 0)"/>
     <use xlink:href="#DejaVuSans-74" transform="translate(464.595703 0)"/>
     <use xlink:href="#DejaVuSans-20" transform="translate(503.804688 0)"/>
     <use xlink:href="#DejaVuSans-66" transform="translate(535.591797 0)"/>
     <use xlink:href="#DejaVuSans-6f" transform="translate(570.796875 0)"/>
     <use xlink:href="#DejaVuSans-72" transform="translate(631.978516 0)"/>
     <use xlink:href="#DejaVuSans-20" transform="translate(673.091797 0)"/>
     <use xlink:href="#DejaVuSans-57" transform="translate(704.878906 0)"/>
     <use xlink:href="#DejaVuSans-69" transform="translate(801.505859 0)"/>
     <use xlink:href="#DejaVuSans-6e" transform="translate(829.289062 0)"/>
     <use xlink:href="#DejaVuSans-65" transform="translate(892.667969 0)"/>
     <use xlink:href="#DejaVuSans-20" transform="translate(954.191406 0)"/>
     <use xlink:href="#DejaVuSans-64" transform="translate(985.978516 0)"/>
     <use xlink:href="#DejaVuSans-61" transform="translate(1049.455078 0)"/>
     <use xlink:href="#DejaVuSans-74" transform="translate(1110.734375 0)"/>
     <use xlink:href="#DejaVuSans-61" transform="translate(1149.943359 0)"/>
    </g>
   </g>
   <g id="legend_1">
    <g id="patch_20">
     <path d="M 406.868125 167.760625 
L 476.940625 167.760625 
Q 478.540625 167.760625 478.540625 166.160625 
L 478.540625 143.475625 
Q 478.540625 141.875625 476.940625 141.875625 
L 406.868125 141.875625 
Q 405.268125 141.875625 405.268125 143.475625 
L 405.268125 166.160625 
Q 405.268125 167.760625 406.868125 167.760625 
z
" style="fill: #ffffff; opacity: 0.8; stroke: #cccccc; stroke-linejoin: miter"/>
    </g>
    <g id="patch_21">
     <path d="M 408.468125 151.154375 
L 424.468125 151.154375 
L 424.468125 145.554375 
L 408.468125 145.554375 
z
" style="fill: #1f77b4; opacity: 0.75"/>
    </g>
    <g id="text_25">
     <!-- individual -->
     <g transform="translate(430.868125 151.154375) scale(0.08 -0.08)">
      <defs>
       <path id="DejaVuSans-75" d="M 544 1381 
L 544 3500 
L 1119 3500 
L 1119 1403 
Q 1119 906 1312 657 
Q 1506 409 1894 409 
Q 2359 409 2629 706 
Q 2900 1003 2900 1516 
L 2900 3500 
L 3475 3500 
L 3475 0 
L 2900 0 
L 2900 538 
Q 2691 219 2414 64 
Q 2138 -91 1772 -91 
Q 1169 -91 856 284 
Q 544 659 544 1381 
z
M 1991 3584 
L 1991 3584 
z
" transform="scale(0.015625)"/>
      </defs>
      <use xlink:href="#DejaVuSans-69"/>
      <use xlink:href="#DejaVuSans-6e" transform="translate(27.783203 0)"/>
      <use xlink:href="#DejaVuSans-64" transform="translate(91.162109 0)"/>
      <use xlink:href="#DejaVuSans-69" transform="translate(154.638672 0)"/>
      <use xlink:href="#DejaVuSans-76" transform="translate(182.421875 0)"/>
      <use xlink:href="#DejaVuSans-69" transform="translate(241.601562 0)"/>
      <use xlink:href="#DejaVuSans-64" transform="translate(269.384766 0)"/>
      <use xlink:href="#DejaVuSans-75" transform="translate(332.861328 0)"/>
      <use xlink:href="#DejaVuSans-61" transform="translate(396.240234 0)"/>
      <use xlink:href="#DejaVuSans-6c" transform="translate(457.519531 0)"/>
     </g>
    </g>
    <g id="line2d_30">
     <path d="M 408.468125 160.096875 
L 416.468125 160.096875 
L 424.468125 160.096875 
" style="fill: none; stroke: #ff7f0e; stroke-width: 2.2; stroke-linecap: square"/>
     <defs>
      <path id="m7ec6cd489b" d="M 0 3 
C 0.795609 3 1.55874 2.683901 2.12132 2.12132 
C 2.683901 1.55874 3 0.795609 3 0 
C 3 -0.795609 2.683901 -1.55874 2.12132 -2.12132 
C 1.55874 -2.683901 0.795609 -3 0 -3 
C -0.795609 -3 -1.55874 -2.683901 -2.12132 -2.12132 
C -2.683901 -1.55874 -3 -0.795609 -3 0 
C -3 0.795609 -2.683901 1.55874 -2.12132 2.12132 
C -1.55874 2.683901 -0.795609 3 0 3 
z
" style="stroke: #ff7f0e"/>
     </defs>
     <g>
      <use xlink:href="#m7ec6cd489b" x="416.468125" y="160.096875" style="fill: #ff7f0e; stroke: #ff7f0e"/>
     </g>
    </g>
    <g id="text_26">
     <!-- cumulative -->
     <g transform="translate(430.868125 162.896875) scale(0.08 -0.08)">
      <use xlink:href="#DejaVuSans-63"/>
      <use xlink:href="#DejaVuSans-75" transform="translate(54.980469 0)"/>
      <use xlink:href="#DejaVuSans-6d" transform="translate(118.359375 0)"/>
      <use xlink:href="#DejaVuSans-75" transform="translate(215.771484 0)"/>
      <use xlink:href="#DejaVuSans-6c" transform="translate(279.150391 0)"/>
      <use xlink:href="#DejaVuSans-61" transform="translate(306.933594 0)"/>
      <use xlink:href="#DejaVuSans-74" transform="translate(368.212891 0)"/>
      <use xlink:href="#DejaVuSans-69" transform="translate(407.421875 0)"/>
      <use xlink:href="#DejaVuSans-76" transform="translate(435.205078 0)"/>
      <use xlink:href="#DejaVuSans-65" transform="translate(494.384766 0)"/>
     </g>
    </g>
   </g>
  </g>
  <g id="axes_2">
   <g id="matplotlib.axis_3">
    <g id="ytick_9">
     <g id="line2d_31">
      <defs>
       <path id="mc807e706e1" d="M 0 0 
L 3.5 0 
" style="stroke: #000000; stroke-width: 0.8"/>
      </defs>
      <g>
       <use xlink:href="#mc807e706e1" x="482.540625" y="287.318125" style="stroke: #000000; stroke-width: 0.8"/>
      </g>
     </g>
     <g id="text_27">
      <!-- 0.0 -->
      <g transform="translate(489.540625 290.3575) scale(0.08 -0.08)">
       <use xlink:href="#DejaVuSans-30"/>
       <use xlink:href="#DejaVuSans-2e" transform="translate(63.623047 0)"/>
       <use xlink:href="#DejaVuSans-30" transform="translate(95.410156 0)"/>
      </g>
     </g>
    </g>
    <g id="ytick_10">
     <g id="line2d_32">
      <g>
       <use xlink:href="#mc807e706e1" x="482.540625" y="236.841935" style="stroke: #000000; stroke-width: 0.8"/>
      </g>
     </g>
     <g id="text_28">
      <!-- 0.2 -->
      <g transform="translate(489.540625 239.88131) scale(0.08 -0.08)">
       <use xlink:href="#DejaVuSans-30"/>
       <use xlink:href="#DejaVuSans-2e" transform="translate(63.623047 0)"/>
       <use xlink:href="#DejaVuSans-32" transform="translate(95.410156 0)"/>
      </g>
     </g>
    </g>
    <g id="ytick_11">
     <g id="line2d_33">
      <g>
       <use xlink:href="#mc807e706e1" x="482.540625" y="186.365744" style="stroke: #000000; stroke-width: 0.8"/>
      </g>
     </g>
     <g id="text_29">
      <!-- 0.4 -->
      <g transform="translate(489.540625 189.405119) scale(0.08 -0.08)">
       <use xlink:href="#DejaVuSans-30"/>
       <use xlink:href="#DejaVuSans-2e" transform="translate(63.623047 0)"/>
       <use xlink:href="#DejaVuSans-34" transform="translate(95.410156 0)"/>
      </g>
     </g>
    </g>
    <g id="ytick_12">
     <g id="line2d_34">
      <g>
       <use xlink:href="#mc807e706e1" x="482.540625" y="135.889554" style="stroke: #000000; stroke-width: 0.8"/>
      </g>
     </g>
     <g id="text_30">
      <!-- 0.6 -->
      <g transform="translate(489.540625 138.928929) scale(0.08 -0.08)">
       <use xlink:href="#DejaVuSans-30"/>
       <use xlink:href="#DejaVuSans-2e" transform="translate(63.623047 0)"/>
       <use xlink:href="#DejaVuSans-36" transform="translate(95.410156 0)"/>
      </g>
     </g>
    </g>
    <g id="ytick_13">
     <g id="line2d_35">
      <g>
       <use xlink:href="#mc807e706e1" x="482.540625" y="85.413363" style="stroke: #000000; stroke-width: 0.8"/>
      </g>
     </g>
     <g id="text_31">
      <!-- 0.8 -->
      <g transform="translate(489.540625 88.452738) scale(0.08 -0.08)">
       <use xlink:href="#DejaVuSans-30"/>
       <use xlink:href="#DejaVuSans-2e" transform="translate(63.623047 0)"/>
       <use xlink:href="#DejaVuSans-38" transform="translate(95.410156 0)"/>
      </g>
     </g>
    </g>
    <g id="ytick_14">
     <g id="line2d_36">
      <g>
       <use xlink:href="#mc807e706e1" x="482.540625" y="34.937173" style="stroke: #000000; stroke-width: 0.8"/>
      </g>
     </g>
     <g id="text_32">
      <!-- 1.0 -->
      <g transform="translate(489.540625 37.976548) scale(0.08 -0.08)">
       <use xlink:href="#DejaVuSans-31"/>
       <use xlink:href="#DejaVuSans-2e" transform="translate(63.623047 0)"/>
       <use xlink:href="#DejaVuSans-30" transform="translate(95.410156 0)"/>
      </g>
     </g>
    </g>
    <g id="text_33">
     <!-- cumulative explained variance -->
     <g transform="translate(513.861563 231.7025) rotate(-90) scale(0.1 -0.1)">
      <use xlink:href="#DejaVuSans-63"/>
      <use xlink:href="#DejaVuSans-75" transform="translate(54.980469 0)"/>
      <use xlink:href="#DejaVuSans-6d" transform="translate(118.359375 0)"/>
      <use xlink:href="#DejaVuSans-75" transform="translate(215.771484 0)"/>
      <use xlink:href="#DejaVuSans-6c" transform="translate(279.150391 0)"/>
      <use xlink:href="#DejaVuSans-61" transform="translate(306.933594 0)"/>
      <use xlink:href="#DejaVuSans-74" transform="translate(368.212891 0)"/>
      <use xlink:href="#DejaVuSans-69" transform="translate(407.421875 0)"/>
      <use xlink:href="#DejaVuSans-76" transform="translate(435.205078 0)"/>
      <use xlink:href="#DejaVuSans-65" transform="translate(494.384766 0)"/>
      <use xlink:href="#DejaVuSans-20" transform="translate(555.908203 0)"/>
      <use xlink:href="#DejaVuSans-65" transform="translate(587.695312 0)"/>
      <use xlink:href="#DejaVuSans-78" transform="translate(647.46875 0)"/>
      <use xlink:href="#DejaVuSans-70" transform="translate(706.648438 0)"/>
      <use xlink:href="#DejaVuSans-6c" transform="translate(770.125 0)"/>
      <use xlink:href="#DejaVuSans-61" transform="translate(797.908203 0)"/>
      <use xlink:href="#DejaVuSans-69" transform="translate(859.1875 0)"/>
      <use xlink:href="#DejaVuSans-6e" transform="translate(886.970703 0)"/>
      <use xlink:href="#DejaVuSans-65" transform="translate(950.349609 0)"/>
      <use xlink:href="#DejaVuSans-64" transform="translate(1011.873047 0)"/>
      <use xlink:href="#DejaVuSans-20" transform="translate(1075.349609 0)"/>
      <use xlink:href="#DejaVuSans-76" transform="translate(1107.136719 0)"/>
      <use xlink:href="#DejaVuSans-61" transform="translate(1166.316406 0)"/>
      <use xlink:href="#DejaVuSans-72" transform="translate(1227.595703 0)"/>
      <use xlink:href="#DejaVuSans-69" transform="translate(1268.708984 0)"/>
      <use xlink:href="#DejaVuSans-61" transform="translate(1296.492188 0)"/>
      <use xlink:href="#DejaVuSans-6e" transform="translate(1357.771484 0)"/>
      <use xlink:href="#DejaVuSans-63" transform="translate(1421.150391 0)"/>
      <use xlink:href="#DejaVuSans-65" transform="translate(1476.130859 0)"/>
     </g>
    </g>
   </g>
   <g id="line2d_37">
    <path d="M 77.957955 195.959127 
L 108.984233 147.483081 
L 140.010511 119.409156 
L 171.03679 101.56827 
L 202.063068 85.003767 
L 233.089347 72.546689 
L 264.115625 61.84907 
L 295.141903 55.08337 
L 326.168182 49.475078 
L 357.19446 44.604078 
L 388.220739 40.220635 
L 419.247017 36.944144 
L 450.273295 34.937173 
" clip-path="url(#pddac861c5b)" style="fill: none; stroke: #ff7f0e; stroke-width: 2.2; stroke-linecap: square"/>
    <g clip-path="url(#pddac861c5b)">
     <use xlink:href="#m7ec6cd489b" x="77.957955" y="195.959127" style="fill: #ff7f0e; stroke: #ff7f0e"/>
     <use xlink:href="#m7ec6cd489b" x="108.984233" y="147.483081" style="fill: #ff7f0e; stroke: #ff7f0e"/>
     <use xlink:href="#m7ec6cd489b" x="140.010511" y="119.409156" style="fill: #ff7f0e; stroke: #ff7f0e"/>
     <use xlink:href="#m7ec6cd489b" x="171.03679" y="101.56827" style="fill: #ff7f0e; stroke: #ff7f0e"/>
     <use xlink:href="#m7ec6cd489b" x="202.063068" y="85.003767" style="fill: #ff7f0e; stroke: #ff7f0e"/>
     <use xlink:href="#m7ec6cd489b" x="233.089347" y="72.546689" style="fill: #ff7f0e; stroke: #ff7f0e"/>
     <use xlink:href="#m7ec6cd489b" x="264.115625" y="61.84907" style="fill: #ff7f0e; stroke: #ff7f0e"/>
     <use xlink:href="#m7ec6cd489b" x="295.141903" y="55.08337" style="fill: #ff7f0e; stroke: #ff7f0e"/>
     <use xlink:href="#m7ec6cd489b" x="326.168182" y="49.475078" style="fill: #ff7f0e; stroke: #ff7f0e"/>
     <use xlink:href="#m7ec6cd489b" x="357.19446" y="44.604078" style="fill: #ff7f0e; stroke: #ff7f0e"/>
     <use xlink:href="#m7ec6cd489b" x="388.220739" y="40.220635" style="fill: #ff7f0e; stroke: #ff7f0e"/>
     <use xlink:href="#m7ec6cd489b" x="419.247017" y="36.944144" style="fill: #ff7f0e; stroke: #ff7f0e"/>
     <use xlink:href="#m7ec6cd489b" x="450.273295" y="34.937173" style="fill: #ff7f0e; stroke: #ff7f0e"/>
    </g>
   </g>
   <g id="patch_22">
    <path d="M 45.690625 287.318125 
L 45.690625 22.318125 
" style="fill: none; stroke: #555555; stroke-width: 0.8; stroke-linejoin: miter; stroke-linecap: square"/>
   </g>
   <g id="patch_23">
    <path d="M 482.540625 287.318125 
L 482.540625 22.318125 
" style="fill: none; stroke: #555555; stroke-width: 0.8; stroke-linejoin: miter; stroke-linecap: square"/>
   </g>
   <g id="patch_24">
    <path d="M 45.690625 287.318125 
L 482.540625 287.318125 
" style="fill: none; stroke: #555555; stroke-width: 0.8; stroke-linejoin: miter; stroke-linecap: square"/>
   </g>
   <g id="patch_25">
    <path d="M 45.690625 22.318125 
L 482.540625 22.318125 
" style="fill: none; stroke: #555555; stroke-width: 0.8; stroke-linejoin: miter; stroke-linecap: square"/>
   </g>
  </g>
 </g>
 <defs>
  <clipPath id="pddac861c5b">
   <rect x="45.690625" y="22.318125" width="436.85" height="265"/>
  </clipPath>
 </defs>
</svg>
