<?xml version="1.0" encoding="UTF-8" standalone="no"?>
<!DOCTYPE svg PUBLIC "-//W3C//DTD SVG 1.1//EN"
 "http://www.w3.org/Graphics/SVG/1.1/DTD/svg11.dtd">
<!-- Generated by graphviz version 3.0.0 (0)
 -->
<!-- Title: Tree Pages: 1 -->
<svg width="676pt" height="289pt"
 viewBox="0.00 0.00 675.93 288.80" xmlns="http://www.w3.org/2000/svg" xmlns:xlink="http://www.w3.org/1999/xlink">
<g id="graph0" class="graph" transform="scale(1 1) rotate(0) translate(4 284.8)">
<title>Tree</title>
<polygon fill="white" stroke="transparent" points="-4,4 -4,-284.8 671.93,-284.8 671.93,4 -4,4"/>
<!-- 0 -->
<g id="node1" class="node">
<title>0</title>
<path fill="#f3c5a4" stroke="black" d="M396.89,-280.9C396.89,-280.9 266.04,-280.9 266.04,-280.9 260.04,-280.9 254.04,-274.9 254.04,-268.9 254.04,-268.9 254.04,-217.5 254.04,-217.5 254.04,-211.5 260.04,-205.5 266.04,-205.5 266.04,-205.5 396.89,-205.5 396.89,-205.5 402.89,-205.5 408.89,-211.5 408.89,-217.5 408.89,-217.5 408.89,-268.9 408.89,-268.9 408.89,-274.9 402.89,-280.9 396.89,-280.9"/>
<text text-anchor="middle" x="331.46" y="-264.2" font-family="Helvetica,sans-Serif" font-size="14.00">x[0] &lt;= 0.455</text>
<text text-anchor="middle" x="331.46" y="-247.4" font-family="Helvetica,sans-Serif" font-size="14.00">squared_error = 1.834</text>
<text text-anchor="middle" x="331.46" y="-230.6" font-family="Helvetica,sans-Serif" font-size="14.00">samples = 100</text>
<text text-anchor="middle" x="331.46" y="-213.8" font-family="Helvetica,sans-Serif" font-size="14.00">value = 2.311</text>
</g>
<!-- 1 -->
<g id="node2" class="node">
<title>1</title>
<path fill="#fae9dc" stroke="black" d="M310.89,-169.7C310.89,-169.7 180.04,-169.7 180.04,-169.7 174.04,-169.7 168.04,-163.7 168.04,-157.7 168.04,-157.7 168.04,-106.3 168.04,-106.3 168.04,-100.3 174.04,-94.3 180.04,-94.3 180.04,-94.3 310.89,-94.3 310.89,-94.3 316.89,-94.3 322.89,-100.3 322.89,-106.3 322.89,-106.3 322.89,-157.7 322.89,-157.7 322.89,-163.7 316.89,-169.7 310.89,-169.7"/>
<text text-anchor="middle" x="245.46" y="-153" font-family="Helvetica,sans-Serif" font-size="14.00">x[0] &lt;= 0.237</text>
<text text-anchor="middle" x="245.46" y="-136.2" font-family="Helvetica,sans-Serif" font-size="14.00">squared_error = 0.484</text>
<text text-anchor="middle" x="245.46" y="-119.4" font-family="Helvetica,sans-Serif" font-size="14.00">samples = 52</text>
<text text-anchor="middle" x="245.46" y="-102.6" font-family="Helvetica,sans-Serif" font-size="14.00">value = 1.237</text>
</g>
<!-- 0&#45;&gt;1 -->
<g id="edge1" class="edge">
<title>0&#45;&gt;1</title>
<path fill="none" stroke="black" d="M302.59,-205.53C295.57,-196.62 287.98,-186.99 280.7,-177.75"/>
<polygon fill="black" stroke="black" points="283.35,-175.45 274.41,-169.75 277.85,-179.78 283.35,-175.45"/>
<text text-anchor="middle" x="271.46" y="-190.38" font-family="Helvetica,sans-Serif" font-size="14.00">True</text>
</g>
<!-- 4 -->
<g id="node5" class="node">
<title>4</title>
<path fill="#eb9f68" stroke="black" d="M483.89,-169.7C483.89,-169.7 353.04,-169.7 353.04,-169.7 347.04,-169.7 341.04,-163.7 341.04,-157.7 341.04,-157.7 341.04,-106.3 341.04,-106.3 341.04,-100.3 347.04,-94.3 353.04,-94.3 353.04,-94.3 483.89,-94.3 483.89,-94.3 489.89,-94.3 495.89,-100.3 495.89,-106.3 495.89,-106.3 495.89,-157.7 495.89,-157.7 495.89,-163.7 489.89,-169.7 483.89,-169.7"/>
<text text-anchor="middle" x="418.46" y="-153" font-family="Helvetica,sans-Serif" font-size="14.00">x[0] &lt;= 0.738</text>
<text text-anchor="middle" x="418.46" y="-136.2" font-family="Helvetica,sans-Serif" font-size="14.00">squared_error = 0.695</text>
<text text-anchor="middle" x="418.46" y="-119.4" font-family="Helvetica,sans-Serif" font-size="14.00">samples = 48</text>
<text text-anchor="middle" x="418.46" y="-102.6" font-family="Helvetica,sans-Serif" font-size="14.00">value = 3.474</text>
</g>
<!-- 0&#45;&gt;4 -->
<g id="edge4" class="edge">
<title>0&#45;&gt;4</title>
<path fill="none" stroke="black" d="M360.68,-205.53C367.78,-196.62 375.45,-186.99 382.81,-177.75"/>
<polygon fill="black" stroke="black" points="385.69,-179.76 389.18,-169.75 380.21,-175.4 385.69,-179.76"/>
<text text-anchor="middle" x="391.99" y="-190.4" font-family="Helvetica,sans-Serif" font-size="14.00">False</text>
</g>
<!-- 2 -->
<g id="node3" class="node">
<title>2</title>
<path fill="#ffffff" stroke="black" d="M142.89,-58.6C142.89,-58.6 12.04,-58.6 12.04,-58.6 6.04,-58.6 0.04,-52.6 0.04,-46.6 0.04,-46.6 0.04,-11.8 0.04,-11.8 0.04,-5.8 6.04,0.2 12.04,0.2 12.04,0.2 142.89,0.2 142.89,0.2 148.89,0.2 154.89,-5.8 154.89,-11.8 154.89,-11.8 154.89,-46.6 154.89,-46.6 154.89,-52.6 148.89,-58.6 142.89,-58.6"/>
<text text-anchor="middle" x="77.46" y="-41.8" font-family="Helvetica,sans-Serif" font-size="14.00">squared_error = 0.099</text>
<text text-anchor="middle" x="77.46" y="-25" font-family="Helvetica,sans-Serif" font-size="14.00">samples = 24</text>
<text text-anchor="middle" x="77.46" y="-8.2" font-family="Helvetica,sans-Serif" font-size="14.00">value = 0.563</text>
</g>
<!-- 1&#45;&gt;2 -->
<g id="edge2" class="edge">
<title>1&#45;&gt;2</title>
<path fill="none" stroke="black" d="M184.34,-94.32C167.71,-84.35 149.8,-73.6 133.47,-63.8"/>
<polygon fill="black" stroke="black" points="134.96,-60.62 124.58,-58.47 131.36,-66.62 134.96,-60.62"/>
</g>
<!-- 3 -->
<g id="node4" class="node">
<title>3</title>
<path fill="#f6d6be" stroke="black" d="M308.1,-58.6C308.1,-58.6 184.82,-58.6 184.82,-58.6 178.82,-58.6 172.82,-52.6 172.82,-46.6 172.82,-46.6 172.82,-11.8 172.82,-11.8 172.82,-5.8 178.82,0.2 184.82,0.2 184.82,0.2 308.1,0.2 308.1,0.2 314.1,0.2 320.1,-5.8 320.1,-11.8 320.1,-11.8 320.1,-46.6 320.1,-46.6 320.1,-52.6 314.1,-58.6 308.1,-58.6"/>
<text text-anchor="middle" x="246.46" y="-41.8" font-family="Helvetica,sans-Serif" font-size="14.00">squared_error = 0.09</text>
<text text-anchor="middle" x="246.46" y="-25" font-family="Helvetica,sans-Serif" font-size="14.00">samples = 28</text>
<text text-anchor="middle" x="246.46" y="-8.2" font-family="Helvetica,sans-Serif" font-size="14.00">value = 1.815</text>
</g>
<!-- 1&#45;&gt;3 -->
<g id="edge3" class="edge">
<title>1&#45;&gt;3</title>
<path fill="none" stroke="black" d="M245.83,-94.32C245.91,-85.92 246,-76.96 246.08,-68.49"/>
<polygon fill="black" stroke="black" points="249.58,-68.51 246.18,-58.47 242.58,-68.44 249.58,-68.51"/>
</g>
<!-- 5 -->
<g id="node6" class="node">
<title>5</title>
<path fill="#efb387" stroke="black" d="M482.89,-58.6C482.89,-58.6 352.04,-58.6 352.04,-58.6 346.04,-58.6 340.04,-52.6 340.04,-46.6 340.04,-46.6 340.04,-11.8 340.04,-11.8 340.04,-5.8 346.04,0.2 352.04,0.2 352.04,0.2 482.89,0.2 482.89,0.2 488.89,0.2 494.89,-5.8 494.89,-11.8 494.89,-11.8 494.89,-46.6 494.89,-46.6 494.89,-52.6 488.89,-58.6 482.89,-58.6"/>
<text text-anchor="middle" x="417.46" y="-41.8" font-family="Helvetica,sans-Serif" font-size="14.00">squared_error = 0.139</text>
<text text-anchor="middle" x="417.46" y="-25" font-family="Helvetica,sans-Serif" font-size="14.00">samples = 29</text>
<text text-anchor="middle" x="417.46" y="-8.2" font-family="Helvetica,sans-Serif" font-size="14.00">value = 2.879</text>
</g>
<!-- 4&#45;&gt;5 -->
<g id="edge5" class="edge">
<title>4&#45;&gt;5</title>
<path fill="none" stroke="black" d="M418.1,-94.32C418.02,-85.92 417.93,-76.96 417.84,-68.49"/>
<polygon fill="black" stroke="black" points="421.34,-68.44 417.74,-58.47 414.34,-68.51 421.34,-68.44"/>
</g>
<!-- 6 -->
<g id="node7" class="node">
<title>6</title>
<path fill="#e58139" stroke="black" d="M655.89,-58.6C655.89,-58.6 525.04,-58.6 525.04,-58.6 519.04,-58.6 513.04,-52.6 513.04,-46.6 513.04,-46.6 513.04,-11.8 513.04,-11.8 513.04,-5.8 519.04,0.2 525.04,0.2 525.04,0.2 655.89,0.2 655.89,0.2 661.89,0.2 667.89,-5.8 667.89,-11.8 667.89,-11.8 667.89,-46.6 667.89,-46.6 667.89,-52.6 661.89,-58.6 655.89,-58.6"/>
<text text-anchor="middle" x="590.46" y="-41.8" font-family="Helvetica,sans-Serif" font-size="14.00">squared_error = 0.176</text>
<text text-anchor="middle" x="590.46" y="-25" font-family="Helvetica,sans-Serif" font-size="14.00">samples = 19</text>
<text text-anchor="middle" x="590.46" y="-8.2" font-family="Helvetica,sans-Serif" font-size="14.00">value = 4.383</text>
</g>
<!-- 4&#45;&gt;6 -->
<g id="edge6" class="edge">
<title>4&#45;&gt;6</title>
<path fill="none" stroke="black" d="M481.05,-94.32C498.22,-84.26 516.75,-73.4 533.59,-63.53"/>
<polygon fill="black" stroke="black" points="535.36,-66.55 542.22,-58.47 531.82,-60.51 535.36,-66.55"/>
</g>
</g>
</svg>
