<?xml version="1.0" encoding="utf-8" standalone="no"?>
<!DOCTYPE svg PUBLIC "-//W3C//DTD SVG 1.1//EN"
  "http://www.w3.org/Graphics/SVG/1.1/DTD/svg11.dtd">
<svg xmlns:xlink="http://www.w3.org/1999/xlink" width="711.529375pt" height="251.900625pt" viewBox="0 0 711.529375 251.900625" xmlns="http://www.w3.org/2000/svg" version="1.1">
 <metadata>
  <rdf:RDF xmlns:dc="http://purl.org/dc/elements/1.1/" xmlns:cc="http://creativecommons.org/ns#" xmlns:rdf="http://www.w3.org/1999/02/22-rdf-syntax-ns#">
   <cc:Work>
    <dc:type rdf:resource="http://purl.org/dc/dcmitype/StillImage"/>
    <dc:date>2026-06-30T22:52:58.901230</dc:date>
    <dc:format>image/svg+xml</dc:format>
    <dc:creator>
     <cc:Agent>
      <dc:title>Matplotlib v3.10.8, https://matplotlib.org/</dc:title>
     </cc:Agent>
    </dc:creator>
   </cc:Work>
  </rdf:RDF>
 </metadata>
 <defs>
  <style type="text/css">*{stroke-linejoin: round; stroke-linecap: butt}</style>
 </defs>
 <g id="figure_1">
  <g id="patch_1">
   <path d="M 0 251.900625 
L 711.529375 251.900625 
L 711.529375 -0 
L 0 -0 
z
" style="fill: #ffffff"/>
  </g>
  <g id="axes_1">
   <g id="patch_2">
    <path d="M 47.304375 216.28 
L 256.779375 216.28 
L 256.779375 67.08 
L 47.304375 67.08 
z
" style="fill: #ffffff"/>
   </g>
   <g id="matplotlib.axis_1">
    <g id="xtick_1">
     <g id="line2d_1">
      <path d="M 56.825966 216.28 
L 56.825966 67.08 
" clip-path="url(#p4e254d4bd7)" style="fill: none; stroke: #d0d0d0; stroke-opacity: 0.7; stroke-width: 0.6; stroke-linecap: square"/>
     </g>
     <g id="line2d_2">
      <defs>
       <path id="m6f470c1fdb" d="M 0 0 
L 0 3.5 
" style="stroke: #000000; stroke-width: 0.8"/>
      </defs>
      <g>
       <use xlink:href="#m6f470c1fdb" x="56.825966" y="216.28" style="stroke: #000000; stroke-width: 0.8"/>
      </g>
     </g>
     <g id="text_1">
      <!-- 0.0 -->
      <g transform="translate(50.464716 229.35875) scale(0.08 -0.08)">
       <defs>
        <path id="DejaVuSans-30" d="M 2034 4250 
Q 1547 4250 1301 3770 
Q 1056 3291 1056 2328 
Q 1056 1369 1301 889 
Q 1547 409 2034 409 
Q 2525 409 2770 889 
Q 3016 1369 3016 2328 
Q 3016 3291 2770 3770 
Q 2525 4250 2034 4250 
z
M 2034 4750 
Q 2819 4750 3233 4129 
Q 3647 3509 3647 2328 
Q 3647 1150 3233 529 
Q 2819 -91 2034 -91 
Q 1250 -91 836 529 
Q 422 1150 422 2328 
Q 422 3509 836 4129 
Q 1250 4750 2034 4750 
z
" transform="scale(0.015625)"/>
        <path id="DejaVuSans-2e" d="M 684 794 
L 1344 794 
L 1344 0 
L 684 0 
L 684 794 
z
" transform="scale(0.015625)"/>
       </defs>
       <use xlink:href="#DejaVuSans-30"/>
       <use xlink:href="#DejaVuSans-2e" transform="translate(63.623047 0)"/>
       <use xlink:href="#DejaVuSans-30" transform="translate(95.410156 0)"/>
      </g>
     </g>
    </g>
    <g id="xtick_2">
     <g id="line2d_3">
      <path d="M 94.91233 216.28 
L 94.91233 67.08 
" clip-path="url(#p4e254d4bd7)" style="fill: none; stroke: #d0d0d0; stroke-opacity: 0.7; stroke-width: 0.6; stroke-linecap: square"/>
     </g>
     <g id="line2d_4">
      <g>
       <use xlink:href="#m6f470c1fdb" x="94.91233" y="216.28" style="stroke: #000000; stroke-width: 0.8"/>
      </g>
     </g>
     <g id="text_2">
      <!-- 0.2 -->
      <g transform="translate(88.55108 229.35875) scale(0.08 -0.08)">
       <defs>
        <path id="DejaVuSans-32" d="M 1228 531 
L 3431 531 
L 3431 0 
L 469 0 
L 469 531 
Q 828 903 1448 1529 
Q 2069 2156 2228 2338 
Q 2531 2678 2651 2914 
Q 2772 3150 2772 3378 
Q 2772 3750 2511 3984 
Q 2250 4219 1831 4219 
Q 1534 4219 1204 4116 
Q 875 4013 500 3803 
L 500 4441 
Q 881 4594 1212 4672 
Q 1544 4750 1819 4750 
Q 2544 4750 2975 4387 
Q 3406 4025 3406 3419 
Q 3406 3131 3298 2873 
Q 3191 2616 2906 2266 
Q 2828 2175 2409 1742 
Q 1991 1309 1228 531 
z
" transform="scale(0.015625)"/>
       </defs>
       <use xlink:href="#DejaVuSans-30"/>
       <use xlink:href="#DejaVuSans-2e" transform="translate(63.623047 0)"/>
       <use xlink:href="#DejaVuSans-32" transform="translate(95.410156 0)"/>
      </g>
     </g>
    </g>
    <g id="xtick_3">
     <g id="line2d_5">
      <path d="M 132.998693 216.28 
L 132.998693 67.08 
" clip-path="url(#p4e254d4bd7)" style="fill: none; stroke: #d0d0d0; stroke-opacity: 0.7; stroke-width: 0.6; stroke-linecap: square"/>
     </g>
     <g id="line2d_6">
      <g>
       <use xlink:href="#m6f470c1fdb" x="132.998693" y="216.28" style="stroke: #000000; stroke-width: 0.8"/>
      </g>
     </g>
     <g id="text_3">
      <!-- 0.4 -->
      <g transform="translate(126.637443 229.35875) scale(0.08 -0.08)">
       <defs>
        <path id="DejaVuSans-34" d="M 2419 4116 
L 825 1625 
L 2419 1625 
L 2419 4116 
z
M 2253 4666 
L 3047 4666 
L 3047 1625 
L 3713 1625 
L 3713 1100 
L 3047 1100 
L 3047 0 
L 2419 0 
L 2419 1100 
L 313 1100 
L 313 1709 
L 2253 4666 
z
" transform="scale(0.015625)"/>
       </defs>
       <use xlink:href="#DejaVuSans-30"/>
       <use xlink:href="#DejaVuSans-2e" transform="translate(63.623047 0)"/>
       <use xlink:href="#DejaVuSans-34" transform="translate(95.410156 0)"/>
      </g>
     </g>
    </g>
    <g id="xtick_4">
     <g id="line2d_7">
      <path d="M 171.085057 216.28 
L 171.085057 67.08 
" clip-path="url(#p4e254d4bd7)" style="fill: none; stroke: #d0d0d0; stroke-opacity: 0.7; stroke-width: 0.6; stroke-linecap: square"/>
     </g>
     <g id="line2d_8">
      <g>
       <use xlink:href="#m6f470c1fdb" x="171.085057" y="216.28" style="stroke: #000000; stroke-width: 0.8"/>
      </g>
     </g>
     <g id="text_4">
      <!-- 0.6 -->
      <g transform="translate(164.723807 229.35875) scale(0.08 -0.08)">
       <defs>
        <path id="DejaVuSans-36" d="M 2113 2584 
Q 1688 2584 1439 2293 
Q 1191 2003 1191 1497 
Q 1191 994 1439 701 
Q 1688 409 2113 409 
Q 2538 409 2786 701 
Q 3034 994 3034 1497 
Q 3034 2003 2786 2293 
Q 2538 2584 2113 2584 
z
M 3366 4563 
L 3366 3988 
Q 3128 4100 2886 4159 
Q 2644 4219 2406 4219 
Q 1781 4219 1451 3797 
Q 1122 3375 1075 2522 
Q 1259 2794 1537 2939 
Q 1816 3084 2150 3084 
Q 2853 3084 3261 2657 
Q 3669 2231 3669 1497 
Q 3669 778 3244 343 
Q 2819 -91 2113 -91 
Q 1303 -91 875 529 
Q 447 1150 447 2328 
Q 447 3434 972 4092 
Q 1497 4750 2381 4750 
Q 2619 4750 2861 4703 
Q 3103 4656 3366 4563 
z
" transform="scale(0.015625)"/>
       </defs>
       <use xlink:href="#DejaVuSans-30"/>
       <use xlink:href="#DejaVuSans-2e" transform="translate(63.623047 0)"/>
       <use xlink:href="#DejaVuSans-36" transform="translate(95.410156 0)"/>
      </g>
     </g>
    </g>
    <g id="xtick_5">
     <g id="line2d_9">
      <path d="M 209.17142 216.28 
L 209.17142 67.08 
" clip-path="url(#p4e254d4bd7)" style="fill: none; stroke: #d0d0d0; stroke-opacity: 0.7; stroke-width: 0.6; stroke-linecap: square"/>
     </g>
     <g id="line2d_10">
      <g>
       <use xlink:href="#m6f470c1fdb" x="209.17142" y="216.28" style="stroke: #000000; stroke-width: 0.8"/>
      </g>
     </g>
     <g id="text_5">
      <!-- 0.8 -->
      <g transform="translate(202.81017 229.35875) scale(0.08 -0.08)">
       <defs>
        <path id="DejaVuSans-38" d="M 2034 2216 
Q 1584 2216 1326 1975 
Q 1069 1734 1069 1313 
Q 1069 891 1326 650 
Q 1584 409 2034 409 
Q 2484 409 2743 651 
Q 3003 894 3003 1313 
Q 3003 1734 2745 1975 
Q 2488 2216 2034 2216 
z
M 1403 2484 
Q 997 2584 770 2862 
Q 544 3141 544 3541 
Q 544 4100 942 4425 
Q 1341 4750 2034 4750 
Q 2731 4750 3128 4425 
Q 3525 4100 3525 3541 
Q 3525 3141 3298 2862 
Q 3072 2584 2669 2484 
Q 3125 2378 3379 2068 
Q 3634 1759 3634 1313 
Q 3634 634 3220 271 
Q 2806 -91 2034 -91 
Q 1263 -91 848 271 
Q 434 634 434 1313 
Q 434 1759 690 2068 
Q 947 2378 1403 2484 
z
M 1172 3481 
Q 1172 3119 1398 2916 
Q 1625 2713 2034 2713 
Q 2441 2713 2670 2916 
Q 2900 3119 2900 3481 
Q 2900 3844 2670 4047 
Q 2441 4250 2034 4250 
Q 1625 4250 1398 4047 
Q 1172 3844 1172 3481 
z
" transform="scale(0.015625)"/>
       </defs>
       <use xlink:href="#DejaVuSans-30"/>
       <use xlink:href="#DejaVuSans-2e" transform="translate(63.623047 0)"/>
       <use xlink:href="#DejaVuSans-38" transform="translate(95.410156 0)"/>
      </g>
     </g>
    </g>
    <g id="xtick_6">
     <g id="line2d_11">
      <path d="M 247.257784 216.28 
L 247.257784 67.08 
" clip-path="url(#p4e254d4bd7)" style="fill: none; stroke: #d0d0d0; stroke-opacity: 0.7; stroke-width: 0.6; stroke-linecap: square"/>
     </g>
     <g id="line2d_12">
      <g>
       <use xlink:href="#m6f470c1fdb" x="247.257784" y="216.28" style="stroke: #000000; stroke-width: 0.8"/>
      </g>
     </g>
     <g id="text_6">
      <!-- 1.0 -->
      <g transform="translate(240.896534 229.35875) scale(0.08 -0.08)">
       <defs>
        <path id="DejaVuSans-31" d="M 794 531 
L 1825 531 
L 1825 4091 
L 703 3866 
L 703 4441 
L 1819 4666 
L 2450 4666 
L 2450 531 
L 3481 531 
L 3481 0 
L 794 0 
L 794 531 
z
" transform="scale(0.015625)"/>
       </defs>
       <use xlink:href="#DejaVuSans-31"/>
       <use xlink:href="#DejaVuSans-2e" transform="translate(63.623047 0)"/>
       <use xlink:href="#DejaVuSans-30" transform="translate(95.410156 0)"/>
      </g>
     </g>
    </g>
    <g id="text_7">
     <!-- normalized time -->
     <g transform="translate(111.373125 242.620938) scale(0.1 -0.1)">
      <defs>
       <path id="DejaVuSans-6e" d="M 3513 2113 
L 3513 0 
L 2938 0 
L 2938 2094 
Q 2938 2591 2744 2837 
Q 2550 3084 2163 3084 
Q 1697 3084 1428 2787 
Q 1159 2491 1159 1978 
L 1159 0 
L 581 0 
L 581 3500 
L 1159 3500 
L 1159 2956 
Q 1366 3272 1645 3428 
Q 1925 3584 2291 3584 
Q 2894 3584 3203 3211 
Q 3513 2838 3513 2113 
z
" transform="scale(0.015625)"/>
       <path id="DejaVuSans-6f" d="M 1959 3097 
Q 1497 3097 1228 2736 
Q 959 2375 959 1747 
Q 959 1119 1226 758 
Q 1494 397 1959 397 
Q 2419 397 2687 759 
Q 2956 1122 2956 1747 
Q 2956 2369 2687 2733 
Q 2419 3097 1959 3097 
z
M 1959 3584 
Q 2709 3584 3137 3096 
Q 3566 2609 3566 1747 
Q 3566 888 3137 398 
Q 2709 -91 1959 -91 
Q 1206 -91 779 398 
Q 353 888 353 1747 
Q 353 2609 779 3096 
Q 1206 3584 1959 3584 
z
" transform="scale(0.015625)"/>
       <path id="DejaVuSans-72" d="M 2631 2963 
Q 2534 3019 2420 3045 
Q 2306 3072 2169 3072 
Q 1681 3072 1420 2755 
Q 1159 2438 1159 1844 
L 1159 0 
L 581 0 
L 581 3500 
L 1159 3500 
L 1159 2956 
Q 1341 3275 1631 3429 
Q 1922 3584 2338 3584 
Q 2397 3584 2469 3576 
Q 2541 3569 2628 3553 
L 2631 2963 
z
" transform="scale(0.015625)"/>
       <path id="DejaVuSans-6d" d="M 3328 2828 
Q 3544 3216 3844 3400 
Q 4144 3584 4550 3584 
Q 5097 3584 5394 3201 
Q 5691 2819 5691 2113 
L 5691 0 
L 5113 0 
L 5113 2094 
Q 5113 2597 4934 2840 
Q 4756 3084 4391 3084 
Q 3944 3084 3684 2787 
Q 3425 2491 3425 1978 
L 3425 0 
L 2847 0 
L 2847 2094 
Q 2847 2600 2669 2842 
Q 2491 3084 2119 3084 
Q 1678 3084 1418 2786 
Q 1159 2488 1159 1978 
L 1159 0 
L 581 0 
L 581 3500 
L 1159 3500 
L 1159 2956 
Q 1356 3278 1631 3431 
Q 1906 3584 2284 3584 
Q 2666 3584 2933 3390 
Q 3200 3197 3328 2828 
z
" transform="scale(0.015625)"/>
       <path id="DejaVuSans-61" d="M 2194 1759 
Q 1497 1759 1228 1600 
Q 959 1441 959 1056 
Q 959 750 1161 570 
Q 1363 391 1709 391 
Q 2188 391 2477 730 
Q 2766 1069 2766 1631 
L 2766 1759 
L 2194 1759 
z
M 3341 1997 
L 3341 0 
L 2766 0 
L 2766 531 
Q 2569 213 2275 61 
Q 1981 -91 1556 -91 
Q 1019 -91 701 211 
Q 384 513 384 1019 
Q 384 1609 779 1909 
Q 1175 2209 1959 2209 
L 2766 2209 
L 2766 2266 
Q 2766 2663 2505 2880 
Q 2244 3097 1772 3097 
Q 1472 3097 1187 3025 
Q 903 2953 641 2809 
L 641 3341 
Q 956 3463 1253 3523 
Q 1550 3584 1831 3584 
Q 2591 3584 2966 3190 
Q 3341 2797 3341 1997 
z
" transform="scale(0.015625)"/>
       <path id="DejaVuSans-6c" d="M 603 4863 
L 1178 4863 
L 1178 0 
L 603 0 
L 603 4863 
z
" transform="scale(0.015625)"/>
       <path id="DejaVuSans-69" d="M 603 3500 
L 1178 3500 
L 1178 0 
L 603 0 
L 603 3500 
z
M 603 4863 
L 1178 4863 
L 1178 4134 
L 603 4134 
L 603 4863 
z
" transform="scale(0.015625)"/>
       <path id="DejaVuSans-7a" d="M 353 3500 
L 3084 3500 
L 3084 2975 
L 922 459 
L 3084 459 
L 3084 0 
L 275 0 
L 275 525 
L 2438 3041 
L 353 3041 
L 353 3500 
z
" transform="scale(0.015625)"/>
       <path id="DejaVuSans-65" d="M 3597 1894 
L 3597 1613 
L 953 1613 
Q 991 1019 1311 708 
Q 1631 397 2203 397 
Q 2534 397 2845 478 
Q 3156 559 3463 722 
L 3463 178 
Q 3153 47 2828 -22 
Q 2503 -91 2169 -91 
Q 1331 -91 842 396 
Q 353 884 353 1716 
Q 353 2575 817 3079 
Q 1281 3584 2069 3584 
Q 2775 3584 3186 3129 
Q 3597 2675 3597 1894 
z
M 3022 2063 
Q 3016 2534 2758 2815 
Q 2500 3097 2075 3097 
Q 1594 3097 1305 2825 
Q 1016 2553 972 2059 
L 3022 2063 
z
" transform="scale(0.015625)"/>
       <path id="DejaVuSans-64" d="M 2906 2969 
L 2906 4863 
L 3481 4863 
L 3481 0 
L 2906 0 
L 2906 525 
Q 2725 213 2448 61 
Q 2172 -91 1784 -91 
Q 1150 -91 751 415 
Q 353 922 353 1747 
Q 353 2572 751 3078 
Q 1150 3584 1784 3584 
Q 2172 3584 2448 3432 
Q 2725 3281 2906 2969 
z
M 947 1747 
Q 947 1113 1208 752 
Q 1469 391 1925 391 
Q 2381 391 2643 752 
Q 2906 1113 2906 1747 
Q 2906 2381 2643 2742 
Q 2381 3103 1925 3103 
Q 1469 3103 1208 2742 
Q 947 2381 947 1747 
z
" transform="scale(0.015625)"/>
       <path id="DejaVuSans-20" transform="scale(0.015625)"/>
       <path id="DejaVuSans-74" d="M 1172 4494 
L 1172 3500 
L 2356 3500 
L 2356 3053 
L 1172 3053 
L 1172 1153 
Q 1172 725 1289 603 
Q 1406 481 1766 481 
L 2356 481 
L 2356 0 
L 1766 0 
Q 1100 0 847 248 
Q 594 497 594 1153 
L 594 3053 
L 172 3053 
L 172 3500 
L 594 3500 
L 594 4494 
L 1172 4494 
z
" transform="scale(0.015625)"/>
      </defs>
      <use xlink:href="#DejaVuSans-6e"/>
      <use xlink:href="#DejaVuSans-6f" transform="translate(63.378906 0)"/>
      <use xlink:href="#DejaVuSans-72" transform="translate(124.560547 0)"/>
      <use xlink:href="#DejaVuSans-6d" transform="translate(163.923828 0)"/>
      <use xlink:href="#DejaVuSans-61" transform="translate(261.335938 0)"/>
      <use xlink:href="#DejaVuSans-6c" transform="translate(322.615234 0)"/>
      <use xlink:href="#DejaVuSans-69" transform="translate(350.398438 0)"/>
      <use xlink:href="#DejaVuSans-7a" transform="translate(378.181641 0)"/>
      <use xlink:href="#DejaVuSans-65" transform="translate(430.671875 0)"/>
      <use xlink:href="#DejaVuSans-64" transform="translate(492.195312 0)"/>
      <use xlink:href="#DejaVuSans-20" transform="translate(555.671875 0)"/>
      <use xlink:href="#DejaVuSans-74" transform="translate(587.458984 0)"/>
      <use xlink:href="#DejaVuSans-69" transform="translate(626.667969 0)"/>
      <use xlink:href="#DejaVuSans-6d" transform="translate(654.451172 0)"/>
      <use xlink:href="#DejaVuSans-65" transform="translate(751.863281 0)"/>
     </g>
    </g>
   </g>
   <g id="matplotlib.axis_2">
    <g id="ytick_1">
     <g id="line2d_13">
      <path d="M 47.304375 215.027385 
L 256.779375 215.027385 
" clip-path="url(#p4e254d4bd7)" style="fill: none; stroke: #d0d0d0; stroke-opacity: 0.7; stroke-width: 0.6; stroke-linecap: square"/>
     </g>
     <g id="line2d_14">
      <defs>
       <path id="m8f0898b8e5" d="M 0 0 
L -3.5 0 
" style="stroke: #000000; stroke-width: 0.8"/>
      </defs>
      <g>
       <use xlink:href="#m8f0898b8e5" x="47.304375" y="215.027385" style="stroke: #000000; stroke-width: 0.8"/>
      </g>
     </g>
     <g id="text_8">
      <!-- −2.0 -->
      <g transform="translate(20.878125 218.06676) scale(0.08 -0.08)">
       <defs>
        <path id="DejaVuSans-2212" d="M 678 2272 
L 4684 2272 
L 4684 1741 
L 678 1741 
L 678 2272 
z
" transform="scale(0.015625)"/>
       </defs>
       <use xlink:href="#DejaVuSans-2212"/>
       <use xlink:href="#DejaVuSans-32" transform="translate(83.789062 0)"/>
       <use xlink:href="#DejaVuSans-2e" transform="translate(147.412109 0)"/>
       <use xlink:href="#DejaVuSans-30" transform="translate(179.199219 0)"/>
      </g>
     </g>
    </g>
    <g id="ytick_2">
     <g id="line2d_15">
      <path d="M 47.304375 197.53459 
L 256.779375 197.53459 
" clip-path="url(#p4e254d4bd7)" style="fill: none; stroke: #d0d0d0; stroke-opacity: 0.7; stroke-width: 0.6; stroke-linecap: square"/>
     </g>
     <g id="line2d_16">
      <g>
       <use xlink:href="#m8f0898b8e5" x="47.304375" y="197.53459" style="stroke: #000000; stroke-width: 0.8"/>
      </g>
     </g>
     <g id="text_9">
      <!-- −1.5 -->
      <g transform="translate(20.878125 200.573965) scale(0.08 -0.08)">
       <defs>
        <path id="DejaVuSans-35" d="M 691 4666 
L 3169 4666 
L 3169 4134 
L 1269 4134 
L 1269 2991 
Q 1406 3038 1543 3061 
Q 1681 3084 1819 3084 
Q 2600 3084 3056 2656 
Q 3513 2228 3513 1497 
Q 3513 744 3044 326 
Q 2575 -91 1722 -91 
Q 1428 -91 1123 -41 
Q 819 9 494 109 
L 494 744 
Q 775 591 1075 516 
Q 1375 441 1709 441 
Q 2250 441 2565 725 
Q 2881 1009 2881 1497 
Q 2881 1984 2565 2268 
Q 2250 2553 1709 2553 
Q 1456 2553 1204 2497 
Q 953 2441 691 2322 
L 691 4666 
z
" transform="scale(0.015625)"/>
       </defs>
       <use xlink:href="#DejaVuSans-2212"/>
       <use xlink:href="#DejaVuSans-31" transform="translate(83.789062 0)"/>
       <use xlink:href="#DejaVuSans-2e" transform="translate(147.412109 0)"/>
       <use xlink:href="#DejaVuSans-35" transform="translate(179.199219 0)"/>
      </g>
     </g>
    </g>
    <g id="ytick_3">
     <g id="line2d_17">
      <path d="M 47.304375 180.041795 
L 256.779375 180.041795 
" clip-path="url(#p4e254d4bd7)" style="fill: none; stroke: #d0d0d0; stroke-opacity: 0.7; stroke-width: 0.6; stroke-linecap: square"/>
     </g>
     <g id="line2d_18">
      <g>
       <use xlink:href="#m8f0898b8e5" x="47.304375" y="180.041795" style="stroke: #000000; stroke-width: 0.8"/>
      </g>
     </g>
     <g id="text_10">
      <!-- −1.0 -->
      <g transform="translate(20.878125 183.08117) scale(0.08 -0.08)">
       <use xlink:href="#DejaVuSans-2212"/>
       <use xlink:href="#DejaVuSans-31" transform="translate(83.789062 0)"/>
       <use xlink:href="#DejaVuSans-2e" transform="translate(147.412109 0)"/>
       <use xlink:href="#DejaVuSans-30" transform="translate(179.199219 0)"/>
      </g>
     </g>
    </g>
    <g id="ytick_4">
     <g id="line2d_19">
      <path d="M 47.304375 162.548999 
L 256.779375 162.548999 
" clip-path="url(#p4e254d4bd7)" style="fill: none; stroke: #d0d0d0; stroke-opacity: 0.7; stroke-width: 0.6; stroke-linecap: square"/>
     </g>
     <g id="line2d_20">
      <g>
       <use xlink:href="#m8f0898b8e5" x="47.304375" y="162.548999" style="stroke: #000000; stroke-width: 0.8"/>
      </g>
     </g>
     <g id="text_11">
      <!-- −0.5 -->
      <g transform="translate(20.878125 165.588374) scale(0.08 -0.08)">
       <use xlink:href="#DejaVuSans-2212"/>
       <use xlink:href="#DejaVuSans-30" transform="translate(83.789062 0)"/>
       <use xlink:href="#DejaVuSans-2e" transform="translate(147.412109 0)"/>
       <use xlink:href="#DejaVuSans-35" transform="translate(179.199219 0)"/>
      </g>
     </g>
    </g>
    <g id="ytick_5">
     <g id="line2d_21">
      <path d="M 47.304375 145.056204 
L 256.779375 145.056204 
" clip-path="url(#p4e254d4bd7)" style="fill: none; stroke: #d0d0d0; stroke-opacity: 0.7; stroke-width: 0.6; stroke-linecap: square"/>
     </g>
     <g id="line2d_22">
      <g>
       <use xlink:href="#m8f0898b8e5" x="47.304375" y="145.056204" style="stroke: #000000; stroke-width: 0.8"/>
      </g>
     </g>
     <g id="text_12">
      <!-- 0.0 -->
      <g transform="translate(27.581875 148.095579) scale(0.08 -0.08)">
       <use xlink:href="#DejaVuSans-30"/>
       <use xlink:href="#DejaVuSans-2e" transform="translate(63.623047 0)"/>
       <use xlink:href="#DejaVuSans-30" transform="translate(95.410156 0)"/>
      </g>
     </g>
    </g>
    <g id="ytick_6">
     <g id="line2d_23">
      <path d="M 47.304375 127.563409 
L 256.779375 127.563409 
" clip-path="url(#p4e254d4bd7)" style="fill: none; stroke: #d0d0d0; stroke-opacity: 0.7; stroke-width: 0.6; stroke-linecap: square"/>
     </g>
     <g id="line2d_24">
      <g>
       <use xlink:href="#m8f0898b8e5" x="47.304375" y="127.563409" style="stroke: #000000; stroke-width: 0.8"/>
      </g>
     </g>
     <g id="text_13">
      <!-- 0.5 -->
      <g transform="translate(27.581875 130.602784) scale(0.08 -0.08)">
       <use xlink:href="#DejaVuSans-30"/>
       <use xlink:href="#DejaVuSans-2e" transform="translate(63.623047 0)"/>
       <use xlink:href="#DejaVuSans-35" transform="translate(95.410156 0)"/>
      </g>
     </g>
    </g>
    <g id="ytick_7">
     <g id="line2d_25">
      <path d="M 47.304375 110.070614 
L 256.779375 110.070614 
" clip-path="url(#p4e254d4bd7)" style="fill: none; stroke: #d0d0d0; stroke-opacity: 0.7; stroke-width: 0.6; stroke-linecap: square"/>
     </g>
     <g id="line2d_26">
      <g>
       <use xlink:href="#m8f0898b8e5" x="47.304375" y="110.070614" style="stroke: #000000; stroke-width: 0.8"/>
      </g>
     </g>
     <g id="text_14">
      <!-- 1.0 -->
      <g transform="translate(27.581875 113.109989) scale(0.08 -0.08)">
       <use xlink:href="#DejaVuSans-31"/>
       <use xlink:href="#DejaVuSans-2e" transform="translate(63.623047 0)"/>
       <use xlink:href="#DejaVuSans-30" transform="translate(95.410156 0)"/>
      </g>
     </g>
    </g>
    <g id="ytick_8">
     <g id="line2d_27">
      <path d="M 47.304375 92.577819 
L 256.779375 92.577819 
" clip-path="url(#p4e254d4bd7)" style="fill: none; stroke: #d0d0d0; stroke-opacity: 0.7; stroke-width: 0.6; stroke-linecap: square"/>
     </g>
     <g id="line2d_28">
      <g>
       <use xlink:href="#m8f0898b8e5" x="47.304375" y="92.577819" style="stroke: #000000; stroke-width: 0.8"/>
      </g>
     </g>
     <g id="text_15">
      <!-- 1.5 -->
      <g transform="translate(27.581875 95.617194) scale(0.08 -0.08)">
       <use xlink:href="#DejaVuSans-31"/>
       <use xlink:href="#DejaVuSans-2e" transform="translate(63.623047 0)"/>
       <use xlink:href="#DejaVuSans-35" transform="translate(95.410156 0)"/>
      </g>
     </g>
    </g>
    <g id="ytick_9">
     <g id="line2d_29">
      <path d="M 47.304375 75.085023 
L 256.779375 75.085023 
" clip-path="url(#p4e254d4bd7)" style="fill: none; stroke: #d0d0d0; stroke-opacity: 0.7; stroke-width: 0.6; stroke-linecap: square"/>
     </g>
     <g id="line2d_30">
      <g>
       <use xlink:href="#m8f0898b8e5" x="47.304375" y="75.085023" style="stroke: #000000; stroke-width: 0.8"/>
      </g>
     </g>
     <g id="text_16">
      <!-- 2.0 -->
      <g transform="translate(27.581875 78.124398) scale(0.08 -0.08)">
       <use xlink:href="#DejaVuSans-32"/>
       <use xlink:href="#DejaVuSans-2e" transform="translate(63.623047 0)"/>
       <use xlink:href="#DejaVuSans-30" transform="translate(95.410156 0)"/>
      </g>
     </g>
    </g>
    <g id="text_17">
     <!-- signal -->
     <g transform="translate(14.798438 156.469844) rotate(-90) scale(0.1 -0.1)">
      <defs>
       <path id="DejaVuSans-73" d="M 2834 3397 
L 2834 2853 
Q 2591 2978 2328 3040 
Q 2066 3103 1784 3103 
Q 1356 3103 1142 2972 
Q 928 2841 928 2578 
Q 928 2378 1081 2264 
Q 1234 2150 1697 2047 
L 1894 2003 
Q 2506 1872 2764 1633 
Q 3022 1394 3022 966 
Q 3022 478 2636 193 
Q 2250 -91 1575 -91 
Q 1294 -91 989 -36 
Q 684 19 347 128 
L 347 722 
Q 666 556 975 473 
Q 1284 391 1588 391 
Q 1994 391 2212 530 
Q 2431 669 2431 922 
Q 2431 1156 2273 1281 
Q 2116 1406 1581 1522 
L 1381 1569 
Q 847 1681 609 1914 
Q 372 2147 372 2553 
Q 372 3047 722 3315 
Q 1072 3584 1716 3584 
Q 2034 3584 2315 3537 
Q 2597 3491 2834 3397 
z
" transform="scale(0.015625)"/>
       <path id="DejaVuSans-67" d="M 2906 1791 
Q 2906 2416 2648 2759 
Q 2391 3103 1925 3103 
Q 1463 3103 1205 2759 
Q 947 2416 947 1791 
Q 947 1169 1205 825 
Q 1463 481 1925 481 
Q 2391 481 2648 825 
Q 2906 1169 2906 1791 
z
M 3481 434 
Q 3481 -459 3084 -895 
Q 2688 -1331 1869 -1331 
Q 1566 -1331 1297 -1286 
Q 1028 -1241 775 -1147 
L 775 -588 
Q 1028 -725 1275 -790 
Q 1522 -856 1778 -856 
Q 2344 -856 2625 -561 
Q 2906 -266 2906 331 
L 2906 616 
Q 2728 306 2450 153 
Q 2172 0 1784 0 
Q 1141 0 747 490 
Q 353 981 353 1791 
Q 353 2603 747 3093 
Q 1141 3584 1784 3584 
Q 2172 3584 2450 3431 
Q 2728 3278 2906 2969 
L 2906 3500 
L 3481 3500 
L 3481 434 
z
" transform="scale(0.015625)"/>
      </defs>
      <use xlink:href="#DejaVuSans-73"/>
      <use xlink:href="#DejaVuSans-69" transform="translate(52.099609 0)"/>
      <use xlink:href="#DejaVuSans-67" transform="translate(79.882812 0)"/>
      <use xlink:href="#DejaVuSans-6e" transform="translate(143.359375 0)"/>
      <use xlink:href="#DejaVuSans-61" transform="translate(206.738281 0)"/>
      <use xlink:href="#DejaVuSans-6c" transform="translate(268.017578 0)"/>
     </g>
    </g>
   </g>
   <g id="line2d_31">
    <path d="M 56.825966 121.262628 
L 58.426233 117.854106 
L 60.026501 114.542606 
L 61.626768 111.35249 
L 63.227035 108.307441 
L 64.827303 105.430229 
L 66.42757 102.742489 
L 68.027838 100.264509 
L 69.628105 98.015026 
L 71.228372 96.011046 
L 72.82864 94.267672 
L 74.428907 92.797956 
L 76.029174 91.61277 
L 77.629442 90.7207 
L 79.229709 90.127961 
L 80.829977 89.838338 
L 82.430244 89.853149 
L 84.030511 90.171236 
L 85.630779 90.788981 
L 87.231046 91.70034 
L 88.831314 92.896914 
L 90.431581 94.368031 
L 92.031848 96.100859 
L 93.632116 98.080537 
L 95.232383 100.290328 
L 96.83265 102.711788 
L 98.432918 105.324956 
L 100.033185 108.108552 
L 101.633453 111.040194 
L 103.23372 114.096621 
L 104.833987 117.253925 
L 106.434255 120.487787 
L 108.034522 123.77372 
L 109.634789 127.087304 
L 111.235057 130.404426 
L 112.835324 133.701511 
L 114.435592 136.955745 
L 116.035859 140.145293 
L 117.636126 143.249497 
L 119.236394 146.249064 
L 120.836661 149.126239 
L 122.436928 151.86496 
L 124.037196 154.450983 
L 125.637463 156.872006 
L 127.237731 159.117748 
L 128.837998 161.180023 
L 130.438265 163.052779 
L 132.038533 164.732123 
L 133.6388 166.216307 
L 135.239068 167.505706 
L 136.839335 168.602766 
L 138.439602 169.511923 
L 140.03987 170.239511 
L 141.640137 170.793642 
L 143.240404 171.184073 
L 144.840672 171.422045 
L 146.440939 171.52012 
L 148.041207 171.491994 
L 149.641474 171.352303 
L 151.241741 171.116418 
L 152.842009 170.800237 
L 154.442276 170.419964 
L 156.042543 169.9919 
L 157.642811 169.53222 
L 159.243078 169.056762 
L 160.843346 168.58082 
L 162.443613 168.118947 
L 164.04388 167.68476 
L 165.644148 167.290769 
L 167.244415 166.948212 
L 168.844682 166.666913 
L 170.44495 166.455151 
L 172.045217 166.319553 
L 173.645485 166.265009 
L 175.245752 166.294606 
L 176.846019 166.409586 
L 178.446287 166.609326 
L 180.046554 166.891341 
L 181.646822 167.251313 
L 183.247089 167.683144 
L 184.847356 168.17902 
L 186.447624 168.729516 
L 188.047891 169.323702 
L 189.648158 169.949282 
L 191.248426 170.592745 
L 192.848693 171.23953 
L 194.448961 171.874212 
L 196.049228 172.480692 
L 197.649495 173.042402 
L 199.249763 173.542516 
L 200.85003 173.964165 
L 202.450297 174.290655 
L 204.050565 174.505687 
L 205.650832 174.593572 
L 207.2511 174.539441 
L 208.851367 174.329449 
L 210.451634 173.950968 
L 212.051902 173.392769 
L 213.652169 172.645188 
L 215.252436 171.700278 
L 216.852704 170.55194 
L 218.452971 169.196039 
L 220.053239 167.630494 
L 221.653506 165.855347 
L 223.253773 163.872813 
L 224.854041 161.687302 
L 226.454308 159.305416 
L 228.054576 156.735927 
L 229.654843 153.989725 
L 231.25511 151.079747 
L 232.855378 148.020878 
L 234.455645 144.829839 
L 236.055912 141.52504 
L 237.65618 138.126427 
L 239.256447 134.655306 
L 240.856715 131.134146 
L 242.456982 127.586378 
L 244.057249 124.036173 
L 245.657517 120.508217 
L 247.257784 117.027476 
" clip-path="url(#p4e254d4bd7)" style="fill: none; stroke: #000000; stroke-width: 2; stroke-linecap: square"/>
   </g>
   <g id="line2d_32">
    <path d="M 56.825966 126.775565 
L 58.426233 112.424213 
L 60.026501 120.055746 
L 61.626768 118.827026 
L 63.227035 122.095193 
L 64.827303 94.716428 
L 66.42757 107.617933 
L 68.027838 107.025469 
L 69.628105 111.82054 
L 71.228372 73.861818 
L 72.82864 85.184295 
L 74.428907 94.424141 
L 76.029174 100.119763 
L 77.629442 109.453035 
L 79.229709 86.554715 
L 80.829977 86.306625 
L 82.430244 107.098954 
L 84.030511 75.948102 
L 85.630779 81.287429 
L 87.231046 103.480892 
L 88.831314 99.701394 
L 90.431581 99.600554 
L 92.031848 94.133352 
L 93.632116 99.863028 
L 95.232383 120.359066 
L 96.83265 84.661529 
L 98.432918 101.451749 
L 100.033185 92.670437 
L 101.633453 95.674949 
L 103.23372 116.642358 
L 104.833987 113.066613 
L 106.434255 111.467361 
L 108.034522 114.349837 
L 109.634789 129.094482 
L 111.235057 137.97408 
L 112.835324 133.269428 
L 114.435592 146.770602 
L 116.035859 146.952681 
L 117.636126 168.108955 
L 119.236394 145.224863 
L 120.836661 161.700479 
L 122.436928 158.671192 
L 124.037196 155.096297 
L 125.637463 153.029108 
L 127.237731 135.984921 
L 128.837998 158.677198 
L 130.438265 180.358147 
L 132.038533 163.131137 
L 133.6388 173.510944 
L 135.239068 162.615248 
L 136.839335 176.997024 
L 138.439602 178.186333 
L 140.03987 176.499913 
L 141.640137 178.47812 
L 143.240404 193.528437 
L 144.840672 179.605003 
L 146.440939 171.691685 
L 148.041207 156.792061 
L 149.641474 174.942255 
L 151.241741 175.668387 
L 152.842009 163.70014 
L 154.442276 163.815004 
L 156.042543 150.405783 
L 157.642811 162.367554 
L 159.243078 169.29493 
L 160.843346 152.19304 
L 162.443613 149.390507 
L 164.04388 173.505748 
L 165.644148 165.354353 
L 167.244415 187.527584 
L 168.844682 171.125639 
L 170.44495 177.27665 
L 172.045217 168.940861 
L 173.645485 172.162603 
L 175.245752 168.32788 
L 176.846019 167.67124 
L 178.446287 160.56683 
L 180.046554 164.063509 
L 181.646822 174.130583 
L 183.247089 183.468889 
L 184.847356 153.058314 
L 186.447624 151.374709 
L 188.047891 174.888361 
L 189.648158 163.074788 
L 191.248426 189.279833 
L 192.848693 190.368784 
L 194.448961 175.178936 
L 196.049228 154.460014 
L 197.649495 185.85738 
L 199.249763 183.756332 
L 200.85003 154.279237 
L 202.450297 197.475842 
L 204.050565 166.592724 
L 205.650832 168.620312 
L 207.2511 177.065218 
L 208.851367 172.019745 
L 210.451634 141.847856 
L 212.051902 187.190916 
L 213.652169 176.489372 
L 215.252436 174.616089 
L 216.852704 178.997055 
L 218.452971 185.627337 
L 220.053239 148.120601 
L 221.653506 163.160292 
L 223.253773 185.39935 
L 224.854041 170.293109 
L 226.454308 154.341302 
L 228.054576 151.796065 
L 229.654843 171.626468 
L 231.25511 152.199265 
L 232.855378 144.826393 
L 234.455645 140.022813 
L 236.055912 136.693185 
L 237.65618 160.449157 
L 239.256447 112.039081 
L 240.856715 128.548824 
L 242.456982 105.472112 
L 244.057249 88.97765 
L 245.657517 122.474235 
L 247.257784 132.134846 
" clip-path="url(#p4e254d4bd7)" style="fill: none; stroke: #7f7f7f; stroke-opacity: 0.7; stroke-linecap: square"/>
   </g>
   <g id="line2d_33">
    <path d="M 56.825966 125.159656 
L 58.426233 119.014886 
L 60.026501 111.112347 
L 61.626768 108.071756 
L 63.227035 109.418922 
L 64.827303 104.939625 
L 66.42757 98.53379 
L 68.027838 102.370593 
L 69.628105 101.183763 
L 71.228372 93.276942 
L 72.82864 93.922084 
L 74.428907 87.566218 
L 76.029174 90.1989 
L 77.629442 95.578255 
L 79.229709 86.801846 
L 80.829977 92.202379 
L 82.430244 93.694089 
L 84.030511 86.517661 
L 85.630779 87.727553 
L 87.231046 91.761043 
L 88.831314 87.258083 
L 90.431581 96.38471 
L 92.031848 97.378917 
L 93.632116 100.059702 
L 95.232383 99.739222 
L 96.83265 99.858884 
L 98.432918 104.139347 
L 100.033185 107.104427 
L 101.633453 109.89317 
L 103.23372 115.208208 
L 104.833987 116.532224 
L 106.434255 113.162652 
L 108.034522 124.402805 
L 109.634789 129.413111 
L 111.235057 128.845188 
L 112.835324 137.925461 
L 114.435592 132.543073 
L 116.035859 134.183445 
L 117.636126 147.994701 
L 119.236394 143.831835 
L 120.836661 148.462811 
L 122.436928 151.201766 
L 124.037196 150.841387 
L 125.637463 153.232145 
L 127.237731 156.600209 
L 128.837998 164.228202 
L 130.438265 163.529258 
L 132.038533 164.300355 
L 133.6388 169.223575 
L 135.239068 165.757324 
L 136.839335 166.30544 
L 138.439602 168.837219 
L 140.03987 165.743163 
L 141.640137 166.510217 
L 143.240404 180.819719 
L 144.840672 175.196657 
L 146.440939 175.155801 
L 148.041207 165.390631 
L 149.641474 176.223637 
L 151.241741 171.630082 
L 152.842009 171.031469 
L 154.442276 165.609782 
L 156.042543 166.508257 
L 157.642811 177.449681 
L 159.243078 166.511934 
L 160.843346 177.102521 
L 162.443613 161.930025 
L 164.04388 166.195166 
L 165.644148 168.938742 
L 167.244415 170.166358 
L 168.844682 169.227925 
L 170.44495 170.821233 
L 172.045217 161.515344 
L 173.645485 173.156844 
L 175.245752 163.319383 
L 176.846019 168.631205 
L 178.446287 168.520032 
L 180.046554 165.842587 
L 181.646822 170.275279 
L 183.247089 178.386833 
L 184.847356 164.577963 
L 186.447624 165.473312 
L 188.047891 171.855692 
L 189.648158 170.279947 
L 191.248426 181.023883 
L 192.848693 175.086924 
L 194.448961 175.432291 
L 196.049228 168.884712 
L 197.649495 179.604437 
L 199.249763 176.680581 
L 200.85003 169.075036 
L 202.450297 181.888037 
L 204.050565 171.181293 
L 205.650832 180.84366 
L 207.2511 173.693407 
L 208.851367 173.022541 
L 210.451634 173.379447 
L 212.051902 170.743644 
L 213.652169 167.826909 
L 215.252436 170.328793 
L 216.852704 179.646807 
L 218.452971 167.26822 
L 220.053239 163.752463 
L 221.653506 164.053948 
L 223.253773 160.861302 
L 224.854041 166.618528 
L 226.454308 158.037633 
L 228.054576 150.119397 
L 229.654843 158.641568 
L 231.25511 147.90699 
L 232.855378 146.969966 
L 234.455645 143.478006 
L 236.055912 137.910179 
L 237.65618 134.288767 
L 239.256447 133.111128 
L 240.856715 133.072356 
L 242.456982 125.520234 
L 244.057249 120.236014 
L 245.657517 114.094926 
L 247.257784 118.028138 
" clip-path="url(#p4e254d4bd7)" style="fill: none; stroke: #d62728; stroke-width: 2; stroke-linecap: square"/>
   </g>
   <g id="patch_3">
    <path d="M 47.304375 216.28 
L 47.304375 67.08 
" style="fill: none; stroke: #555555; stroke-width: 0.8; stroke-linejoin: miter; stroke-linecap: square"/>
   </g>
   <g id="patch_4">
    <path d="M 47.304375 216.28 
L 256.779375 216.28 
" style="fill: none; stroke: #555555; stroke-width: 0.8; stroke-linejoin: miter; stroke-linecap: square"/>
   </g>
   <g id="text_18">
    <!-- sample 2 -->
    <g transform="translate(124.502813 61.08) scale(0.12 -0.12)">
     <defs>
      <path id="DejaVuSans-70" d="M 1159 525 
L 1159 -1331 
L 581 -1331 
L 581 3500 
L 1159 3500 
L 1159 2969 
Q 1341 3281 1617 3432 
Q 1894 3584 2278 3584 
Q 2916 3584 3314 3078 
Q 3713 2572 3713 1747 
Q 3713 922 3314 415 
Q 2916 -91 2278 -91 
Q 1894 -91 1617 61 
Q 1341 213 1159 525 
z
M 3116 1747 
Q 3116 2381 2855 2742 
Q 2594 3103 2138 3103 
Q 1681 3103 1420 2742 
Q 1159 2381 1159 1747 
Q 1159 1113 1420 752 
Q 1681 391 2138 391 
Q 2594 391 2855 752 
Q 3116 1113 3116 1747 
z
" transform="scale(0.015625)"/>
     </defs>
     <use xlink:href="#DejaVuSans-73"/>
     <use xlink:href="#DejaVuSans-61" transform="translate(52.099609 0)"/>
     <use xlink:href="#DejaVuSans-6d" transform="translate(113.378906 0)"/>
     <use xlink:href="#DejaVuSans-70" transform="translate(210.791016 0)"/>
     <use xlink:href="#DejaVuSans-6c" transform="translate(274.267578 0)"/>
     <use xlink:href="#DejaVuSans-65" transform="translate(302.050781 0)"/>
     <use xlink:href="#DejaVuSans-20" transform="translate(363.574219 0)"/>
     <use xlink:href="#DejaVuSans-32" transform="translate(395.361328 0)"/>
    </g>
   </g>
   <g id="legend_1">
    <g id="patch_5">
     <path d="M 52.904375 212.28 
L 154.709375 212.28 
Q 156.309375 212.28 156.309375 210.68 
L 156.309375 176.2525 
Q 156.309375 174.6525 154.709375 174.6525 
L 52.904375 174.6525 
Q 51.304375 174.6525 51.304375 176.2525 
L 51.304375 210.68 
Q 51.304375 212.28 52.904375 212.28 
z
" style="fill: #ffffff; opacity: 0.8; stroke: #cccccc; stroke-linejoin: miter"/>
    </g>
    <g id="line2d_34">
     <path d="M 54.504375 181.13125 
L 62.504375 181.13125 
L 70.504375 181.13125 
" style="fill: none; stroke: #000000; stroke-width: 2; stroke-linecap: square"/>
    </g>
    <g id="text_19">
     <!-- clean -->
     <g transform="translate(76.904375 183.93125) scale(0.08 -0.08)">
      <defs>
       <path id="DejaVuSans-63" d="M 3122 3366 
L 3122 2828 
Q 2878 2963 2633 3030 
Q 2388 3097 2138 3097 
Q 1578 3097 1268 2742 
Q 959 2388 959 1747 
Q 959 1106 1268 751 
Q 1578 397 2138 397 
Q 2388 397 2633 464 
Q 2878 531 3122 666 
L 3122 134 
Q 2881 22 2623 -34 
Q 2366 -91 2075 -91 
Q 1284 -91 818 406 
Q 353 903 353 1747 
Q 353 2603 823 3093 
Q 1294 3584 2113 3584 
Q 2378 3584 2631 3529 
Q 2884 3475 3122 3366 
z
" transform="scale(0.015625)"/>
      </defs>
      <use xlink:href="#DejaVuSans-63"/>
      <use xlink:href="#DejaVuSans-6c" transform="translate(54.980469 0)"/>
      <use xlink:href="#DejaVuSans-65" transform="translate(82.763672 0)"/>
      <use xlink:href="#DejaVuSans-61" transform="translate(144.287109 0)"/>
      <use xlink:href="#DejaVuSans-6e" transform="translate(205.566406 0)"/>
     </g>
    </g>
    <g id="line2d_35">
     <path d="M 54.504375 192.87375 
L 62.504375 192.87375 
L 70.504375 192.87375 
" style="fill: none; stroke: #7f7f7f; stroke-opacity: 0.7; stroke-linecap: square"/>
    </g>
    <g id="text_20">
     <!-- noisy -->
     <g transform="translate(76.904375 195.67375) scale(0.08 -0.08)">
      <defs>
       <path id="DejaVuSans-79" d="M 2059 -325 
Q 1816 -950 1584 -1140 
Q 1353 -1331 966 -1331 
L 506 -1331 
L 506 -850 
L 844 -850 
Q 1081 -850 1212 -737 
Q 1344 -625 1503 -206 
L 1606 56 
L 191 3500 
L 800 3500 
L 1894 763 
L 2988 3500 
L 3597 3500 
L 2059 -325 
z
" transform="scale(0.015625)"/>
      </defs>
      <use xlink:href="#DejaVuSans-6e"/>
      <use xlink:href="#DejaVuSans-6f" transform="translate(63.378906 0)"/>
      <use xlink:href="#DejaVuSans-69" transform="translate(124.560547 0)"/>
      <use xlink:href="#DejaVuSans-73" transform="translate(152.34375 0)"/>
      <use xlink:href="#DejaVuSans-79" transform="translate(204.443359 0)"/>
     </g>
    </g>
    <g id="line2d_36">
     <path d="M 54.504375 204.61625 
L 62.504375 204.61625 
L 70.504375 204.61625 
" style="fill: none; stroke: #d62728; stroke-width: 2; stroke-linecap: square"/>
    </g>
    <g id="text_21">
     <!-- PCA reconstruction -->
     <g transform="translate(76.904375 207.41625) scale(0.08 -0.08)">
      <defs>
       <path id="DejaVuSans-50" d="M 1259 4147 
L 1259 2394 
L 2053 2394 
Q 2494 2394 2734 2622 
Q 2975 2850 2975 3272 
Q 2975 3691 2734 3919 
Q 2494 4147 2053 4147 
L 1259 4147 
z
M 628 4666 
L 2053 4666 
Q 2838 4666 3239 4311 
Q 3641 3956 3641 3272 
Q 3641 2581 3239 2228 
Q 2838 1875 2053 1875 
L 1259 1875 
L 1259 0 
L 628 0 
L 628 4666 
z
" transform="scale(0.015625)"/>
       <path id="DejaVuSans-43" d="M 4122 4306 
L 4122 3641 
Q 3803 3938 3442 4084 
Q 3081 4231 2675 4231 
Q 1875 4231 1450 3742 
Q 1025 3253 1025 2328 
Q 1025 1406 1450 917 
Q 1875 428 2675 428 
Q 3081 428 3442 575 
Q 3803 722 4122 1019 
L 4122 359 
Q 3791 134 3420 21 
Q 3050 -91 2638 -91 
Q 1578 -91 968 557 
Q 359 1206 359 2328 
Q 359 3453 968 4101 
Q 1578 4750 2638 4750 
Q 3056 4750 3426 4639 
Q 3797 4528 4122 4306 
z
" transform="scale(0.015625)"/>
       <path id="DejaVuSans-41" d="M 2188 4044 
L 1331 1722 
L 3047 1722 
L 2188 4044 
z
M 1831 4666 
L 2547 4666 
L 4325 0 
L 3669 0 
L 3244 1197 
L 1141 1197 
L 716 0 
L 50 0 
L 1831 4666 
z
" transform="scale(0.015625)"/>
       <path id="DejaVuSans-75" d="M 544 1381 
L 544 3500 
L 1119 3500 
L 1119 1403 
Q 1119 906 1312 657 
Q 1506 409 1894 409 
Q 2359 409 2629 706 
Q 2900 1003 2900 1516 
L 2900 3500 
L 3475 3500 
L 3475 0 
L 2900 0 
L 2900 538 
Q 2691 219 2414 64 
Q 2138 -91 1772 -91 
Q 1169 -91 856 284 
Q 544 659 544 1381 
z
M 1991 3584 
L 1991 3584 
z
" transform="scale(0.015625)"/>
      </defs>
      <use xlink:href="#DejaVuSans-50"/>
      <use xlink:href="#DejaVuSans-43" transform="translate(60.302734 0)"/>
      <use xlink:href="#DejaVuSans-41" transform="translate(130.126953 0)"/>
      <use xlink:href="#DejaVuSans-20" transform="translate(198.535156 0)"/>
      <use xlink:href="#DejaVuSans-72" transform="translate(230.322266 0)"/>
      <use xlink:href="#DejaVuSans-65" transform="translate(269.185547 0)"/>
      <use xlink:href="#DejaVuSans-63" transform="translate(330.708984 0)"/>
      <use xlink:href="#DejaVuSans-6f" transform="translate(385.689453 0)"/>
      <use xlink:href="#DejaVuSans-6e" transform="translate(446.871094 0)"/>
      <use xlink:href="#DejaVuSans-73" transform="translate(510.25 0)"/>
      <use xlink:href="#DejaVuSans-74" transform="translate(562.349609 0)"/>
      <use xlink:href="#DejaVuSans-72" transform="translate(601.558594 0)"/>
      <use xlink:href="#DejaVuSans-75" transform="translate(642.671875 0)"/>
      <use xlink:href="#DejaVuSans-63" transform="translate(706.050781 0)"/>
      <use xlink:href="#DejaVuSans-74" transform="translate(761.03125 0)"/>
      <use xlink:href="#DejaVuSans-69" transform="translate(800.240234 0)"/>
      <use xlink:href="#DejaVuSans-6f" transform="translate(828.023438 0)"/>
      <use xlink:href="#DejaVuSans-6e" transform="translate(889.205078 0)"/>
     </g>
    </g>
   </g>
  </g>
  <g id="axes_2">
   <g id="patch_6">
    <path d="M 271.079375 216.28 
L 480.554375 216.28 
L 480.554375 67.08 
L 271.079375 67.08 
z
" style="fill: #ffffff"/>
   </g>
   <g id="matplotlib.axis_3">
    <g id="xtick_7">
     <g id="line2d_37">
      <path d="M 280.600966 216.28 
L 280.600966 67.08 
" clip-path="url(#p92bdcf4f74)" style="fill: none; stroke: #d0d0d0; stroke-opacity: 0.7; stroke-width: 0.6; stroke-linecap: square"/>
     </g>
     <g id="line2d_38">
      <g>
       <use xlink:href="#m6f470c1fdb" x="280.600966" y="216.28" style="stroke: #000000; stroke-width: 0.8"/>
      </g>
     </g>
     <g id="text_22">
      <!-- 0.0 -->
      <g transform="translate(274.239716 229.35875) scale(0.08 -0.08)">
       <use xlink:href="#DejaVuSans-30"/>
       <use xlink:href="#DejaVuSans-2e" transform="translate(63.623047 0)"/>
       <use xlink:href="#DejaVuSans-30" transform="translate(95.410156 0)"/>
      </g>
     </g>
    </g>
    <g id="xtick_8">
     <g id="line2d_39">
      <path d="M 318.68733 216.28 
L 318.68733 67.08 
" clip-path="url(#p92bdcf4f74)" style="fill: none; stroke: #d0d0d0; stroke-opacity: 0.7; stroke-width: 0.6; stroke-linecap: square"/>
     </g>
     <g id="line2d_40">
      <g>
       <use xlink:href="#m6f470c1fdb" x="318.68733" y="216.28" style="stroke: #000000; stroke-width: 0.8"/>
      </g>
     </g>
     <g id="text_23">
      <!-- 0.2 -->
      <g transform="translate(312.32608 229.35875) scale(0.08 -0.08)">
       <use xlink:href="#DejaVuSans-30"/>
       <use xlink:href="#DejaVuSans-2e" transform="translate(63.623047 0)"/>
       <use xlink:href="#DejaVuSans-32" transform="translate(95.410156 0)"/>
      </g>
     </g>
    </g>
    <g id="xtick_9">
     <g id="line2d_41">
      <path d="M 356.773693 216.28 
L 356.773693 67.08 
" clip-path="url(#p92bdcf4f74)" style="fill: none; stroke: #d0d0d0; stroke-opacity: 0.7; stroke-width: 0.6; stroke-linecap: square"/>
     </g>
     <g id="line2d_42">
      <g>
       <use xlink:href="#m6f470c1fdb" x="356.773693" y="216.28" style="stroke: #000000; stroke-width: 0.8"/>
      </g>
     </g>
     <g id="text_24">
      <!-- 0.4 -->
      <g transform="translate(350.412443 229.35875) scale(0.08 -0.08)">
       <use xlink:href="#DejaVuSans-30"/>
       <use xlink:href="#DejaVuSans-2e" transform="translate(63.623047 0)"/>
       <use xlink:href="#DejaVuSans-34" transform="translate(95.410156 0)"/>
      </g>
     </g>
    </g>
    <g id="xtick_10">
     <g id="line2d_43">
      <path d="M 394.860057 216.28 
L 394.860057 67.08 
" clip-path="url(#p92bdcf4f74)" style="fill: none; stroke: #d0d0d0; stroke-opacity: 0.7; stroke-width: 0.6; stroke-linecap: square"/>
     </g>
     <g id="line2d_44">
      <g>
       <use xlink:href="#m6f470c1fdb" x="394.860057" y="216.28" style="stroke: #000000; stroke-width: 0.8"/>
      </g>
     </g>
     <g id="text_25">
      <!-- 0.6 -->
      <g transform="translate(388.498807 229.35875) scale(0.08 -0.08)">
       <use xlink:href="#DejaVuSans-30"/>
       <use xlink:href="#DejaVuSans-2e" transform="translate(63.623047 0)"/>
       <use xlink:href="#DejaVuSans-36" transform="translate(95.410156 0)"/>
      </g>
     </g>
    </g>
    <g id="xtick_11">
     <g id="line2d_45">
      <path d="M 432.94642 216.28 
L 432.94642 67.08 
" clip-path="url(#p92bdcf4f74)" style="fill: none; stroke: #d0d0d0; stroke-opacity: 0.7; stroke-width: 0.6; stroke-linecap: square"/>
     </g>
     <g id="line2d_46">
      <g>
       <use xlink:href="#m6f470c1fdb" x="432.94642" y="216.28" style="stroke: #000000; stroke-width: 0.8"/>
      </g>
     </g>
     <g id="text_26">
      <!-- 0.8 -->
      <g transform="translate(426.58517 229.35875) scale(0.08 -0.08)">
       <use xlink:href="#DejaVuSans-30"/>
       <use xlink:href="#DejaVuSans-2e" transform="translate(63.623047 0)"/>
       <use xlink:href="#DejaVuSans-38" transform="translate(95.410156 0)"/>
      </g>
     </g>
    </g>
    <g id="xtick_12">
     <g id="line2d_47">
      <path d="M 471.032784 216.28 
L 471.032784 67.08 
" clip-path="url(#p92bdcf4f74)" style="fill: none; stroke: #d0d0d0; stroke-opacity: 0.7; stroke-width: 0.6; stroke-linecap: square"/>
     </g>
     <g id="line2d_48">
      <g>
       <use xlink:href="#m6f470c1fdb" x="471.032784" y="216.28" style="stroke: #000000; stroke-width: 0.8"/>
      </g>
     </g>
     <g id="text_27">
      <!-- 1.0 -->
      <g transform="translate(464.671534 229.35875) scale(0.08 -0.08)">
       <use xlink:href="#DejaVuSans-31"/>
       <use xlink:href="#DejaVuSans-2e" transform="translate(63.623047 0)"/>
       <use xlink:href="#DejaVuSans-30" transform="translate(95.410156 0)"/>
      </g>
     </g>
    </g>
    <g id="text_28">
     <!-- normalized time -->
     <g transform="translate(335.148125 242.620938) scale(0.1 -0.1)">
      <use xlink:href="#DejaVuSans-6e"/>
      <use xlink:href="#DejaVuSans-6f" transform="translate(63.378906 0)"/>
      <use xlink:href="#DejaVuSans-72" transform="translate(124.560547 0)"/>
      <use xlink:href="#DejaVuSans-6d" transform="translate(163.923828 0)"/>
      <use xlink:href="#DejaVuSans-61" transform="translate(261.335938 0)"/>
      <use xlink:href="#DejaVuSans-6c" transform="translate(322.615234 0)"/>
      <use xlink:href="#DejaVuSans-69" transform="translate(350.398438 0)"/>
      <use xlink:href="#DejaVuSans-7a" transform="translate(378.181641 0)"/>
      <use xlink:href="#DejaVuSans-65" transform="translate(430.671875 0)"/>
      <use xlink:href="#DejaVuSans-64" transform="translate(492.195312 0)"/>
      <use xlink:href="#DejaVuSans-20" transform="translate(555.671875 0)"/>
      <use xlink:href="#DejaVuSans-74" transform="translate(587.458984 0)"/>
      <use xlink:href="#DejaVuSans-69" transform="translate(626.667969 0)"/>
      <use xlink:href="#DejaVuSans-6d" transform="translate(654.451172 0)"/>
      <use xlink:href="#DejaVuSans-65" transform="translate(751.863281 0)"/>
     </g>
    </g>
   </g>
   <g id="matplotlib.axis_4">
    <g id="ytick_10">
     <g id="line2d_49">
      <path d="M 271.079375 215.027385 
L 480.554375 215.027385 
" clip-path="url(#p92bdcf4f74)" style="fill: none; stroke: #d0d0d0; stroke-opacity: 0.7; stroke-width: 0.6; stroke-linecap: square"/>
     </g>
     <g id="line2d_50">
      <g>
       <use xlink:href="#m8f0898b8e5" x="271.079375" y="215.027385" style="stroke: #000000; stroke-width: 0.8"/>
      </g>
     </g>
    </g>
    <g id="ytick_11">
     <g id="line2d_51">
      <path d="M 271.079375 197.53459 
L 480.554375 197.53459 
" clip-path="url(#p92bdcf4f74)" style="fill: none; stroke: #d0d0d0; stroke-opacity: 0.7; stroke-width: 0.6; stroke-linecap: square"/>
     </g>
     <g id="line2d_52">
      <g>
       <use xlink:href="#m8f0898b8e5" x="271.079375" y="197.53459" style="stroke: #000000; stroke-width: 0.8"/>
      </g>
     </g>
    </g>
    <g id="ytick_12">
     <g id="line2d_53">
      <path d="M 271.079375 180.041795 
L 480.554375 180.041795 
" clip-path="url(#p92bdcf4f74)" style="fill: none; stroke: #d0d0d0; stroke-opacity: 0.7; stroke-width: 0.6; stroke-linecap: square"/>
     </g>
     <g id="line2d_54">
      <g>
       <use xlink:href="#m8f0898b8e5" x="271.079375" y="180.041795" style="stroke: #000000; stroke-width: 0.8"/>
      </g>
     </g>
    </g>
    <g id="ytick_13">
     <g id="line2d_55">
      <path d="M 271.079375 162.548999 
L 480.554375 162.548999 
" clip-path="url(#p92bdcf4f74)" style="fill: none; stroke: #d0d0d0; stroke-opacity: 0.7; stroke-width: 0.6; stroke-linecap: square"/>
     </g>
     <g id="line2d_56">
      <g>
       <use xlink:href="#m8f0898b8e5" x="271.079375" y="162.548999" style="stroke: #000000; stroke-width: 0.8"/>
      </g>
     </g>
    </g>
    <g id="ytick_14">
     <g id="line2d_57">
      <path d="M 271.079375 145.056204 
L 480.554375 145.056204 
" clip-path="url(#p92bdcf4f74)" style="fill: none; stroke: #d0d0d0; stroke-opacity: 0.7; stroke-width: 0.6; stroke-linecap: square"/>
     </g>
     <g id="line2d_58">
      <g>
       <use xlink:href="#m8f0898b8e5" x="271.079375" y="145.056204" style="stroke: #000000; stroke-width: 0.8"/>
      </g>
     </g>
    </g>
    <g id="ytick_15">
     <g id="line2d_59">
      <path d="M 271.079375 127.563409 
L 480.554375 127.563409 
" clip-path="url(#p92bdcf4f74)" style="fill: none; stroke: #d0d0d0; stroke-opacity: 0.7; stroke-width: 0.6; stroke-linecap: square"/>
     </g>
     <g id="line2d_60">
      <g>
       <use xlink:href="#m8f0898b8e5" x="271.079375" y="127.563409" style="stroke: #000000; stroke-width: 0.8"/>
      </g>
     </g>
    </g>
    <g id="ytick_16">
     <g id="line2d_61">
      <path d="M 271.079375 110.070614 
L 480.554375 110.070614 
" clip-path="url(#p92bdcf4f74)" style="fill: none; stroke: #d0d0d0; stroke-opacity: 0.7; stroke-width: 0.6; stroke-linecap: square"/>
     </g>
     <g id="line2d_62">
      <g>
       <use xlink:href="#m8f0898b8e5" x="271.079375" y="110.070614" style="stroke: #000000; stroke-width: 0.8"/>
      </g>
     </g>
    </g>
    <g id="ytick_17">
     <g id="line2d_63">
      <path d="M 271.079375 92.577819 
L 480.554375 92.577819 
" clip-path="url(#p92bdcf4f74)" style="fill: none; stroke: #d0d0d0; stroke-opacity: 0.7; stroke-width: 0.6; stroke-linecap: square"/>
     </g>
     <g id="line2d_64">
      <g>
       <use xlink:href="#m8f0898b8e5" x="271.079375" y="92.577819" style="stroke: #000000; stroke-width: 0.8"/>
      </g>
     </g>
    </g>
    <g id="ytick_18">
     <g id="line2d_65">
      <path d="M 271.079375 75.085023 
L 480.554375 75.085023 
" clip-path="url(#p92bdcf4f74)" style="fill: none; stroke: #d0d0d0; stroke-opacity: 0.7; stroke-width: 0.6; stroke-linecap: square"/>
     </g>
     <g id="line2d_66">
      <g>
       <use xlink:href="#m8f0898b8e5" x="271.079375" y="75.085023" style="stroke: #000000; stroke-width: 0.8"/>
      </g>
     </g>
    </g>
   </g>
   <g id="line2d_67">
    <path d="M 280.600966 158.55418 
L 282.201233 154.884649 
L 283.801501 151.20728 
L 285.401768 147.54748 
L 287.002035 143.930271 
L 288.602303 140.380044 
L 290.20257 136.920341 
L 291.802838 133.573627 
L 293.403105 130.36109 
L 295.003372 127.302448 
L 296.60364 124.415772 
L 298.203907 121.717329 
L 299.804174 119.221443 
L 301.404442 116.940383 
L 303.004709 114.884262 
L 304.604977 113.060972 
L 306.205244 111.476135 
L 307.805511 110.133079 
L 309.405779 109.032844 
L 311.006046 108.174203 
L 312.606314 107.553718 
L 314.206581 107.16581 
L 315.806848 107.002857 
L 317.407116 107.055309 
L 319.007383 107.31183 
L 320.60765 107.759449 
L 322.207918 108.383732 
L 323.808185 109.168973 
L 325.408453 110.098386 
L 327.00872 111.154321 
L 328.608987 112.318472 
L 330.209255 113.572105 
L 331.809522 114.896279 
L 333.409789 116.272071 
L 335.010057 117.680798 
L 336.610324 119.10423 
L 338.210592 120.524806 
L 339.810859 121.925828 
L 341.411126 123.291652 
L 343.011394 124.607858 
L 344.611661 125.861412 
L 346.211928 127.040804 
L 347.812196 128.136167 
L 349.412463 129.139378 
L 351.012731 130.044139 
L 352.612998 130.846028 
L 354.213265 131.542537 
L 355.813533 132.133076 
L 357.4138 132.618962 
L 359.014068 133.003381 
L 360.614335 133.291328 
L 362.214602 133.489523 
L 363.81487 133.60631 
L 365.415137 133.651533 
L 367.015404 133.636392 
L 368.615672 133.57329 
L 370.215939 133.475656 
L 371.816207 133.357758 
L 373.416474 133.234512 
L 375.016741 133.121271 
L 376.617009 133.033618 
L 378.217276 132.98715 
L 379.817543 132.997266 
L 381.417811 133.078946 
L 383.018078 133.246549 
L 384.618346 133.513605 
L 386.218613 133.892623 
L 387.81888 134.394906 
L 389.419148 135.030382 
L 391.019415 135.807447 
L 392.619682 136.732833 
L 394.21995 137.811483 
L 395.820217 139.046458 
L 397.420485 140.438854 
L 399.020752 141.987755 
L 400.621019 143.690195 
L 402.221287 145.541155 
L 403.821554 147.533578 
L 405.421822 149.658405 
L 407.022089 151.904647 
L 408.622356 154.259463 
L 410.222624 156.708273 
L 411.822891 159.234885 
L 413.423158 161.821646 
L 415.023426 164.449606 
L 416.623693 167.098703 
L 418.223961 169.747957 
L 419.824228 172.375683 
L 421.424495 174.959708 
L 423.024763 177.477597 
L 424.62503 179.906886 
L 426.225297 182.225314 
L 427.825565 184.411057 
L 429.425832 186.442963 
L 431.0261 188.300772 
L 432.626367 189.965339 
L 434.226634 191.418838 
L 435.826902 192.644964 
L 437.427169 193.629106 
L 439.027436 194.35852 
L 440.627704 194.822469 
L 442.227971 195.012351 
L 443.828239 194.921806 
L 445.428506 194.546792 
L 447.028773 193.885652 
L 448.629041 192.939139 
L 450.229308 191.710431 
L 451.829576 190.205114 
L 453.429843 188.43114 
L 455.03011 186.398764 
L 456.630378 184.120454 
L 458.230645 181.610783 
L 459.830912 178.886291 
L 461.43118 175.965335 
L 463.031447 172.867916 
L 464.631715 169.615491 
L 466.231982 166.23077 
L 467.832249 162.737499 
L 469.432517 159.160231 
L 471.032784 155.524099 
" clip-path="url(#p92bdcf4f74)" style="fill: none; stroke: #000000; stroke-width: 2; stroke-linecap: square"/>
   </g>
   <g id="line2d_68">
    <path d="M 280.600966 145.493245 
L 282.201233 167.946547 
L 283.801501 144.858112 
L 285.401768 144.709024 
L 287.002035 149.88987 
L 288.602303 145.501319 
L 290.20257 128.784043 
L 291.802838 149.792723 
L 293.403105 138.075313 
L 295.003372 129.502985 
L 296.60364 125.747906 
L 298.203907 125.576822 
L 299.804174 117.754576 
L 301.404442 111.583653 
L 303.004709 127.235584 
L 304.604977 113.246868 
L 306.205244 119.278815 
L 307.805511 92.630183 
L 309.405779 127.752774 
L 311.006046 112.331862 
L 312.606314 100.100192 
L 314.206581 111.939011 
L 315.806848 112.369186 
L 317.407116 114.96848 
L 319.007383 104.627857 
L 320.60765 123.421318 
L 322.207918 110.581178 
L 323.808185 111.600909 
L 325.408453 129.443455 
L 327.00872 108.892389 
L 328.608987 119.222967 
L 330.209255 110.829779 
L 331.809522 105.27965 
L 333.409789 113.056668 
L 335.010057 133.386402 
L 336.610324 116.117534 
L 338.210592 141.385294 
L 339.810859 132.411505 
L 341.411126 103.507567 
L 343.011394 125.477082 
L 344.611661 107.433228 
L 346.211928 130.184303 
L 347.812196 128.895643 
L 349.412463 143.853536 
L 351.012731 119.188547 
L 352.612998 134.139286 
L 354.213265 124.585008 
L 355.813533 127.502248 
L 357.4138 126.732884 
L 359.014068 129.668065 
L 360.614335 134.450504 
L 362.214602 134.15679 
L 363.81487 142.82389 
L 365.415137 160.627102 
L 367.015404 128.144021 
L 368.615672 108.291324 
L 370.215939 120.5784 
L 371.816207 104.843895 
L 373.416474 127.629974 
L 375.016741 145.416275 
L 376.617009 145.593684 
L 378.217276 124.034028 
L 379.817543 129.018474 
L 381.417811 135.356366 
L 383.018078 124.249989 
L 384.618346 144.541912 
L 386.218613 127.562506 
L 387.81888 138.014404 
L 389.419148 133.190793 
L 391.019415 121.183391 
L 392.619682 138.523537 
L 394.21995 120.808762 
L 395.820217 122.613391 
L 397.420485 149.862268 
L 399.020752 113.175598 
L 400.621019 159.029166 
L 402.221287 146.741489 
L 403.821554 138.346875 
L 405.421822 177.871006 
L 407.022089 139.022093 
L 408.622356 140.058428 
L 410.222624 158.003372 
L 411.822891 155.748489 
L 413.423158 159.032069 
L 415.023426 166.916465 
L 416.623693 153.676592 
L 418.223961 174.238024 
L 419.824228 172.78746 
L 421.424495 170.288949 
L 423.024763 166.792597 
L 424.62503 166.087564 
L 426.225297 200.435682 
L 427.825565 209.498182 
L 429.425832 188.019158 
L 431.0261 188.844875 
L 432.626367 203.273528 
L 434.226634 187.505116 
L 435.826902 184.712348 
L 437.427169 188.767049 
L 439.027436 173.760752 
L 440.627704 207.570178 
L 442.227971 194.617028 
L 443.828239 170.861475 
L 445.428506 186.009681 
L 447.028773 207.660992 
L 448.629041 190.333052 
L 450.229308 176.970772 
L 451.829576 164.247263 
L 453.429843 180.114067 
L 455.03011 171.817496 
L 456.630378 197.840722 
L 458.230645 184.629877 
L 459.830912 163.985222 
L 461.43118 187.831134 
L 463.031447 173.587241 
L 464.631715 192.775977 
L 466.231982 147.814295 
L 467.832249 164.339617 
L 469.432517 152.103585 
L 471.032784 174.180036 
" clip-path="url(#p92bdcf4f74)" style="fill: none; stroke: #7f7f7f; stroke-opacity: 0.7; stroke-linecap: square"/>
   </g>
   <g id="line2d_69">
    <path d="M 280.600966 156.210466 
L 282.201233 157.077706 
L 283.801501 150.081038 
L 285.401768 143.87946 
L 287.002035 139.948027 
L 288.602303 138.411687 
L 290.20257 139.530484 
L 291.802838 135.104169 
L 293.403105 134.062401 
L 295.003372 126.774113 
L 296.60364 129.080827 
L 298.203907 124.303314 
L 299.804174 120.339129 
L 301.404442 118.492988 
L 303.004709 114.207366 
L 304.604977 112.499795 
L 306.205244 113.924046 
L 307.805511 112.764863 
L 309.405779 114.66972 
L 311.006046 109.608593 
L 312.606314 111.709693 
L 314.206581 108.893395 
L 315.806848 111.267409 
L 317.407116 108.274702 
L 319.007383 107.369714 
L 320.60765 113.869892 
L 322.207918 106.985439 
L 323.808185 116.109593 
L 325.408453 113.211842 
L 327.00872 109.070489 
L 328.608987 114.731416 
L 330.209255 112.555055 
L 331.809522 121.345645 
L 333.409789 117.912699 
L 335.010057 121.191091 
L 336.610324 123.007393 
L 338.210592 116.719763 
L 339.810859 125.721047 
L 341.411126 122.197621 
L 343.011394 124.06034 
L 344.611661 128.389633 
L 346.211928 126.877176 
L 347.812196 129.392368 
L 349.412463 121.923795 
L 351.012731 128.067187 
L 352.612998 133.051317 
L 354.213265 135.224817 
L 355.813533 129.227167 
L 357.4138 134.847732 
L 359.014068 134.718857 
L 360.614335 134.040527 
L 362.214602 135.369414 
L 363.81487 134.25007 
L 365.415137 133.849411 
L 367.015404 134.511782 
L 368.615672 133.094894 
L 370.215939 132.406211 
L 371.816207 130.054173 
L 373.416474 135.377164 
L 375.016741 130.443896 
L 376.617009 133.229578 
L 378.217276 130.059303 
L 379.817543 128.845395 
L 381.417811 131.207176 
L 383.018078 128.014862 
L 384.618346 133.53445 
L 386.218613 130.976704 
L 387.81888 129.889117 
L 389.419148 134.094104 
L 391.019415 138.973674 
L 392.619682 136.972629 
L 394.21995 138.149355 
L 395.820217 133.791085 
L 397.420485 136.61847 
L 399.020752 139.723621 
L 400.621019 138.985057 
L 402.221287 141.400065 
L 403.821554 147.408723 
L 405.421822 147.13581 
L 407.022089 150.664124 
L 408.622356 150.942354 
L 410.222624 155.557748 
L 411.822891 159.560226 
L 413.423158 158.046162 
L 415.023426 160.22378 
L 416.623693 163.505904 
L 418.223961 171.589756 
L 419.824228 167.557588 
L 421.424495 175.231084 
L 423.024763 176.199088 
L 424.62503 177.459977 
L 426.225297 182.235139 
L 427.825565 184.235646 
L 429.425832 182.548643 
L 431.0261 182.847768 
L 432.626367 188.021478 
L 434.226634 191.797202 
L 435.826902 189.025321 
L 437.427169 194.260423 
L 439.027436 193.6359 
L 440.627704 194.927888 
L 442.227971 196.230421 
L 443.828239 188.977728 
L 445.428506 195.940099 
L 447.028773 193.475189 
L 448.629041 190.413627 
L 450.229308 190.642628 
L 451.829576 188.271687 
L 453.429843 189.729095 
L 455.03011 186.087406 
L 456.630378 185.423917 
L 458.230645 183.020295 
L 459.830912 182.886207 
L 461.43118 178.256674 
L 463.031447 178.74672 
L 464.631715 172.229233 
L 466.231982 165.910087 
L 467.832249 165.653721 
L 469.432517 164.216462 
L 471.032784 154.00041 
" clip-path="url(#p92bdcf4f74)" style="fill: none; stroke: #d62728; stroke-width: 2; stroke-linecap: square"/>
   </g>
   <g id="patch_7">
    <path d="M 271.079375 216.28 
L 271.079375 67.08 
" style="fill: none; stroke: #555555; stroke-width: 0.8; stroke-linejoin: miter; stroke-linecap: square"/>
   </g>
   <g id="patch_8">
    <path d="M 271.079375 216.28 
L 480.554375 216.28 
" style="fill: none; stroke: #555555; stroke-width: 0.8; stroke-linejoin: miter; stroke-linecap: square"/>
   </g>
   <g id="text_29">
    <!-- sample 10 -->
    <g transform="translate(344.460312 61.08) scale(0.12 -0.12)">
     <use xlink:href="#DejaVuSans-73"/>
     <use xlink:href="#DejaVuSans-61" transform="translate(52.099609 0)"/>
     <use xlink:href="#DejaVuSans-6d" transform="translate(113.378906 0)"/>
     <use xlink:href="#DejaVuSans-70" transform="translate(210.791016 0)"/>
     <use xlink:href="#DejaVuSans-6c" transform="translate(274.267578 0)"/>
     <use xlink:href="#DejaVuSans-65" transform="translate(302.050781 0)"/>
     <use xlink:href="#DejaVuSans-20" transform="translate(363.574219 0)"/>
     <use xlink:href="#DejaVuSans-31" transform="translate(395.361328 0)"/>
     <use xlink:href="#DejaVuSans-30" transform="translate(458.984375 0)"/>
    </g>
   </g>
  </g>
  <g id="axes_3">
   <g id="patch_9">
    <path d="M 494.854375 216.28 
L 704.329375 216.28 
L 704.329375 67.08 
L 494.854375 67.08 
z
" style="fill: #ffffff"/>
   </g>
   <g id="matplotlib.axis_5">
    <g id="xtick_13">
     <g id="line2d_70">
      <path d="M 504.375966 216.28 
L 504.375966 67.08 
" clip-path="url(#pc18ce380b2)" style="fill: none; stroke: #d0d0d0; stroke-opacity: 0.7; stroke-width: 0.6; stroke-linecap: square"/>
     </g>
     <g id="line2d_71">
      <g>
       <use xlink:href="#m6f470c1fdb" x="504.375966" y="216.28" style="stroke: #000000; stroke-width: 0.8"/>
      </g>
     </g>
     <g id="text_30">
      <!-- 0.0 -->
      <g transform="translate(498.014716 229.35875) scale(0.08 -0.08)">
       <use xlink:href="#DejaVuSans-30"/>
       <use xlink:href="#DejaVuSans-2e" transform="translate(63.623047 0)"/>
       <use xlink:href="#DejaVuSans-30" transform="translate(95.410156 0)"/>
      </g>
     </g>
    </g>
    <g id="xtick_14">
     <g id="line2d_72">
      <path d="M 542.46233 216.28 
L 542.46233 67.08 
" clip-path="url(#pc18ce380b2)" style="fill: none; stroke: #d0d0d0; stroke-opacity: 0.7; stroke-width: 0.6; stroke-linecap: square"/>
     </g>
     <g id="line2d_73">
      <g>
       <use xlink:href="#m6f470c1fdb" x="542.46233" y="216.28" style="stroke: #000000; stroke-width: 0.8"/>
      </g>
     </g>
     <g id="text_31">
      <!-- 0.2 -->
      <g transform="translate(536.10108 229.35875) scale(0.08 -0.08)">
       <use xlink:href="#DejaVuSans-30"/>
       <use xlink:href="#DejaVuSans-2e" transform="translate(63.623047 0)"/>
       <use xlink:href="#DejaVuSans-32" transform="translate(95.410156 0)"/>
      </g>
     </g>
    </g>
    <g id="xtick_15">
     <g id="line2d_74">
      <path d="M 580.548693 216.28 
L 580.548693 67.08 
" clip-path="url(#pc18ce380b2)" style="fill: none; stroke: #d0d0d0; stroke-opacity: 0.7; stroke-width: 0.6; stroke-linecap: square"/>
     </g>
     <g id="line2d_75">
      <g>
       <use xlink:href="#m6f470c1fdb" x="580.548693" y="216.28" style="stroke: #000000; stroke-width: 0.8"/>
      </g>
     </g>
     <g id="text_32">
      <!-- 0.4 -->
      <g transform="translate(574.187443 229.35875) scale(0.08 -0.08)">
       <use xlink:href="#DejaVuSans-30"/>
       <use xlink:href="#DejaVuSans-2e" transform="translate(63.623047 0)"/>
       <use xlink:href="#DejaVuSans-34" transform="translate(95.410156 0)"/>
      </g>
     </g>
    </g>
    <g id="xtick_16">
     <g id="line2d_76">
      <path d="M 618.635057 216.28 
L 618.635057 67.08 
" clip-path="url(#pc18ce380b2)" style="fill: none; stroke: #d0d0d0; stroke-opacity: 0.7; stroke-width: 0.6; stroke-linecap: square"/>
     </g>
     <g id="line2d_77">
      <g>
       <use xlink:href="#m6f470c1fdb" x="618.635057" y="216.28" style="stroke: #000000; stroke-width: 0.8"/>
      </g>
     </g>
     <g id="text_33">
      <!-- 0.6 -->
      <g transform="translate(612.273807 229.35875) scale(0.08 -0.08)">
       <use xlink:href="#DejaVuSans-30"/>
       <use xlink:href="#DejaVuSans-2e" transform="translate(63.623047 0)"/>
       <use xlink:href="#DejaVuSans-36" transform="translate(95.410156 0)"/>
      </g>
     </g>
    </g>
    <g id="xtick_17">
     <g id="line2d_78">
      <path d="M 656.72142 216.28 
L 656.72142 67.08 
" clip-path="url(#pc18ce380b2)" style="fill: none; stroke: #d0d0d0; stroke-opacity: 0.7; stroke-width: 0.6; stroke-linecap: square"/>
     </g>
     <g id="line2d_79">
      <g>
       <use xlink:href="#m6f470c1fdb" x="656.72142" y="216.28" style="stroke: #000000; stroke-width: 0.8"/>
      </g>
     </g>
     <g id="text_34">
      <!-- 0.8 -->
      <g transform="translate(650.36017 229.35875) scale(0.08 -0.08)">
       <use xlink:href="#DejaVuSans-30"/>
       <use xlink:href="#DejaVuSans-2e" transform="translate(63.623047 0)"/>
       <use xlink:href="#DejaVuSans-38" transform="translate(95.410156 0)"/>
      </g>
     </g>
    </g>
    <g id="xtick_18">
     <g id="line2d_80">
      <path d="M 694.807784 216.28 
L 694.807784 67.08 
" clip-path="url(#pc18ce380b2)" style="fill: none; stroke: #d0d0d0; stroke-opacity: 0.7; stroke-width: 0.6; stroke-linecap: square"/>
     </g>
     <g id="line2d_81">
      <g>
       <use xlink:href="#m6f470c1fdb" x="694.807784" y="216.28" style="stroke: #000000; stroke-width: 0.8"/>
      </g>
     </g>
     <g id="text_35">
      <!-- 1.0 -->
      <g transform="translate(688.446534 229.35875) scale(0.08 -0.08)">
       <use xlink:href="#DejaVuSans-31"/>
       <use xlink:href="#DejaVuSans-2e" transform="translate(63.623047 0)"/>
       <use xlink:href="#DejaVuSans-30" transform="translate(95.410156 0)"/>
      </g>
     </g>
    </g>
    <g id="text_36">
     <!-- normalized time -->
     <g transform="translate(558.923125 242.620938) scale(0.1 -0.1)">
      <use xlink:href="#DejaVuSans-6e"/>
      <use xlink:href="#DejaVuSans-6f" transform="translate(63.378906 0)"/>
      <use xlink:href="#DejaVuSans-72" transform="translate(124.560547 0)"/>
      <use xlink:href="#DejaVuSans-6d" transform="translate(163.923828 0)"/>
      <use xlink:href="#DejaVuSans-61" transform="translate(261.335938 0)"/>
      <use xlink:href="#DejaVuSans-6c" transform="translate(322.615234 0)"/>
      <use xlink:href="#DejaVuSans-69" transform="translate(350.398438 0)"/>
      <use xlink:href="#DejaVuSans-7a" transform="translate(378.181641 0)"/>
      <use xlink:href="#DejaVuSans-65" transform="translate(430.671875 0)"/>
      <use xlink:href="#DejaVuSans-64" transform="translate(492.195312 0)"/>
      <use xlink:href="#DejaVuSans-20" transform="translate(555.671875 0)"/>
      <use xlink:href="#DejaVuSans-74" transform="translate(587.458984 0)"/>
      <use xlink:href="#DejaVuSans-69" transform="translate(626.667969 0)"/>
      <use xlink:href="#DejaVuSans-6d" transform="translate(654.451172 0)"/>
      <use xlink:href="#DejaVuSans-65" transform="translate(751.863281 0)"/>
     </g>
    </g>
   </g>
   <g id="matplotlib.axis_6">
    <g id="ytick_19">
     <g id="line2d_82">
      <path d="M 494.854375 215.027385 
L 704.329375 215.027385 
" clip-path="url(#pc18ce380b2)" style="fill: none; stroke: #d0d0d0; stroke-opacity: 0.7; stroke-width: 0.6; stroke-linecap: square"/>
     </g>
     <g id="line2d_83">
      <g>
       <use xlink:href="#m8f0898b8e5" x="494.854375" y="215.027385" style="stroke: #000000; stroke-width: 0.8"/>
      </g>
     </g>
    </g>
    <g id="ytick_20">
     <g id="line2d_84">
      <path d="M 494.854375 197.53459 
L 704.329375 197.53459 
" clip-path="url(#pc18ce380b2)" style="fill: none; stroke: #d0d0d0; stroke-opacity: 0.7; stroke-width: 0.6; stroke-linecap: square"/>
     </g>
     <g id="line2d_85">
      <g>
       <use xlink:href="#m8f0898b8e5" x="494.854375" y="197.53459" style="stroke: #000000; stroke-width: 0.8"/>
      </g>
     </g>
    </g>
    <g id="ytick_21">
     <g id="line2d_86">
      <path d="M 494.854375 180.041795 
L 704.329375 180.041795 
" clip-path="url(#pc18ce380b2)" style="fill: none; stroke: #d0d0d0; stroke-opacity: 0.7; stroke-width: 0.6; stroke-linecap: square"/>
     </g>
     <g id="line2d_87">
      <g>
       <use xlink:href="#m8f0898b8e5" x="494.854375" y="180.041795" style="stroke: #000000; stroke-width: 0.8"/>
      </g>
     </g>
    </g>
    <g id="ytick_22">
     <g id="line2d_88">
      <path d="M 494.854375 162.548999 
L 704.329375 162.548999 
" clip-path="url(#pc18ce380b2)" style="fill: none; stroke: #d0d0d0; stroke-opacity: 0.7; stroke-width: 0.6; stroke-linecap: square"/>
     </g>
     <g id="line2d_89">
      <g>
       <use xlink:href="#m8f0898b8e5" x="494.854375" y="162.548999" style="stroke: #000000; stroke-width: 0.8"/>
      </g>
     </g>
    </g>
    <g id="ytick_23">
     <g id="line2d_90">
      <path d="M 494.854375 145.056204 
L 704.329375 145.056204 
" clip-path="url(#pc18ce380b2)" style="fill: none; stroke: #d0d0d0; stroke-opacity: 0.7; stroke-width: 0.6; stroke-linecap: square"/>
     </g>
     <g id="line2d_91">
      <g>
       <use xlink:href="#m8f0898b8e5" x="494.854375" y="145.056204" style="stroke: #000000; stroke-width: 0.8"/>
      </g>
     </g>
    </g>
    <g id="ytick_24">
     <g id="line2d_92">
      <path d="M 494.854375 127.563409 
L 704.329375 127.563409 
" clip-path="url(#pc18ce380b2)" style="fill: none; stroke: #d0d0d0; stroke-opacity: 0.7; stroke-width: 0.6; stroke-linecap: square"/>
     </g>
     <g id="line2d_93">
      <g>
       <use xlink:href="#m8f0898b8e5" x="494.854375" y="127.563409" style="stroke: #000000; stroke-width: 0.8"/>
      </g>
     </g>
    </g>
    <g id="ytick_25">
     <g id="line2d_94">
      <path d="M 494.854375 110.070614 
L 704.329375 110.070614 
" clip-path="url(#pc18ce380b2)" style="fill: none; stroke: #d0d0d0; stroke-opacity: 0.7; stroke-width: 0.6; stroke-linecap: square"/>
     </g>
     <g id="line2d_95">
      <g>
       <use xlink:href="#m8f0898b8e5" x="494.854375" y="110.070614" style="stroke: #000000; stroke-width: 0.8"/>
      </g>
     </g>
    </g>
    <g id="ytick_26">
     <g id="line2d_96">
      <path d="M 494.854375 92.577819 
L 704.329375 92.577819 
" clip-path="url(#pc18ce380b2)" style="fill: none; stroke: #d0d0d0; stroke-opacity: 0.7; stroke-width: 0.6; stroke-linecap: square"/>
     </g>
     <g id="line2d_97">
      <g>
       <use xlink:href="#m8f0898b8e5" x="494.854375" y="92.577819" style="stroke: #000000; stroke-width: 0.8"/>
      </g>
     </g>
    </g>
    <g id="ytick_27">
     <g id="line2d_98">
      <path d="M 494.854375 75.085023 
L 704.329375 75.085023 
" clip-path="url(#pc18ce380b2)" style="fill: none; stroke: #d0d0d0; stroke-opacity: 0.7; stroke-width: 0.6; stroke-linecap: square"/>
     </g>
     <g id="line2d_99">
      <g>
       <use xlink:href="#m8f0898b8e5" x="494.854375" y="75.085023" style="stroke: #000000; stroke-width: 0.8"/>
      </g>
     </g>
    </g>
   </g>
   <g id="line2d_100">
    <path d="M 504.375966 122.322591 
L 505.976233 119.431223 
L 507.576501 116.637076 
L 509.176768 113.96299 
L 510.777035 111.43113 
L 512.377303 109.062759 
L 513.97757 106.878014 
L 515.577838 104.895703 
L 517.178105 103.133104 
L 518.778372 101.605786 
L 520.37864 100.327445 
L 521.978907 99.309759 
L 523.579174 98.562261 
L 525.179442 98.092239 
L 526.779709 97.904654 
L 528.379977 98.002081 
L 529.980244 98.384683 
L 531.580511 99.050198 
L 533.180779 99.993959 
L 534.781046 101.208938 
L 536.381314 102.685808 
L 537.981581 104.41304 
L 539.581848 106.377008 
L 541.182116 108.562129 
L 542.782383 110.951015 
L 544.38265 113.524644 
L 545.982918 116.262553 
L 547.583185 119.143034 
L 549.183453 122.143358 
L 550.78372 125.239994 
L 552.383987 128.408842 
L 553.984255 131.625475 
L 555.584522 134.865373 
L 557.184789 138.104167 
L 558.785057 141.317873 
L 560.385324 144.483126 
L 561.985592 147.577403 
L 563.585859 150.579234 
L 565.186126 153.468405 
L 566.786394 156.226147 
L 568.386661 158.835298 
L 569.986928 161.280464 
L 571.587196 163.548144 
L 573.187463 165.626841 
L 574.787731 167.507151 
L 576.387998 169.181829 
L 577.988265 170.645824 
L 579.588533 171.896303 
L 581.1888 172.932636 
L 582.789068 173.756368 
L 584.389335 174.371163 
L 585.989602 174.782723 
L 587.58987 174.998691 
L 589.190137 175.028527 
L 590.790404 174.883368 
L 592.390672 174.575873 
L 593.990939 174.120043 
L 595.591207 173.531041 
L 597.191474 172.824987 
L 598.791741 172.018752 
L 600.392009 171.129745 
L 601.992276 170.175689 
L 603.592543 169.174405 
L 605.192811 168.143587 
L 606.793078 167.100586 
L 608.393346 166.062201 
L 609.993613 165.044472 
L 611.59388 164.062488 
L 613.194148 163.130207 
L 614.794415 162.26029 
L 616.394682 161.46395 
L 617.99495 160.750824 
L 619.595217 160.128859 
L 621.195485 159.604221 
L 622.795752 159.181229 
L 624.396019 158.862307 
L 625.996287 158.647964 
L 627.596554 158.53679 
L 629.196822 158.525486 
L 630.797089 158.608907 
L 632.397356 158.780135 
L 633.997624 159.030568 
L 635.597891 159.350037 
L 637.198158 159.726932 
L 638.798426 160.148356 
L 640.398693 160.600289 
L 641.998961 161.067771 
L 643.599228 161.535089 
L 645.199495 161.985986 
L 646.799763 162.403864 
L 648.40003 162.772007 
L 650.000297 163.073791 
L 651.600565 163.292908 
L 653.200832 163.413577 
L 654.8011 163.420762 
L 656.401367 163.300366 
L 658.001634 163.039434 
L 659.601902 162.62633 
L 661.202169 162.050908 
L 662.802436 161.304663 
L 664.402704 160.380863 
L 666.002971 159.274668 
L 667.603239 157.983223 
L 669.203506 156.505729 
L 670.803773 154.843492 
L 672.404041 152.999949 
L 674.004308 150.980673 
L 675.604576 148.793345 
L 677.204843 146.447713 
L 678.80511 143.955516 
L 680.405378 141.3304 
L 682.005645 138.587796 
L 683.605912 135.744786 
L 685.20618 132.819951 
L 686.806447 129.833197 
L 688.406715 126.805565 
L 690.006982 123.759033 
L 691.607249 120.716295 
L 693.207517 117.700545 
L 694.807784 114.735241 
" clip-path="url(#pc18ce380b2)" style="fill: none; stroke: #000000; stroke-width: 2; stroke-linecap: square"/>
   </g>
   <g id="line2d_101">
    <path d="M 504.375966 132.519239 
L 505.976233 126.011679 
L 507.576501 112.866613 
L 509.176768 89.214913 
L 510.777035 99.220195 
L 512.377303 88.162754 
L 513.97757 106.571962 
L 515.577838 89.75231 
L 517.178105 124.332384 
L 518.778372 95.351128 
L 520.37864 126.485519 
L 521.978907 84.194464 
L 523.579174 92.741465 
L 525.179442 83.730946 
L 526.779709 92.998667 
L 528.379977 104.261466 
L 529.980244 107.670584 
L 531.580511 96.719449 
L 533.180779 81.406866 
L 534.781046 93.417982 
L 536.381314 109.391629 
L 537.981581 111.443767 
L 539.581848 115.12059 
L 541.182116 111.16855 
L 542.782383 112.048451 
L 544.38265 119.475687 
L 545.982918 116.121772 
L 547.583185 138.658617 
L 549.183453 102.707233 
L 550.78372 122.115885 
L 552.383987 109.40138 
L 553.984255 127.943825 
L 555.584522 137.190264 
L 557.184789 136.916685 
L 558.785057 138.440709 
L 560.385324 152.534086 
L 561.985592 152.119274 
L 563.585859 126.728508 
L 565.186126 141.652329 
L 566.786394 162.452233 
L 568.386661 152.14897 
L 569.986928 171.41724 
L 571.587196 145.932632 
L 573.187463 177.878158 
L 574.787731 156.174527 
L 576.387998 168.57785 
L 577.988265 169.931508 
L 579.588533 181.648101 
L 581.1888 175.837976 
L 582.789068 182.896049 
L 584.389335 184.750754 
L 585.989602 168.779827 
L 587.58987 143.605462 
L 589.190137 178.968382 
L 590.790404 162.219567 
L 592.390672 174.439508 
L 593.990939 182.655947 
L 595.591207 156.650433 
L 597.191474 164.674392 
L 598.791741 157.630686 
L 600.392009 169.405362 
L 601.992276 168.070764 
L 603.592543 178.974154 
L 605.192811 171.13305 
L 606.793078 146.005614 
L 608.393346 193.899901 
L 609.993613 159.913423 
L 611.59388 145.566069 
L 613.194148 152.899355 
L 614.794415 151.017306 
L 616.394682 164.362267 
L 617.99495 146.412512 
L 619.595217 145.447431 
L 621.195485 159.663957 
L 622.795752 138.075831 
L 624.396019 164.433051 
L 625.996287 188.826478 
L 627.596554 158.242856 
L 629.196822 159.493656 
L 630.797089 168.676345 
L 632.397356 164.023648 
L 633.997624 165.255691 
L 635.597891 181.490293 
L 637.198158 144.110576 
L 638.798426 159.663996 
L 640.398693 127.059039 
L 641.998961 160.834457 
L 643.599228 156.230336 
L 645.199495 180.192754 
L 646.799763 149.454894 
L 648.40003 175.798984 
L 650.000297 156.028364 
L 651.600565 151.490966 
L 653.200832 153.601499 
L 654.8011 173.290267 
L 656.401367 172.798545 
L 658.001634 153.320325 
L 659.601902 147.650164 
L 661.202169 143.840058 
L 662.802436 161.272326 
L 664.402704 161.303291 
L 666.002971 136.805633 
L 667.603239 164.912568 
L 669.203506 146.772466 
L 670.803773 158.334269 
L 672.404041 170.186365 
L 674.004308 164.394351 
L 675.604576 142.885877 
L 677.204843 143.403787 
L 678.80511 137.564623 
L 680.405378 145.33739 
L 682.005645 144.455878 
L 683.605912 131.93846 
L 685.20618 134.778698 
L 686.806447 149.307267 
L 688.406715 131.874354 
L 690.006982 102.61413 
L 691.607249 129.847423 
L 693.207517 110.670608 
L 694.807784 115.487263 
" clip-path="url(#pc18ce380b2)" style="fill: none; stroke: #7f7f7f; stroke-opacity: 0.7; stroke-linecap: square"/>
   </g>
   <g id="line2d_102">
    <path d="M 504.375966 126.299824 
L 505.976233 120.280703 
L 507.576501 111.504792 
L 509.176768 111.944249 
L 510.777035 106.193488 
L 512.377303 105.934464 
L 513.97757 99.767408 
L 515.577838 110.023622 
L 517.178105 111.675675 
L 518.778372 101.648125 
L 520.37864 100.526876 
L 521.978907 96.324936 
L 523.579174 99.001164 
L 525.179442 102.262659 
L 526.779709 98.221169 
L 528.379977 104.54977 
L 529.980244 106.110958 
L 531.580511 99.537301 
L 533.180779 100.905663 
L 534.781046 98.89418 
L 536.381314 105.242572 
L 537.981581 106.801719 
L 539.581848 110.566054 
L 541.182116 110.059955 
L 542.782383 110.850247 
L 544.38265 115.792522 
L 545.982918 113.17431 
L 547.583185 122.474623 
L 549.183453 120.246214 
L 550.78372 127.879307 
L 552.383987 126.758313 
L 553.984255 127.304088 
L 555.584522 140.209647 
L 557.184789 143.051597 
L 558.785057 140.69963 
L 560.385324 150.576492 
L 561.985592 141.686359 
L 563.585859 147.004595 
L 565.186126 158.792985 
L 566.786394 151.184392 
L 568.386661 160.176328 
L 569.986928 163.810568 
L 571.587196 161.372522 
L 573.187463 156.732873 
L 574.787731 164.557793 
L 576.387998 175.206391 
L 577.988265 172.343317 
L 579.588533 165.895302 
L 581.1888 175.878445 
L 582.789068 165.886043 
L 584.389335 169.574381 
L 585.989602 171.380603 
L 587.58987 165.71517 
L 589.190137 167.143837 
L 590.790404 178.164943 
L 592.390672 183.240594 
L 593.990939 169.962666 
L 595.591207 166.606544 
L 597.191474 169.487576 
L 598.791741 170.646043 
L 600.392009 173.889436 
L 601.992276 164.21445 
L 603.592543 161.43882 
L 605.192811 178.539516 
L 606.793078 162.834454 
L 608.393346 178.063566 
L 609.993613 161.275434 
L 611.59388 157.675141 
L 613.194148 161.274379 
L 614.794415 165.472087 
L 616.394682 159.265278 
L 617.99495 162.649372 
L 619.595217 152.257912 
L 621.195485 162.564518 
L 622.795752 152.553244 
L 624.396019 161.854468 
L 625.996287 155.179971 
L 627.596554 154.961539 
L 629.196822 162.580398 
L 630.797089 171.767385 
L 632.397356 156.182531 
L 633.997624 159.440444 
L 635.597891 164.303864 
L 637.198158 158.58958 
L 638.798426 166.506078 
L 640.398693 154.867316 
L 641.998961 160.510838 
L 643.599228 157.593418 
L 645.199495 167.474311 
L 646.799763 161.284187 
L 648.40003 160.201518 
L 650.000297 167.045808 
L 651.600565 156.188559 
L 653.200832 163.895281 
L 654.8011 162.482472 
L 656.401367 161.908528 
L 658.001634 158.850537 
L 659.601902 156.913787 
L 661.202169 159.272327 
L 662.802436 163.589663 
L 664.402704 169.674228 
L 666.002971 155.202604 
L 667.603239 152.618565 
L 669.203506 152.881244 
L 670.803773 148.109432 
L 672.404041 161.767268 
L 674.004308 151.711924 
L 675.604576 144.043178 
L 677.204843 153.87729 
L 678.80511 145.905038 
L 680.405378 144.082511 
L 682.005645 133.770042 
L 683.605912 135.091512 
L 685.20618 131.508337 
L 686.806447 135.243176 
L 688.406715 131.882015 
L 690.006982 122.394737 
L 691.607249 121.50881 
L 693.207517 116.201944 
L 694.807784 116.064472 
" clip-path="url(#pc18ce380b2)" style="fill: none; stroke: #d62728; stroke-width: 2; stroke-linecap: square"/>
   </g>
   <g id="patch_10">
    <path d="M 494.854375 216.28 
L 494.854375 67.08 
" style="fill: none; stroke: #555555; stroke-width: 0.8; stroke-linejoin: miter; stroke-linecap: square"/>
   </g>
   <g id="patch_11">
    <path d="M 494.854375 216.28 
L 704.329375 216.28 
" style="fill: none; stroke: #555555; stroke-width: 0.8; stroke-linejoin: miter; stroke-linecap: square"/>
   </g>
   <g id="text_37">
    <!-- sample 20 -->
    <g transform="translate(568.235312 61.08) scale(0.12 -0.12)">
     <use xlink:href="#DejaVuSans-73"/>
     <use xlink:href="#DejaVuSans-61" transform="translate(52.099609 0)"/>
     <use xlink:href="#DejaVuSans-6d" transform="translate(113.378906 0)"/>
     <use xlink:href="#DejaVuSans-70" transform="translate(210.791016 0)"/>
     <use xlink:href="#DejaVuSans-6c" transform="translate(274.267578 0)"/>
     <use xlink:href="#DejaVuSans-65" transform="translate(302.050781 0)"/>
     <use xlink:href="#DejaVuSans-20" transform="translate(363.574219 0)"/>
     <use xlink:href="#DejaVuSans-32" transform="translate(395.361328 0)"/>
     <use xlink:href="#DejaVuSans-30" transform="translate(458.984375 0)"/>
    </g>
   </g>
  </g>
  <g id="text_38">
   <!-- Denoising by reconstructing from a low-dimensional PCA subspace -->
   <g transform="translate(154.369375 16.318125) scale(0.12 -0.12)">
    <defs>
     <path id="DejaVuSans-44" d="M 1259 4147 
L 1259 519 
L 2022 519 
Q 2988 519 3436 956 
Q 3884 1394 3884 2338 
Q 3884 3275 3436 3711 
Q 2988 4147 2022 4147 
L 1259 4147 
z
M 628 4666 
L 1925 4666 
Q 3281 4666 3915 4102 
Q 4550 3538 4550 2338 
Q 4550 1131 3912 565 
Q 3275 0 1925 0 
L 628 0 
L 628 4666 
z
" transform="scale(0.015625)"/>
     <path id="DejaVuSans-62" d="M 3116 1747 
Q 3116 2381 2855 2742 
Q 2594 3103 2138 3103 
Q 1681 3103 1420 2742 
Q 1159 2381 1159 1747 
Q 1159 1113 1420 752 
Q 1681 391 2138 391 
Q 2594 391 2855 752 
Q 3116 1113 3116 1747 
z
M 1159 2969 
Q 1341 3281 1617 3432 
Q 1894 3584 2278 3584 
Q 2916 3584 3314 3078 
Q 3713 2572 3713 1747 
Q 3713 922 3314 415 
Q 2916 -91 2278 -91 
Q 1894 -91 1617 61 
Q 1341 213 1159 525 
L 1159 0 
L 581 0 
L 581 4863 
L 1159 4863 
L 1159 2969 
z
" transform="scale(0.015625)"/>
     <path id="DejaVuSans-66" d="M 2375 4863 
L 2375 4384 
L 1825 4384 
Q 1516 4384 1395 4259 
Q 1275 4134 1275 3809 
L 1275 3500 
L 2222 3500 
L 2222 3053 
L 1275 3053 
L 1275 0 
L 697 0 
L 697 3053 
L 147 3053 
L 147 3500 
L 697 3500 
L 697 3744 
Q 697 4328 969 4595 
Q 1241 4863 1831 4863 
L 2375 4863 
z
" transform="scale(0.015625)"/>
     <path id="DejaVuSans-77" d="M 269 3500 
L 844 3500 
L 1563 769 
L 2278 3500 
L 2956 3500 
L 3675 769 
L 4391 3500 
L 4966 3500 
L 4050 0 
L 3372 0 
L 2619 2869 
L 1863 0 
L 1184 0 
L 269 3500 
z
" transform="scale(0.015625)"/>
     <path id="DejaVuSans-2d" d="M 313 2009 
L 1997 2009 
L 1997 1497 
L 313 1497 
L 313 2009 
z
" transform="scale(0.015625)"/>
    </defs>
    <use xlink:href="#DejaVuSans-44"/>
    <use xlink:href="#DejaVuSans-65" transform="translate(77.001953 0)"/>
    <use xlink:href="#DejaVuSans-6e" transform="translate(138.525391 0)"/>
    <use xlink:href="#DejaVuSans-6f" transform="translate(201.904297 0)"/>
    <use xlink:href="#DejaVuSans-69" transform="translate(263.085938 0)"/>
    <use xlink:href="#DejaVuSans-73" transform="translate(290.869141 0)"/>
    <use xlink:href="#DejaVuSans-69" transform="translate(342.96875 0)"/>
    <use xlink:href="#DejaVuSans-6e" transform="translate(370.751953 0)"/>
    <use xlink:href="#DejaVuSans-67" transform="translate(434.130859 0)"/>
    <use xlink:href="#DejaVuSans-20" transform="translate(497.607422 0)"/>
    <use xlink:href="#DejaVuSans-62" transform="translate(529.394531 0)"/>
    <use xlink:href="#DejaVuSans-79" transform="translate(592.871094 0)"/>
    <use xlink:href="#DejaVuSans-20" transform="translate(652.050781 0)"/>
    <use xlink:href="#DejaVuSans-72" transform="translate(683.837891 0)"/>
    <use xlink:href="#DejaVuSans-65" transform="translate(722.701172 0)"/>
    <use xlink:href="#DejaVuSans-63" transform="translate(784.224609 0)"/>
    <use xlink:href="#DejaVuSans-6f" transform="translate(839.205078 0)"/>
    <use xlink:href="#DejaVuSans-6e" transform="translate(900.386719 0)"/>
    <use xlink:href="#DejaVuSans-73" transform="translate(963.765625 0)"/>
    <use xlink:href="#DejaVuSans-74" transform="translate(1015.865234 0)"/>
    <use xlink:href="#DejaVuSans-72" transform="translate(1055.074219 0)"/>
    <use xlink:href="#DejaVuSans-75" transform="translate(1096.1875 0)"/>
    <use xlink:href="#DejaVuSans-63" transform="translate(1159.566406 0)"/>
    <use xlink:href="#DejaVuSans-74" transform="translate(1214.546875 0)"/>
    <use xlink:href="#DejaVuSans-69" transform="translate(1253.755859 0)"/>
    <use xlink:href="#DejaVuSans-6e" transform="translate(1281.539062 0)"/>
    <use xlink:href="#DejaVuSans-67" transform="translate(1344.917969 0)"/>
    <use xlink:href="#DejaVuSans-20" transform="translate(1408.394531 0)"/>
    <use xlink:href="#DejaVuSans-66" transform="translate(1440.181641 0)"/>
    <use xlink:href="#DejaVuSans-72" transform="translate(1475.386719 0)"/>
    <use xlink:href="#DejaVuSans-6f" transform="translate(1514.25 0)"/>
    <use xlink:href="#DejaVuSans-6d" transform="translate(1575.431641 0)"/>
    <use xlink:href="#DejaVuSans-20" transform="translate(1672.84375 0)"/>
    <use xlink:href="#DejaVuSans-61" transform="translate(1704.630859 0)"/>
    <use xlink:href="#DejaVuSans-20" transform="translate(1765.910156 0)"/>
    <use xlink:href="#DejaVuSans-6c" transform="translate(1797.697266 0)"/>
    <use xlink:href="#DejaVuSans-6f" transform="translate(1825.480469 0)"/>
    <use xlink:href="#DejaVuSans-77" transform="translate(1886.662109 0)"/>
    <use xlink:href="#DejaVuSans-2d" transform="translate(1968.449219 0)"/>
    <use xlink:href="#DejaVuSans-64" transform="translate(2004.533203 0)"/>
    <use xlink:href="#DejaVuSans-69" transform="translate(2068.009766 0)"/>
    <use xlink:href="#DejaVuSans-6d" transform="translate(2095.792969 0)"/>
    <use xlink:href="#DejaVuSans-65" transform="translate(2193.205078 0)"/>
    <use xlink:href="#DejaVuSans-6e" transform="translate(2254.728516 0)"/>
    <use xlink:href="#DejaVuSans-73" transform="translate(2318.107422 0)"/>
    <use xlink:href="#DejaVuSans-69" transform="translate(2370.207031 0)"/>
    <use xlink:href="#DejaVuSans-6f" transform="translate(2397.990234 0)"/>
    <use xlink:href="#DejaVuSans-6e" transform="translate(2459.171875 0)"/>
    <use xlink:href="#DejaVuSans-61" transform="translate(2522.550781 0)"/>
    <use xlink:href="#DejaVuSans-6c" transform="translate(2583.830078 0)"/>
    <use xlink:href="#DejaVuSans-20" transform="translate(2611.613281 0)"/>
    <use xlink:href="#DejaVuSans-50" transform="translate(2643.400391 0)"/>
    <use xlink:href="#DejaVuSans-43" transform="translate(2703.703125 0)"/>
    <use xlink:href="#DejaVuSans-41" transform="translate(2773.527344 0)"/>
    <use xlink:href="#DejaVuSans-20" transform="translate(2841.935547 0)"/>
    <use xlink:href="#DejaVuSans-73" transform="translate(2873.722656 0)"/>
    <use xlink:href="#DejaVuSans-75" transform="translate(2925.822266 0)"/>
    <use xlink:href="#DejaVuSans-62" transform="translate(2989.201172 0)"/>
    <use xlink:href="#DejaVuSans-73" transform="translate(3052.677734 0)"/>
    <use xlink:href="#DejaVuSans-70" transform="translate(3104.777344 0)"/>
    <use xlink:href="#DejaVuSans-61" transform="translate(3168.253906 0)"/>
    <use xlink:href="#DejaVuSans-63" transform="translate(3229.533203 0)"/>
    <use xlink:href="#DejaVuSans-65" transform="translate(3284.513672 0)"/>
   </g>
  </g>
 </g>
 <defs>
  <clipPath id="p4e254d4bd7">
   <rect x="47.304375" y="67.08" width="209.475" height="149.2"/>
  </clipPath>
  <clipPath id="p92bdcf4f74">
   <rect x="271.079375" y="67.08" width="209.475" height="149.2"/>
  </clipPath>
  <clipPath id="pc18ce380b2">
   <rect x="494.854375" y="67.08" width="209.475" height="149.2"/>
  </clipPath>
 </defs>
</svg>
