<?xml version="1.0" encoding="utf-8" standalone="no"?>
<!DOCTYPE svg PUBLIC "-//W3C//DTD SVG 1.1//EN"
  "http://www.w3.org/Graphics/SVG/1.1/DTD/svg11.dtd">
<svg xmlns:xlink="http://www.w3.org/1999/xlink" width="626.4pt" height="309.6pt" viewBox="0 0 626.4 309.6" xmlns="http://www.w3.org/2000/svg" version="1.1">
 <metadata>
  <rdf:RDF xmlns:dc="http://purl.org/dc/elements/1.1/" xmlns:cc="http://creativecommons.org/ns#" xmlns:rdf="http://www.w3.org/1999/02/22-rdf-syntax-ns#">
   <cc:Work>
    <dc:type rdf:resource="http://purl.org/dc/dcmitype/StillImage"/>
    <dc:date>2026-06-30T22:52:54.576585</dc:date>
    <dc:format>image/svg+xml</dc:format>
    <dc:creator>
     <cc:Agent>
      <dc:title>Matplotlib v3.10.8, https://matplotlib.org/</dc:title>
     </cc:Agent>
    </dc:creator>
   </cc:Work>
  </rdf:RDF>
 </metadata>
 <defs>
  <style type="text/css">*{stroke-linejoin: round; stroke-linecap: butt}</style>
 </defs>
 <g id="figure_1">
  <g id="patch_1">
   <path d="M 0 309.6 
L 626.4 309.6 
L 626.4 0 
L 0 0 
z
" style="fill: #ffffff"/>
  </g>
  <g id="axes_1">
   <g id="patch_2">
    <path d="M 16.125 189.687273 
L 176.775 189.687273 
Q 180.6 189.687273 180.6 185.661818 
L 180.6 123.938182 
Q 180.6 119.912727 176.775 119.912727 
L 16.125 119.912727 
Q 12.3 119.912727 12.3 123.938182 
L 12.3 185.661818 
Q 12.3 189.687273 16.125 189.687273 
z
" clip-path="url(#pa954740c4c)" style="fill: #d9edf7; stroke: #555555; stroke-width: 1.2; stroke-linejoin: miter"/>
   </g>
   <g id="patch_3">
    <path d="M 236.0625 189.687273 
L 390.3375 189.687273 
Q 394.1625 189.687273 394.1625 185.661818 
L 394.1625 123.938182 
Q 394.1625 119.912727 390.3375 119.912727 
L 236.0625 119.912727 
Q 232.2375 119.912727 232.2375 123.938182 
L 232.2375 185.661818 
Q 232.2375 189.687273 236.0625 189.687273 
z
" clip-path="url(#pa954740c4c)" style="fill: #fff2cc; stroke: #555555; stroke-width: 1.2; stroke-linejoin: miter"/>
   </g>
   <g id="patch_4">
    <path d="M 449.625 189.687273 
L 610.275 189.687273 
Q 614.1 189.687273 614.1 185.661818 
L 614.1 123.938182 
Q 614.1 119.912727 610.275 119.912727 
L 449.625 119.912727 
Q 445.8 119.912727 445.8 123.938182 
L 445.8 185.661818 
Q 445.8 189.687273 449.625 189.687273 
z
" clip-path="url(#pa954740c4c)" style="fill: #dff0d8; stroke: #555555; stroke-width: 1.2; stroke-linejoin: miter"/>
   </g>
   <g id="patch_5">
    <path d="M 184.514415 154.8 
Q 204.825678 154.8 223.571694 154.8 
" clip-path="url(#pa954740c4c)" style="fill: none; stroke: #555555; stroke-width: 1.4; stroke-linecap: round"/>
    <path d="M 218.771694 152.4 
L 223.571694 154.8 
L 218.771694 157.2 
z
" clip-path="url(#pa954740c4c)" style="fill: #555555; stroke: #555555; stroke-width: 1.4; stroke-linecap: round"/>
   </g>
   <g id="patch_6">
    <path d="M 401.264415 154.8 
Q 421.575678 154.8 440.321694 154.8 
" clip-path="url(#pa954740c4c)" style="fill: none; stroke: #555555; stroke-width: 1.4; stroke-linecap: round"/>
    <path d="M 435.521694 152.4 
L 440.321694 154.8 
L 435.521694 157.2 
z
" clip-path="url(#pa954740c4c)" style="fill: #555555; stroke: #555555; stroke-width: 1.4; stroke-linecap: round"/>
   </g>
   <g id="text_1">
    <!-- High-dimensional -->
    <g transform="translate(52.8 146.361562) scale(0.1 -0.1)">
     <defs>
      <path id="DejaVuSans-48" d="M 628 4666 
L 1259 4666 
L 1259 2753 
L 3553 2753 
L 3553 4666 
L 4184 4666 
L 4184 0 
L 3553 0 
L 3553 2222 
L 1259 2222 
L 1259 0 
L 628 0 
L 628 4666 
z
" transform="scale(0.015625)"/>
      <path id="DejaVuSans-69" d="M 603 3500 
L 1178 3500 
L 1178 0 
L 603 0 
L 603 3500 
z
M 603 4863 
L 1178 4863 
L 1178 4134 
L 603 4134 
L 603 4863 
z
" transform="scale(0.015625)"/>
      <path id="DejaVuSans-67" d="M 2906 1791 
Q 2906 2416 2648 2759 
Q 2391 3103 1925 3103 
Q 1463 3103 1205 2759 
Q 947 2416 947 1791 
Q 947 1169 1205 825 
Q 1463 481 1925 481 
Q 2391 481 2648 825 
Q 2906 1169 2906 1791 
z
M 3481 434 
Q 3481 -459 3084 -895 
Q 2688 -1331 1869 -1331 
Q 1566 -1331 1297 -1286 
Q 1028 -1241 775 -1147 
L 775 -588 
Q 1028 -725 1275 -790 
Q 1522 -856 1778 -856 
Q 2344 -856 2625 -561 
Q 2906 -266 2906 331 
L 2906 616 
Q 2728 306 2450 153 
Q 2172 0 1784 0 
Q 1141 0 747 490 
Q 353 981 353 1791 
Q 353 2603 747 3093 
Q 1141 3584 1784 3584 
Q 2172 3584 2450 3431 
Q 2728 3278 2906 2969 
L 2906 3500 
L 3481 3500 
L 3481 434 
z
" transform="scale(0.015625)"/>
      <path id="DejaVuSans-68" d="M 3513 2113 
L 3513 0 
L 2938 0 
L 2938 2094 
Q 2938 2591 2744 2837 
Q 2550 3084 2163 3084 
Q 1697 3084 1428 2787 
Q 1159 2491 1159 1978 
L 1159 0 
L 581 0 
L 581 4863 
L 1159 4863 
L 1159 2956 
Q 1366 3272 1645 3428 
Q 1925 3584 2291 3584 
Q 2894 3584 3203 3211 
Q 3513 2838 3513 2113 
z
" transform="scale(0.015625)"/>
      <path id="DejaVuSans-2d" d="M 313 2009 
L 1997 2009 
L 1997 1497 
L 313 1497 
L 313 2009 
z
" transform="scale(0.015625)"/>
      <path id="DejaVuSans-64" d="M 2906 2969 
L 2906 4863 
L 3481 4863 
L 3481 0 
L 2906 0 
L 2906 525 
Q 2725 213 2448 61 
Q 2172 -91 1784 -91 
Q 1150 -91 751 415 
Q 353 922 353 1747 
Q 353 2572 751 3078 
Q 1150 3584 1784 3584 
Q 2172 3584 2448 3432 
Q 2725 3281 2906 2969 
z
M 947 1747 
Q 947 1113 1208 752 
Q 1469 391 1925 391 
Q 2381 391 2643 752 
Q 2906 1113 2906 1747 
Q 2906 2381 2643 2742 
Q 2381 3103 1925 3103 
Q 1469 3103 1208 2742 
Q 947 2381 947 1747 
z
" transform="scale(0.015625)"/>
      <path id="DejaVuSans-6d" d="M 3328 2828 
Q 3544 3216 3844 3400 
Q 4144 3584 4550 3584 
Q 5097 3584 5394 3201 
Q 5691 2819 5691 2113 
L 5691 0 
L 5113 0 
L 5113 2094 
Q 5113 2597 4934 2840 
Q 4756 3084 4391 3084 
Q 3944 3084 3684 2787 
Q 3425 2491 3425 1978 
L 3425 0 
L 2847 0 
L 2847 2094 
Q 2847 2600 2669 2842 
Q 2491 3084 2119 3084 
Q 1678 3084 1418 2786 
Q 1159 2488 1159 1978 
L 1159 0 
L 581 0 
L 581 3500 
L 1159 3500 
L 1159 2956 
Q 1356 3278 1631 3431 
Q 1906 3584 2284 3584 
Q 2666 3584 2933 3390 
Q 3200 3197 3328 2828 
z
" transform="scale(0.015625)"/>
      <path id="DejaVuSans-65" d="M 3597 1894 
L 3597 1613 
L 953 1613 
Q 991 1019 1311 708 
Q 1631 397 2203 397 
Q 2534 397 2845 478 
Q 3156 559 3463 722 
L 3463 178 
Q 3153 47 2828 -22 
Q 2503 -91 2169 -91 
Q 1331 -91 842 396 
Q 353 884 353 1716 
Q 353 2575 817 3079 
Q 1281 3584 2069 3584 
Q 2775 3584 3186 3129 
Q 3597 2675 3597 1894 
z
M 3022 2063 
Q 3016 2534 2758 2815 
Q 2500 3097 2075 3097 
Q 1594 3097 1305 2825 
Q 1016 2553 972 2059 
L 3022 2063 
z
" transform="scale(0.015625)"/>
      <path id="DejaVuSans-6e" d="M 3513 2113 
L 3513 0 
L 2938 0 
L 2938 2094 
Q 2938 2591 2744 2837 
Q 2550 3084 2163 3084 
Q 1697 3084 1428 2787 
Q 1159 2491 1159 1978 
L 1159 0 
L 581 0 
L 581 3500 
L 1159 3500 
L 1159 2956 
Q 1366 3272 1645 3428 
Q 1925 3584 2291 3584 
Q 2894 3584 3203 3211 
Q 3513 2838 3513 2113 
z
" transform="scale(0.015625)"/>
      <path id="DejaVuSans-73" d="M 2834 3397 
L 2834 2853 
Q 2591 2978 2328 3040 
Q 2066 3103 1784 3103 
Q 1356 3103 1142 2972 
Q 928 2841 928 2578 
Q 928 2378 1081 2264 
Q 1234 2150 1697 2047 
L 1894 2003 
Q 2506 1872 2764 1633 
Q 3022 1394 3022 966 
Q 3022 478 2636 193 
Q 2250 -91 1575 -91 
Q 1294 -91 989 -36 
Q 684 19 347 128 
L 347 722 
Q 666 556 975 473 
Q 1284 391 1588 391 
Q 1994 391 2212 530 
Q 2431 669 2431 922 
Q 2431 1156 2273 1281 
Q 2116 1406 1581 1522 
L 1381 1569 
Q 847 1681 609 1914 
Q 372 2147 372 2553 
Q 372 3047 722 3315 
Q 1072 3584 1716 3584 
Q 2034 3584 2315 3537 
Q 2597 3491 2834 3397 
z
" transform="scale(0.015625)"/>
      <path id="DejaVuSans-6f" d="M 1959 3097 
Q 1497 3097 1228 2736 
Q 959 2375 959 1747 
Q 959 1119 1226 758 
Q 1494 397 1959 397 
Q 2419 397 2687 759 
Q 2956 1122 2956 1747 
Q 2956 2369 2687 2733 
Q 2419 3097 1959 3097 
z
M 1959 3584 
Q 2709 3584 3137 3096 
Q 3566 2609 3566 1747 
Q 3566 888 3137 398 
Q 2709 -91 1959 -91 
Q 1206 -91 779 398 
Q 353 888 353 1747 
Q 353 2609 779 3096 
Q 1206 3584 1959 3584 
z
" transform="scale(0.015625)"/>
      <path id="DejaVuSans-61" d="M 2194 1759 
Q 1497 1759 1228 1600 
Q 959 1441 959 1056 
Q 959 750 1161 570 
Q 1363 391 1709 391 
Q 2188 391 2477 730 
Q 2766 1069 2766 1631 
L 2766 1759 
L 2194 1759 
z
M 3341 1997 
L 3341 0 
L 2766 0 
L 2766 531 
Q 2569 213 2275 61 
Q 1981 -91 1556 -91 
Q 1019 -91 701 211 
Q 384 513 384 1019 
Q 384 1609 779 1909 
Q 1175 2209 1959 2209 
L 2766 2209 
L 2766 2266 
Q 2766 2663 2505 2880 
Q 2244 3097 1772 3097 
Q 1472 3097 1187 3025 
Q 903 2953 641 2809 
L 641 3341 
Q 956 3463 1253 3523 
Q 1550 3584 1831 3584 
Q 2591 3584 2966 3190 
Q 3341 2797 3341 1997 
z
" transform="scale(0.015625)"/>
      <path id="DejaVuSans-6c" d="M 603 4863 
L 1178 4863 
L 1178 0 
L 603 0 
L 603 4863 
z
" transform="scale(0.015625)"/>
     </defs>
     <use xlink:href="#DejaVuSans-48"/>
     <use xlink:href="#DejaVuSans-69" transform="translate(75.195312 0)"/>
     <use xlink:href="#DejaVuSans-67" transform="translate(102.978516 0)"/>
     <use xlink:href="#DejaVuSans-68" transform="translate(166.455078 0)"/>
     <use xlink:href="#DejaVuSans-2d" transform="translate(229.833984 0)"/>
     <use xlink:href="#DejaVuSans-64" transform="translate(265.917969 0)"/>
     <use xlink:href="#DejaVuSans-69" transform="translate(329.394531 0)"/>
     <use xlink:href="#DejaVuSans-6d" transform="translate(357.177734 0)"/>
     <use xlink:href="#DejaVuSans-65" transform="translate(454.589844 0)"/>
     <use xlink:href="#DejaVuSans-6e" transform="translate(516.113281 0)"/>
     <use xlink:href="#DejaVuSans-73" transform="translate(579.492188 0)"/>
     <use xlink:href="#DejaVuSans-69" transform="translate(631.591797 0)"/>
     <use xlink:href="#DejaVuSans-6f" transform="translate(659.375 0)"/>
     <use xlink:href="#DejaVuSans-6e" transform="translate(720.556641 0)"/>
     <use xlink:href="#DejaVuSans-61" transform="translate(783.935547 0)"/>
     <use xlink:href="#DejaVuSans-6c" transform="translate(845.214844 0)"/>
    </g>
    <!-- measurements -->
    <g transform="translate(58.965625 157.559375) scale(0.1 -0.1)">
     <defs>
      <path id="DejaVuSans-75" d="M 544 1381 
L 544 3500 
L 1119 3500 
L 1119 1403 
Q 1119 906 1312 657 
Q 1506 409 1894 409 
Q 2359 409 2629 706 
Q 2900 1003 2900 1516 
L 2900 3500 
L 3475 3500 
L 3475 0 
L 2900 0 
L 2900 538 
Q 2691 219 2414 64 
Q 2138 -91 1772 -91 
Q 1169 -91 856 284 
Q 544 659 544 1381 
z
M 1991 3584 
L 1991 3584 
z
" transform="scale(0.015625)"/>
      <path id="DejaVuSans-72" d="M 2631 2963 
Q 2534 3019 2420 3045 
Q 2306 3072 2169 3072 
Q 1681 3072 1420 2755 
Q 1159 2438 1159 1844 
L 1159 0 
L 581 0 
L 581 3500 
L 1159 3500 
L 1159 2956 
Q 1341 3275 1631 3429 
Q 1922 3584 2338 3584 
Q 2397 3584 2469 3576 
Q 2541 3569 2628 3553 
L 2631 2963 
z
" transform="scale(0.015625)"/>
      <path id="DejaVuSans-74" d="M 1172 4494 
L 1172 3500 
L 2356 3500 
L 2356 3053 
L 1172 3053 
L 1172 1153 
Q 1172 725 1289 603 
Q 1406 481 1766 481 
L 2356 481 
L 2356 0 
L 1766 0 
Q 1100 0 847 248 
Q 594 497 594 1153 
L 594 3053 
L 172 3053 
L 172 3500 
L 594 3500 
L 594 4494 
L 1172 4494 
z
" transform="scale(0.015625)"/>
     </defs>
     <use xlink:href="#DejaVuSans-6d"/>
     <use xlink:href="#DejaVuSans-65" transform="translate(97.412109 0)"/>
     <use xlink:href="#DejaVuSans-61" transform="translate(158.935547 0)"/>
     <use xlink:href="#DejaVuSans-73" transform="translate(220.214844 0)"/>
     <use xlink:href="#DejaVuSans-75" transform="translate(272.314453 0)"/>
     <use xlink:href="#DejaVuSans-72" transform="translate(335.693359 0)"/>
     <use xlink:href="#DejaVuSans-65" transform="translate(374.556641 0)"/>
     <use xlink:href="#DejaVuSans-6d" transform="translate(436.080078 0)"/>
     <use xlink:href="#DejaVuSans-65" transform="translate(533.492188 0)"/>
     <use xlink:href="#DejaVuSans-6e" transform="translate(595.015625 0)"/>
     <use xlink:href="#DejaVuSans-74" transform="translate(658.394531 0)"/>
     <use xlink:href="#DejaVuSans-73" transform="translate(697.603516 0)"/>
    </g>
    <!-- $X\in\mathbb{R}^{m\times d}$ -->
    <g transform="translate(72.9 168.757187) scale(0.1 -0.1)">
     <defs>
      <path id="DejaVuSans-Oblique-58" d="M 878 4666 
L 1516 4666 
L 2316 2981 
L 3763 4666 
L 4500 4666 
L 2578 2438 
L 3738 0 
L 3103 0 
L 2163 1966 
L 459 0 
L -275 0 
L 1906 2509 
L 878 4666 
z
" transform="scale(0.015625)"/>
      <path id="DejaVuSans-2208" d="M 1072 1959 
Q 1094 1728 1291 1353 
Q 1522 919 1959 675 
Q 2388 438 2850 434 
L 5028 434 
L 5028 -63 
L 2850 -63 
Q 2250 -63 1695 246 
Q 1141 556 844 1106 
Q 547 1656 547 2241 
Q 547 2819 844 3369 
Q 1141 3919 1695 4231 
Q 2250 4544 2850 4544 
L 5028 4544 
L 5028 4047 
L 2850 4047 
Q 2388 4044 1959 3803 
Q 1525 3556 1291 3125 
Q 1091 2750 1063 2459 
L 5028 2459 
L 5028 1959 
L 1072 1959 
z
" transform="scale(0.015625)"/>
      <path id="STIXGeneral-Italic-211d" d="M 1229 4179 
L 3360 4179 
Q 3827 4179 4108 3894 
Q 4390 3610 4390 3142 
Q 4390 2554 4060 2186 
Q 3731 1818 3149 1715 
L 4026 0 
L 2925 0 
L 2125 1690 
L 1549 1690 
L 1094 0 
L 109 0 
L 1229 4179 
z
M 3866 3821 
L 3392 2022 
Q 3770 2144 3962 2438 
Q 4154 2733 4154 3136 
Q 4154 3584 3866 3821 
z
M 3142 1978 
L 3648 3872 
Q 3450 3942 3296 3942 
L 2150 3942 
L 1613 1926 
L 2630 1926 
Q 2957 1926 3142 1978 
z
M 3629 237 
L 2899 1696 
Q 2829 1683 2682 1683 
Q 2630 1683 2531 1686 
Q 2432 1690 2387 1690 
L 3072 237 
L 3629 237 
z
M 1907 3942 
L 1408 3942 
L 416 237 
L 915 237 
L 1907 3942 
z
" transform="scale(0.015625)"/>
      <path id="DejaVuSans-Oblique-6d" d="M 5747 2113 
L 5338 0 
L 4763 0 
L 5166 2094 
Q 5191 2228 5203 2325 
Q 5216 2422 5216 2491 
Q 5216 2772 5059 2928 
Q 4903 3084 4622 3084 
Q 4203 3084 3875 2770 
Q 3547 2456 3450 1953 
L 3066 0 
L 2491 0 
L 2900 2094 
Q 2925 2209 2937 2307 
Q 2950 2406 2950 2484 
Q 2950 2769 2794 2926 
Q 2638 3084 2363 3084 
Q 1938 3084 1609 2770 
Q 1281 2456 1184 1953 
L 800 0 
L 225 0 
L 909 3500 
L 1484 3500 
L 1375 2956 
Q 1609 3263 1923 3423 
Q 2238 3584 2597 3584 
Q 2978 3584 3223 3384 
Q 3469 3184 3519 2828 
Q 3781 3197 4126 3390 
Q 4472 3584 4856 3584 
Q 5306 3584 5551 3325 
Q 5797 3066 5797 2591 
Q 5797 2488 5784 2364 
Q 5772 2241 5747 2113 
z
" transform="scale(0.015625)"/>
      <path id="DejaVuSans-d7" d="M 4488 3438 
L 3059 2003 
L 4488 575 
L 4116 197 
L 2681 1631 
L 1247 197 
L 878 575 
L 2303 2003 
L 878 3438 
L 1247 3816 
L 2681 2381 
L 4116 3816 
L 4488 3438 
z
" transform="scale(0.015625)"/>
      <path id="DejaVuSans-Oblique-64" d="M 2675 525 
Q 2444 222 2128 65 
Q 1813 -91 1428 -91 
Q 903 -91 598 267 
Q 294 625 294 1247 
Q 294 1766 478 2236 
Q 663 2706 1013 3078 
Q 1244 3325 1534 3454 
Q 1825 3584 2144 3584 
Q 2481 3584 2739 3421 
Q 2997 3259 3138 2956 
L 3513 4863 
L 4091 4863 
L 3144 0 
L 2566 0 
L 2675 525 
z
M 891 1350 
Q 891 897 1095 644 
Q 1300 391 1663 391 
Q 1931 391 2161 520 
Q 2391 650 2566 903 
Q 2750 1166 2856 1509 
Q 2963 1853 2963 2188 
Q 2963 2622 2758 2865 
Q 2553 3109 2194 3109 
Q 1922 3109 1687 2981 
Q 1453 2853 1288 2613 
Q 1106 2353 998 2009 
Q 891 1666 891 1350 
z
" transform="scale(0.015625)"/>
     </defs>
     <use xlink:href="#DejaVuSans-Oblique-58" transform="translate(0 0.529687)"/>
     <use xlink:href="#DejaVuSans-2208" transform="translate(87.988281 0.529687)"/>
     <use xlink:href="#STIXGeneral-Italic-211d" transform="translate(194.580078 0.529687)"/>
     <use xlink:href="#DejaVuSans-Oblique-6d" transform="translate(269.231518 38.810937) scale(0.7)"/>
     <use xlink:href="#DejaVuSans-d7" transform="translate(351.05769 38.810937) scale(0.7)"/>
     <use xlink:href="#DejaVuSans-Oblique-64" transform="translate(423.347729 38.810937) scale(0.7)"/>
    </g>
   </g>
   <g id="text_2">
    <!-- Dimensionality -->
    <g transform="translate(275.861719 146.361562) scale(0.1 -0.1)">
     <defs>
      <path id="DejaVuSans-44" d="M 1259 4147 
L 1259 519 
L 2022 519 
Q 2988 519 3436 956 
Q 3884 1394 3884 2338 
Q 3884 3275 3436 3711 
Q 2988 4147 2022 4147 
L 1259 4147 
z
M 628 4666 
L 1925 4666 
Q 3281 4666 3915 4102 
Q 4550 3538 4550 2338 
Q 4550 1131 3912 565 
Q 3275 0 1925 0 
L 628 0 
L 628 4666 
z
" transform="scale(0.015625)"/>
      <path id="DejaVuSans-79" d="M 2059 -325 
Q 1816 -950 1584 -1140 
Q 1353 -1331 966 -1331 
L 506 -1331 
L 506 -850 
L 844 -850 
Q 1081 -850 1212 -737 
Q 1344 -625 1503 -206 
L 1606 56 
L 191 3500 
L 800 3500 
L 1894 763 
L 2988 3500 
L 3597 3500 
L 2059 -325 
z
" transform="scale(0.015625)"/>
     </defs>
     <use xlink:href="#DejaVuSans-44"/>
     <use xlink:href="#DejaVuSans-69" transform="translate(77.001953 0)"/>
     <use xlink:href="#DejaVuSans-6d" transform="translate(104.785156 0)"/>
     <use xlink:href="#DejaVuSans-65" transform="translate(202.197266 0)"/>
     <use xlink:href="#DejaVuSans-6e" transform="translate(263.720703 0)"/>
     <use xlink:href="#DejaVuSans-73" transform="translate(327.099609 0)"/>
     <use xlink:href="#DejaVuSans-69" transform="translate(379.199219 0)"/>
     <use xlink:href="#DejaVuSans-6f" transform="translate(406.982422 0)"/>
     <use xlink:href="#DejaVuSans-6e" transform="translate(468.164062 0)"/>
     <use xlink:href="#DejaVuSans-61" transform="translate(531.542969 0)"/>
     <use xlink:href="#DejaVuSans-6c" transform="translate(592.822266 0)"/>
     <use xlink:href="#DejaVuSans-69" transform="translate(620.605469 0)"/>
     <use xlink:href="#DejaVuSans-74" transform="translate(648.388672 0)"/>
     <use xlink:href="#DejaVuSans-79" transform="translate(687.597656 0)"/>
    </g>
    <!-- reduction -->
    <g transform="translate(289.510937 157.559375) scale(0.1 -0.1)">
     <defs>
      <path id="DejaVuSans-63" d="M 3122 3366 
L 3122 2828 
Q 2878 2963 2633 3030 
Q 2388 3097 2138 3097 
Q 1578 3097 1268 2742 
Q 959 2388 959 1747 
Q 959 1106 1268 751 
Q 1578 397 2138 397 
Q 2388 397 2633 464 
Q 2878 531 3122 666 
L 3122 134 
Q 2881 22 2623 -34 
Q 2366 -91 2075 -91 
Q 1284 -91 818 406 
Q 353 903 353 1747 
Q 353 2603 823 3093 
Q 1294 3584 2113 3584 
Q 2378 3584 2631 3529 
Q 2884 3475 3122 3366 
z
" transform="scale(0.015625)"/>
     </defs>
     <use xlink:href="#DejaVuSans-72"/>
     <use xlink:href="#DejaVuSans-65" transform="translate(38.863281 0)"/>
     <use xlink:href="#DejaVuSans-64" transform="translate(100.386719 0)"/>
     <use xlink:href="#DejaVuSans-75" transform="translate(163.863281 0)"/>
     <use xlink:href="#DejaVuSans-63" transform="translate(227.242188 0)"/>
     <use xlink:href="#DejaVuSans-74" transform="translate(282.222656 0)"/>
     <use xlink:href="#DejaVuSans-69" transform="translate(321.431641 0)"/>
     <use xlink:href="#DejaVuSans-6f" transform="translate(349.214844 0)"/>
     <use xlink:href="#DejaVuSans-6e" transform="translate(410.396484 0)"/>
    </g>
    <!-- fit transform -->
    <g transform="translate(281.990625 168.757187) scale(0.1 -0.1)">
     <defs>
      <path id="DejaVuSans-66" d="M 2375 4863 
L 2375 4384 
L 1825 4384 
Q 1516 4384 1395 4259 
Q 1275 4134 1275 3809 
L 1275 3500 
L 2222 3500 
L 2222 3053 
L 1275 3053 
L 1275 0 
L 697 0 
L 697 3053 
L 147 3053 
L 147 3500 
L 697 3500 
L 697 3744 
Q 697 4328 969 4595 
Q 1241 4863 1831 4863 
L 2375 4863 
z
" transform="scale(0.015625)"/>
      <path id="DejaVuSans-20" transform="scale(0.015625)"/>
     </defs>
     <use xlink:href="#DejaVuSans-66"/>
     <use xlink:href="#DejaVuSans-69" transform="translate(35.205078 0)"/>
     <use xlink:href="#DejaVuSans-74" transform="translate(62.988281 0)"/>
     <use xlink:href="#DejaVuSans-20" transform="translate(102.197266 0)"/>
     <use xlink:href="#DejaVuSans-74" transform="translate(133.984375 0)"/>
     <use xlink:href="#DejaVuSans-72" transform="translate(173.193359 0)"/>
     <use xlink:href="#DejaVuSans-61" transform="translate(214.306641 0)"/>
     <use xlink:href="#DejaVuSans-6e" transform="translate(275.585938 0)"/>
     <use xlink:href="#DejaVuSans-73" transform="translate(338.964844 0)"/>
     <use xlink:href="#DejaVuSans-66" transform="translate(391.064453 0)"/>
     <use xlink:href="#DejaVuSans-6f" transform="translate(426.269531 0)"/>
     <use xlink:href="#DejaVuSans-72" transform="translate(487.451172 0)"/>
     <use xlink:href="#DejaVuSans-6d" transform="translate(526.814453 0)"/>
    </g>
   </g>
   <g id="text_3">
    <!-- Low-dimensional -->
    <g transform="translate(487.945312 146.361562) scale(0.1 -0.1)">
     <defs>
      <path id="DejaVuSans-4c" d="M 628 4666 
L 1259 4666 
L 1259 531 
L 3531 531 
L 3531 0 
L 628 0 
L 628 4666 
z
" transform="scale(0.015625)"/>
      <path id="DejaVuSans-77" d="M 269 3500 
L 844 3500 
L 1563 769 
L 2278 3500 
L 2956 3500 
L 3675 769 
L 4391 3500 
L 4966 3500 
L 4050 0 
L 3372 0 
L 2619 2869 
L 1863 0 
L 1184 0 
L 269 3500 
z
" transform="scale(0.015625)"/>
     </defs>
     <use xlink:href="#DejaVuSans-4c"/>
     <use xlink:href="#DejaVuSans-6f" transform="translate(53.962891 0)"/>
     <use xlink:href="#DejaVuSans-77" transform="translate(115.144531 0)"/>
     <use xlink:href="#DejaVuSans-2d" transform="translate(196.931641 0)"/>
     <use xlink:href="#DejaVuSans-64" transform="translate(233.015625 0)"/>
     <use xlink:href="#DejaVuSans-69" transform="translate(296.492188 0)"/>
     <use xlink:href="#DejaVuSans-6d" transform="translate(324.275391 0)"/>
     <use xlink:href="#DejaVuSans-65" transform="translate(421.6875 0)"/>
     <use xlink:href="#DejaVuSans-6e" transform="translate(483.210938 0)"/>
     <use xlink:href="#DejaVuSans-73" transform="translate(546.589844 0)"/>
     <use xlink:href="#DejaVuSans-69" transform="translate(598.689453 0)"/>
     <use xlink:href="#DejaVuSans-6f" transform="translate(626.472656 0)"/>
     <use xlink:href="#DejaVuSans-6e" transform="translate(687.654297 0)"/>
     <use xlink:href="#DejaVuSans-61" transform="translate(751.033203 0)"/>
     <use xlink:href="#DejaVuSans-6c" transform="translate(812.3125 0)"/>
    </g>
    <!-- scores -->
    <g transform="translate(513.9125 157.559375) scale(0.1 -0.1)">
     <use xlink:href="#DejaVuSans-73"/>
     <use xlink:href="#DejaVuSans-63" transform="translate(52.099609 0)"/>
     <use xlink:href="#DejaVuSans-6f" transform="translate(107.080078 0)"/>
     <use xlink:href="#DejaVuSans-72" transform="translate(168.261719 0)"/>
     <use xlink:href="#DejaVuSans-65" transform="translate(207.125 0)"/>
     <use xlink:href="#DejaVuSans-73" transform="translate(268.648438 0)"/>
    </g>
    <!-- $Z\in\mathbb{R}^{m\times r}$ -->
    <g transform="translate(507.2 168.757187) scale(0.1 -0.1)">
     <defs>
      <path id="DejaVuSans-Oblique-5a" d="M 838 4666 
L 4500 4666 
L 4409 4184 
L 794 531 
L 3769 531 
L 3669 0 
L -141 0 
L -50 481 
L 3566 4134 
L 738 4134 
L 838 4666 
z
" transform="scale(0.015625)"/>
      <path id="DejaVuSans-Oblique-72" d="M 2853 2969 
Q 2766 3016 2653 3041 
Q 2541 3066 2413 3066 
Q 1953 3066 1609 2717 
Q 1266 2369 1153 1784 
L 800 0 
L 225 0 
L 909 3500 
L 1484 3500 
L 1375 2956 
Q 1603 3259 1920 3421 
Q 2238 3584 2597 3584 
Q 2691 3584 2781 3573 
Q 2872 3563 2963 3538 
L 2853 2969 
z
" transform="scale(0.015625)"/>
     </defs>
     <use xlink:href="#DejaVuSans-Oblique-5a" transform="translate(0 0.98125)"/>
     <use xlink:href="#DejaVuSans-2208" transform="translate(87.988281 0.98125)"/>
     <use xlink:href="#STIXGeneral-Italic-211d" transform="translate(194.580078 0.98125)"/>
     <use xlink:href="#DejaVuSans-Oblique-6d" transform="translate(269.231518 39.2625) scale(0.7)"/>
     <use xlink:href="#DejaVuSans-d7" transform="translate(351.05769 39.2625) scale(0.7)"/>
     <use xlink:href="#DejaVuSans-Oblique-72" transform="translate(423.347729 39.2625) scale(0.7)"/>
    </g>
   </g>
   <g id="text_4">
    <g id="patch_7">
     <path d="M 62.035156 252.71179 
L 105.364844 252.71179 
Q 107.864844 252.71179 107.864844 250.21179 
L 107.864844 240.533665 
Q 107.864844 238.033665 105.364844 238.033665 
L 62.035156 238.033665 
Q 59.535156 238.033665 59.535156 240.533665 
L 59.535156 250.21179 
Q 59.535156 252.71179 62.035156 252.71179 
z
" style="fill: #f7f7f7; stroke: #aaaaaa; stroke-linejoin: miter"/>
    </g>
    <!-- visualize -->
    <g transform="translate(62.035156 248.132102) scale(0.1 -0.1)">
     <defs>
      <path id="DejaVuSans-76" d="M 191 3500 
L 800 3500 
L 1894 563 
L 2988 3500 
L 3597 3500 
L 2284 0 
L 1503 0 
L 191 3500 
z
" transform="scale(0.015625)"/>
      <path id="DejaVuSans-7a" d="M 353 3500 
L 3084 3500 
L 3084 2975 
L 922 459 
L 3084 459 
L 3084 0 
L 275 0 
L 275 525 
L 2438 3041 
L 353 3041 
L 353 3500 
z
" transform="scale(0.015625)"/>
     </defs>
     <use xlink:href="#DejaVuSans-76"/>
     <use xlink:href="#DejaVuSans-69" transform="translate(59.179688 0)"/>
     <use xlink:href="#DejaVuSans-73" transform="translate(86.962891 0)"/>
     <use xlink:href="#DejaVuSans-75" transform="translate(139.0625 0)"/>
     <use xlink:href="#DejaVuSans-61" transform="translate(202.441406 0)"/>
     <use xlink:href="#DejaVuSans-6c" transform="translate(263.720703 0)"/>
     <use xlink:href="#DejaVuSans-69" transform="translate(291.503906 0)"/>
     <use xlink:href="#DejaVuSans-7a" transform="translate(319.287109 0)"/>
     <use xlink:href="#DejaVuSans-65" transform="translate(371.777344 0)"/>
    </g>
   </g>
   <g id="text_5">
    <g id="patch_8">
     <path d="M 174.367969 252.71179 
L 222.532031 252.71179 
Q 225.032031 252.71179 225.032031 250.21179 
L 225.032031 240.533665 
Q 225.032031 238.033665 222.532031 238.033665 
L 174.367969 238.033665 
Q 171.867969 238.033665 171.867969 240.533665 
L 171.867969 250.21179 
Q 171.867969 252.71179 174.367969 252.71179 
z
" style="fill: #f7f7f7; stroke: #aaaaaa; stroke-linejoin: miter"/>
    </g>
    <!-- compress -->
    <g transform="translate(174.367969 248.132102) scale(0.1 -0.1)">
     <defs>
      <path id="DejaVuSans-70" d="M 1159 525 
L 1159 -1331 
L 581 -1331 
L 581 3500 
L 1159 3500 
L 1159 2969 
Q 1341 3281 1617 3432 
Q 1894 3584 2278 3584 
Q 2916 3584 3314 3078 
Q 3713 2572 3713 1747 
Q 3713 922 3314 415 
Q 2916 -91 2278 -91 
Q 1894 -91 1617 61 
Q 1341 213 1159 525 
z
M 3116 1747 
Q 3116 2381 2855 2742 
Q 2594 3103 2138 3103 
Q 1681 3103 1420 2742 
Q 1159 2381 1159 1747 
Q 1159 1113 1420 752 
Q 1681 391 2138 391 
Q 2594 391 2855 752 
Q 3116 1113 3116 1747 
z
" transform="scale(0.015625)"/>
     </defs>
     <use xlink:href="#DejaVuSans-63"/>
     <use xlink:href="#DejaVuSans-6f" transform="translate(54.980469 0)"/>
     <use xlink:href="#DejaVuSans-6d" transform="translate(116.162109 0)"/>
     <use xlink:href="#DejaVuSans-70" transform="translate(213.574219 0)"/>
     <use xlink:href="#DejaVuSans-72" transform="translate(277.050781 0)"/>
     <use xlink:href="#DejaVuSans-65" transform="translate(315.914062 0)"/>
     <use xlink:href="#DejaVuSans-73" transform="translate(377.4375 0)"/>
     <use xlink:href="#DejaVuSans-73" transform="translate(429.537109 0)"/>
    </g>
   </g>
   <g id="text_6">
    <g id="patch_9">
     <path d="M 293.650781 252.71179 
L 332.749219 252.71179 
Q 335.249219 252.71179 335.249219 250.21179 
L 335.249219 240.533665 
Q 335.249219 238.033665 332.749219 238.033665 
L 293.650781 238.033665 
Q 291.150781 238.033665 291.150781 240.533665 
L 291.150781 250.21179 
Q 291.150781 252.71179 293.650781 252.71179 
z
" style="fill: #f7f7f7; stroke: #aaaaaa; stroke-linejoin: miter"/>
    </g>
    <!-- denoise -->
    <g transform="translate(293.650781 248.132102) scale(0.1 -0.1)">
     <use xlink:href="#DejaVuSans-64"/>
     <use xlink:href="#DejaVuSans-65" transform="translate(63.476562 0)"/>
     <use xlink:href="#DejaVuSans-6e" transform="translate(125 0)"/>
     <use xlink:href="#DejaVuSans-6f" transform="translate(188.378906 0)"/>
     <use xlink:href="#DejaVuSans-69" transform="translate(249.560547 0)"/>
     <use xlink:href="#DejaVuSans-73" transform="translate(277.34375 0)"/>
     <use xlink:href="#DejaVuSans-65" transform="translate(329.443359 0)"/>
    </g>
   </g>
   <g id="text_7">
    <g id="patch_10">
     <path d="M 400.544531 252.71179 
L 455.355469 252.71179 
Q 457.855469 252.71179 457.855469 250.21179 
L 457.855469 240.533665 
Q 457.855469 238.033665 455.355469 238.033665 
L 400.544531 238.033665 
Q 398.044531 238.033665 398.044531 240.533665 
L 398.044531 250.21179 
Q 398.044531 252.71179 400.544531 252.71179 
z
" style="fill: #f7f7f7; stroke: #aaaaaa; stroke-linejoin: miter"/>
    </g>
    <!-- preprocess -->
    <g transform="translate(400.544531 248.132102) scale(0.1 -0.1)">
     <use xlink:href="#DejaVuSans-70"/>
     <use xlink:href="#DejaVuSans-72" transform="translate(63.476562 0)"/>
     <use xlink:href="#DejaVuSans-65" transform="translate(102.339844 0)"/>
     <use xlink:href="#DejaVuSans-70" transform="translate(163.863281 0)"/>
     <use xlink:href="#DejaVuSans-72" transform="translate(227.339844 0)"/>
     <use xlink:href="#DejaVuSans-6f" transform="translate(266.203125 0)"/>
     <use xlink:href="#DejaVuSans-63" transform="translate(327.384766 0)"/>
     <use xlink:href="#DejaVuSans-65" transform="translate(382.365234 0)"/>
     <use xlink:href="#DejaVuSans-73" transform="translate(443.888672 0)"/>
     <use xlink:href="#DejaVuSans-73" transform="translate(495.988281 0)"/>
    </g>
   </g>
   <g id="text_8">
    <g id="patch_11">
     <path d="M 523.1375 252.71179 
L 562.2625 252.71179 
Q 564.7625 252.71179 564.7625 250.21179 
L 564.7625 240.533665 
Q 564.7625 238.033665 562.2625 238.033665 
L 523.1375 238.033665 
Q 520.6375 238.033665 520.6375 240.533665 
L 520.6375 250.21179 
Q 520.6375 252.71179 523.1375 252.71179 
z
" style="fill: #f7f7f7; stroke: #aaaaaa; stroke-linejoin: miter"/>
    </g>
    <!-- monitor -->
    <g transform="translate(523.1375 248.132102) scale(0.1 -0.1)">
     <use xlink:href="#DejaVuSans-6d"/>
     <use xlink:href="#DejaVuSans-6f" transform="translate(97.412109 0)"/>
     <use xlink:href="#DejaVuSans-6e" transform="translate(158.59375 0)"/>
     <use xlink:href="#DejaVuSans-69" transform="translate(221.972656 0)"/>
     <use xlink:href="#DejaVuSans-74" transform="translate(249.755859 0)"/>
     <use xlink:href="#DejaVuSans-6f" transform="translate(288.964844 0)"/>
     <use xlink:href="#DejaVuSans-72" transform="translate(350.146484 0)"/>
    </g>
   </g>
   <g id="text_9">
    <!-- Keep the important structure while using fewer coordinates -->
    <g transform="translate(92.636719 54.163636) scale(0.13 -0.13)">
     <defs>
      <path id="DejaVuSans-Bold-4b" d="M 588 4666 
L 1791 4666 
L 1791 2963 
L 3525 4666 
L 4922 4666 
L 2675 2456 
L 5153 0 
L 3647 0 
L 1791 1838 
L 1791 0 
L 588 0 
L 588 4666 
z
" transform="scale(0.015625)"/>
      <path id="DejaVuSans-Bold-65" d="M 4031 1759 
L 4031 1441 
L 1416 1441 
Q 1456 1047 1700 850 
Q 1944 653 2381 653 
Q 2734 653 3104 758 
Q 3475 863 3866 1075 
L 3866 213 
Q 3469 63 3072 -14 
Q 2675 -91 2278 -91 
Q 1328 -91 801 392 
Q 275 875 275 1747 
Q 275 2603 792 3093 
Q 1309 3584 2216 3584 
Q 3041 3584 3536 3087 
Q 4031 2591 4031 1759 
z
M 2881 2131 
Q 2881 2450 2695 2645 
Q 2509 2841 2209 2841 
Q 1884 2841 1681 2658 
Q 1478 2475 1428 2131 
L 2881 2131 
z
" transform="scale(0.015625)"/>
      <path id="DejaVuSans-Bold-70" d="M 1656 506 
L 1656 -1331 
L 538 -1331 
L 538 3500 
L 1656 3500 
L 1656 2988 
Q 1888 3294 2169 3439 
Q 2450 3584 2816 3584 
Q 3463 3584 3878 3070 
Q 4294 2556 4294 1747 
Q 4294 938 3878 423 
Q 3463 -91 2816 -91 
Q 2450 -91 2169 54 
Q 1888 200 1656 506 
z
M 2400 2772 
Q 2041 2772 1848 2508 
Q 1656 2244 1656 1747 
Q 1656 1250 1848 986 
Q 2041 722 2400 722 
Q 2759 722 2948 984 
Q 3138 1247 3138 1747 
Q 3138 2247 2948 2509 
Q 2759 2772 2400 2772 
z
" transform="scale(0.015625)"/>
      <path id="DejaVuSans-Bold-20" transform="scale(0.015625)"/>
      <path id="DejaVuSans-Bold-74" d="M 1759 4494 
L 1759 3500 
L 2913 3500 
L 2913 2700 
L 1759 2700 
L 1759 1216 
Q 1759 972 1856 886 
Q 1953 800 2241 800 
L 2816 800 
L 2816 0 
L 1856 0 
Q 1194 0 917 276 
Q 641 553 641 1216 
L 641 2700 
L 84 2700 
L 84 3500 
L 641 3500 
L 641 4494 
L 1759 4494 
z
" transform="scale(0.015625)"/>
      <path id="DejaVuSans-Bold-68" d="M 4056 2131 
L 4056 0 
L 2931 0 
L 2931 347 
L 2931 1625 
Q 2931 2084 2911 2256 
Q 2891 2428 2841 2509 
Q 2775 2619 2662 2680 
Q 2550 2741 2406 2741 
Q 2056 2741 1856 2470 
Q 1656 2200 1656 1722 
L 1656 0 
L 538 0 
L 538 4863 
L 1656 4863 
L 1656 2988 
Q 1909 3294 2193 3439 
Q 2478 3584 2822 3584 
Q 3428 3584 3742 3212 
Q 4056 2841 4056 2131 
z
" transform="scale(0.015625)"/>
      <path id="DejaVuSans-Bold-69" d="M 538 3500 
L 1656 3500 
L 1656 0 
L 538 0 
L 538 3500 
z
M 538 4863 
L 1656 4863 
L 1656 3950 
L 538 3950 
L 538 4863 
z
" transform="scale(0.015625)"/>
      <path id="DejaVuSans-Bold-6d" d="M 3781 2919 
Q 3994 3244 4286 3414 
Q 4578 3584 4928 3584 
Q 5531 3584 5847 3212 
Q 6163 2841 6163 2131 
L 6163 0 
L 5038 0 
L 5038 1825 
Q 5041 1866 5042 1909 
Q 5044 1953 5044 2034 
Q 5044 2406 4934 2573 
Q 4825 2741 4581 2741 
Q 4263 2741 4089 2478 
Q 3916 2216 3909 1719 
L 3909 0 
L 2784 0 
L 2784 1825 
Q 2784 2406 2684 2573 
Q 2584 2741 2328 2741 
Q 2006 2741 1831 2477 
Q 1656 2213 1656 1722 
L 1656 0 
L 531 0 
L 531 3500 
L 1656 3500 
L 1656 2988 
Q 1863 3284 2130 3434 
Q 2397 3584 2719 3584 
Q 3081 3584 3359 3409 
Q 3638 3234 3781 2919 
z
" transform="scale(0.015625)"/>
      <path id="DejaVuSans-Bold-6f" d="M 2203 2784 
Q 1831 2784 1636 2517 
Q 1441 2250 1441 1747 
Q 1441 1244 1636 976 
Q 1831 709 2203 709 
Q 2569 709 2762 976 
Q 2956 1244 2956 1747 
Q 2956 2250 2762 2517 
Q 2569 2784 2203 2784 
z
M 2203 3584 
Q 3106 3584 3614 3096 
Q 4122 2609 4122 1747 
Q 4122 884 3614 396 
Q 3106 -91 2203 -91 
Q 1297 -91 786 396 
Q 275 884 275 1747 
Q 275 2609 786 3096 
Q 1297 3584 2203 3584 
z
" transform="scale(0.015625)"/>
      <path id="DejaVuSans-Bold-72" d="M 3138 2547 
Q 2991 2616 2845 2648 
Q 2700 2681 2553 2681 
Q 2122 2681 1889 2404 
Q 1656 2128 1656 1613 
L 1656 0 
L 538 0 
L 538 3500 
L 1656 3500 
L 1656 2925 
Q 1872 3269 2151 3426 
Q 2431 3584 2822 3584 
Q 2878 3584 2943 3579 
Q 3009 3575 3134 3559 
L 3138 2547 
z
" transform="scale(0.015625)"/>
      <path id="DejaVuSans-Bold-61" d="M 2106 1575 
Q 1756 1575 1579 1456 
Q 1403 1338 1403 1106 
Q 1403 894 1545 773 
Q 1688 653 1941 653 
Q 2256 653 2472 879 
Q 2688 1106 2688 1447 
L 2688 1575 
L 2106 1575 
z
M 3816 1997 
L 3816 0 
L 2688 0 
L 2688 519 
Q 2463 200 2181 54 
Q 1900 -91 1497 -91 
Q 953 -91 614 226 
Q 275 544 275 1050 
Q 275 1666 698 1953 
Q 1122 2241 2028 2241 
L 2688 2241 
L 2688 2328 
Q 2688 2594 2478 2717 
Q 2269 2841 1825 2841 
Q 1466 2841 1156 2769 
Q 847 2697 581 2553 
L 581 3406 
Q 941 3494 1303 3539 
Q 1666 3584 2028 3584 
Q 2975 3584 3395 3211 
Q 3816 2838 3816 1997 
z
" transform="scale(0.015625)"/>
      <path id="DejaVuSans-Bold-6e" d="M 4056 2131 
L 4056 0 
L 2931 0 
L 2931 347 
L 2931 1631 
Q 2931 2084 2911 2256 
Q 2891 2428 2841 2509 
Q 2775 2619 2662 2680 
Q 2550 2741 2406 2741 
Q 2056 2741 1856 2470 
Q 1656 2200 1656 1722 
L 1656 0 
L 538 0 
L 538 3500 
L 1656 3500 
L 1656 2988 
Q 1909 3294 2193 3439 
Q 2478 3584 2822 3584 
Q 3428 3584 3742 3212 
Q 4056 2841 4056 2131 
z
" transform="scale(0.015625)"/>
      <path id="DejaVuSans-Bold-73" d="M 3272 3391 
L 3272 2541 
Q 2913 2691 2578 2766 
Q 2244 2841 1947 2841 
Q 1628 2841 1473 2761 
Q 1319 2681 1319 2516 
Q 1319 2381 1436 2309 
Q 1553 2238 1856 2203 
L 2053 2175 
Q 2913 2066 3209 1816 
Q 3506 1566 3506 1031 
Q 3506 472 3093 190 
Q 2681 -91 1863 -91 
Q 1516 -91 1145 -36 
Q 775 19 384 128 
L 384 978 
Q 719 816 1070 734 
Q 1422 653 1784 653 
Q 2113 653 2278 743 
Q 2444 834 2444 1013 
Q 2444 1163 2330 1236 
Q 2216 1309 1875 1350 
L 1678 1375 
Q 931 1469 631 1722 
Q 331 1975 331 2491 
Q 331 3047 712 3315 
Q 1094 3584 1881 3584 
Q 2191 3584 2531 3537 
Q 2872 3491 3272 3391 
z
" transform="scale(0.015625)"/>
      <path id="DejaVuSans-Bold-75" d="M 500 1363 
L 500 3500 
L 1625 3500 
L 1625 3150 
Q 1625 2866 1622 2436 
Q 1619 2006 1619 1863 
Q 1619 1441 1641 1255 
Q 1663 1069 1716 984 
Q 1784 875 1895 815 
Q 2006 756 2150 756 
Q 2500 756 2700 1025 
Q 2900 1294 2900 1772 
L 2900 3500 
L 4019 3500 
L 4019 0 
L 2900 0 
L 2900 506 
Q 2647 200 2364 54 
Q 2081 -91 1741 -91 
Q 1134 -91 817 281 
Q 500 653 500 1363 
z
" transform="scale(0.015625)"/>
      <path id="DejaVuSans-Bold-63" d="M 3366 3391 
L 3366 2478 
Q 3138 2634 2908 2709 
Q 2678 2784 2431 2784 
Q 1963 2784 1702 2511 
Q 1441 2238 1441 1747 
Q 1441 1256 1702 982 
Q 1963 709 2431 709 
Q 2694 709 2930 787 
Q 3166 866 3366 1019 
L 3366 103 
Q 3103 6 2833 -42 
Q 2563 -91 2291 -91 
Q 1344 -91 809 395 
Q 275 881 275 1747 
Q 275 2613 809 3098 
Q 1344 3584 2291 3584 
Q 2566 3584 2833 3536 
Q 3100 3488 3366 3391 
z
" transform="scale(0.015625)"/>
      <path id="DejaVuSans-Bold-77" d="M 225 3500 
L 1313 3500 
L 1900 1088 
L 2491 3500 
L 3425 3500 
L 4013 1113 
L 4603 3500 
L 5691 3500 
L 4769 0 
L 3547 0 
L 2956 2406 
L 2369 0 
L 1147 0 
L 225 3500 
z
" transform="scale(0.015625)"/>
      <path id="DejaVuSans-Bold-6c" d="M 538 4863 
L 1656 4863 
L 1656 0 
L 538 0 
L 538 4863 
z
" transform="scale(0.015625)"/>
      <path id="DejaVuSans-Bold-67" d="M 2919 594 
Q 2688 288 2409 144 
Q 2131 0 1766 0 
Q 1125 0 706 504 
Q 288 1009 288 1791 
Q 288 2575 706 3076 
Q 1125 3578 1766 3578 
Q 2131 3578 2409 3434 
Q 2688 3291 2919 2981 
L 2919 3500 
L 4044 3500 
L 4044 353 
Q 4044 -491 3511 -936 
Q 2978 -1381 1966 -1381 
Q 1638 -1381 1331 -1331 
Q 1025 -1281 716 -1178 
L 716 -306 
Q 1009 -475 1290 -558 
Q 1572 -641 1856 -641 
Q 2406 -641 2662 -400 
Q 2919 -159 2919 353 
L 2919 594 
z
M 2181 2772 
Q 1834 2772 1640 2515 
Q 1447 2259 1447 1791 
Q 1447 1309 1634 1061 
Q 1822 813 2181 813 
Q 2531 813 2725 1069 
Q 2919 1325 2919 1791 
Q 2919 2259 2725 2515 
Q 2531 2772 2181 2772 
z
" transform="scale(0.015625)"/>
      <path id="DejaVuSans-Bold-66" d="M 2841 4863 
L 2841 4128 
L 2222 4128 
Q 1984 4128 1890 4042 
Q 1797 3956 1797 3744 
L 1797 3500 
L 2753 3500 
L 2753 2700 
L 1797 2700 
L 1797 0 
L 678 0 
L 678 2700 
L 122 2700 
L 122 3500 
L 678 3500 
L 678 3744 
Q 678 4316 997 4589 
Q 1316 4863 1984 4863 
L 2841 4863 
z
" transform="scale(0.015625)"/>
      <path id="DejaVuSans-Bold-64" d="M 2919 2988 
L 2919 4863 
L 4044 4863 
L 4044 0 
L 2919 0 
L 2919 506 
Q 2688 197 2409 53 
Q 2131 -91 1766 -91 
Q 1119 -91 703 423 
Q 288 938 288 1747 
Q 288 2556 703 3070 
Q 1119 3584 1766 3584 
Q 2128 3584 2408 3439 
Q 2688 3294 2919 2988 
z
M 2181 722 
Q 2541 722 2730 984 
Q 2919 1247 2919 1747 
Q 2919 2247 2730 2509 
Q 2541 2772 2181 2772 
Q 1825 2772 1636 2509 
Q 1447 2247 1447 1747 
Q 1447 1247 1636 984 
Q 1825 722 2181 722 
z
" transform="scale(0.015625)"/>
     </defs>
     <use xlink:href="#DejaVuSans-Bold-4b"/>
     <use xlink:href="#DejaVuSans-Bold-65" transform="translate(75.740234 0)"/>
     <use xlink:href="#DejaVuSans-Bold-65" transform="translate(143.5625 0)"/>
     <use xlink:href="#DejaVuSans-Bold-70" transform="translate(211.384766 0)"/>
     <use xlink:href="#DejaVuSans-Bold-20" transform="translate(282.966797 0)"/>
     <use xlink:href="#DejaVuSans-Bold-74" transform="translate(317.78125 0)"/>
     <use xlink:href="#DejaVuSans-Bold-68" transform="translate(365.583984 0)"/>
     <use xlink:href="#DejaVuSans-Bold-65" transform="translate(436.775391 0)"/>
     <use xlink:href="#DejaVuSans-Bold-20" transform="translate(504.597656 0)"/>
     <use xlink:href="#DejaVuSans-Bold-69" transform="translate(539.412109 0)"/>
     <use xlink:href="#DejaVuSans-Bold-6d" transform="translate(573.689453 0)"/>
     <use xlink:href="#DejaVuSans-Bold-70" transform="translate(677.888672 0)"/>
     <use xlink:href="#DejaVuSans-Bold-6f" transform="translate(749.470703 0)"/>
     <use xlink:href="#DejaVuSans-Bold-72" transform="translate(818.171875 0)"/>
     <use xlink:href="#DejaVuSans-Bold-74" transform="translate(867.488281 0)"/>
     <use xlink:href="#DejaVuSans-Bold-61" transform="translate(915.291016 0)"/>
     <use xlink:href="#DejaVuSans-Bold-6e" transform="translate(982.771484 0)"/>
     <use xlink:href="#DejaVuSans-Bold-74" transform="translate(1053.962891 0)"/>
     <use xlink:href="#DejaVuSans-Bold-20" transform="translate(1101.765625 0)"/>
     <use xlink:href="#DejaVuSans-Bold-73" transform="translate(1136.580078 0)"/>
     <use xlink:href="#DejaVuSans-Bold-74" transform="translate(1196.101562 0)"/>
     <use xlink:href="#DejaVuSans-Bold-72" transform="translate(1243.904297 0)"/>
     <use xlink:href="#DejaVuSans-Bold-75" transform="translate(1293.220703 0)"/>
     <use xlink:href="#DejaVuSans-Bold-63" transform="translate(1364.412109 0)"/>
     <use xlink:href="#DejaVuSans-Bold-74" transform="translate(1423.689453 0)"/>
     <use xlink:href="#DejaVuSans-Bold-75" transform="translate(1471.492188 0)"/>
     <use xlink:href="#DejaVuSans-Bold-72" transform="translate(1542.683594 0)"/>
     <use xlink:href="#DejaVuSans-Bold-65" transform="translate(1592 0)"/>
     <use xlink:href="#DejaVuSans-Bold-20" transform="translate(1659.822266 0)"/>
     <use xlink:href="#DejaVuSans-Bold-77" transform="translate(1694.636719 0)"/>
     <use xlink:href="#DejaVuSans-Bold-68" transform="translate(1787.019531 0)"/>
     <use xlink:href="#DejaVuSans-Bold-69" transform="translate(1858.210938 0)"/>
     <use xlink:href="#DejaVuSans-Bold-6c" transform="translate(1892.488281 0)"/>
     <use xlink:href="#DejaVuSans-Bold-65" transform="translate(1926.765625 0)"/>
     <use xlink:href="#DejaVuSans-Bold-20" transform="translate(1994.587891 0)"/>
     <use xlink:href="#DejaVuSans-Bold-75" transform="translate(2029.402344 0)"/>
     <use xlink:href="#DejaVuSans-Bold-73" transform="translate(2100.59375 0)"/>
     <use xlink:href="#DejaVuSans-Bold-69" transform="translate(2160.115234 0)"/>
     <use xlink:href="#DejaVuSans-Bold-6e" transform="translate(2194.392578 0)"/>
     <use xlink:href="#DejaVuSans-Bold-67" transform="translate(2265.583984 0)"/>
     <use xlink:href="#DejaVuSans-Bold-20" transform="translate(2337.166016 0)"/>
     <use xlink:href="#DejaVuSans-Bold-66" transform="translate(2371.980469 0)"/>
     <use xlink:href="#DejaVuSans-Bold-65" transform="translate(2415.486328 0)"/>
     <use xlink:href="#DejaVuSans-Bold-77" transform="translate(2483.308594 0)"/>
     <use xlink:href="#DejaVuSans-Bold-65" transform="translate(2575.691406 0)"/>
     <use xlink:href="#DejaVuSans-Bold-72" transform="translate(2643.513672 0)"/>
     <use xlink:href="#DejaVuSans-Bold-20" transform="translate(2692.830078 0)"/>
     <use xlink:href="#DejaVuSans-Bold-63" transform="translate(2727.644531 0)"/>
     <use xlink:href="#DejaVuSans-Bold-6f" transform="translate(2786.921875 0)"/>
     <use xlink:href="#DejaVuSans-Bold-6f" transform="translate(2855.623047 0)"/>
     <use xlink:href="#DejaVuSans-Bold-72" transform="translate(2924.324219 0)"/>
     <use xlink:href="#DejaVuSans-Bold-64" transform="translate(2973.640625 0)"/>
     <use xlink:href="#DejaVuSans-Bold-69" transform="translate(3045.222656 0)"/>
     <use xlink:href="#DejaVuSans-Bold-6e" transform="translate(3079.5 0)"/>
     <use xlink:href="#DejaVuSans-Bold-61" transform="translate(3150.691406 0)"/>
     <use xlink:href="#DejaVuSans-Bold-74" transform="translate(3218.171875 0)"/>
     <use xlink:href="#DejaVuSans-Bold-65" transform="translate(3265.974609 0)"/>
     <use xlink:href="#DejaVuSans-Bold-73" transform="translate(3333.796875 0)"/>
    </g>
   </g>
  </g>
 </g>
 <defs>
  <clipPath id="pa954740c4c">
   <rect x="7.2" y="7.2" width="612" height="295.2"/>
  </clipPath>
 </defs>
</svg>
