<?xml version="1.0" encoding="utf-8" standalone="no"?>
<!DOCTYPE svg PUBLIC "-//W3C//DTD SVG 1.1//EN"
  "http://www.w3.org/Graphics/SVG/1.1/DTD/svg11.dtd">
<svg xmlns:xlink="http://www.w3.org/1999/xlink" width="453.6pt" height="188.546656pt" viewBox="0 0 453.6 188.546656" xmlns="http://www.w3.org/2000/svg" version="1.1">
 <metadata>
  <rdf:RDF xmlns:dc="http://purl.org/dc/elements/1.1/" xmlns:cc="http://creativecommons.org/ns#" xmlns:rdf="http://www.w3.org/1999/02/22-rdf-syntax-ns#">
   <cc:Work>
    <dc:type rdf:resource="http://purl.org/dc/dcmitype/StillImage"/>
    <dc:date>2026-06-30T22:52:52.266179</dc:date>
    <dc:format>image/svg+xml</dc:format>
    <dc:creator>
     <cc:Agent>
      <dc:title>Matplotlib v3.10.8, https://matplotlib.org/</dc:title>
     </cc:Agent>
    </dc:creator>
   </cc:Work>
  </rdf:RDF>
 </metadata>
 <defs>
  <style type="text/css">*{stroke-linejoin: round; stroke-linecap: butt}</style>
 </defs>
 <g id="figure_1">
  <g id="patch_1">
   <path d="M 0 188.546656 
L 453.6 188.546656 
L 453.6 0 
L 0 0 
z
" style="fill: #ffffff"/>
  </g>
  <g id="axes_1">
   <g id="patch_2">
    <path d="M 7.2 181.346656 
L 446.4 181.346656 
L 446.4 22.32 
L 7.2 22.32 
z
" style="fill: #ffffff"/>
   </g>
   <g id="PathCollection_1">
    <defs>
     <path id="m553a510220" d="M 0 2.345208 
C 0.621956 2.345208 1.218523 2.098102 1.658312 1.658312 
C 2.098102 1.218523 2.345208 0.621956 2.345208 0 
C 2.345208 -0.621956 2.098102 -1.218523 1.658312 -1.658312 
C 1.218523 -2.098102 0.621956 -2.345208 0 -2.345208 
C -0.621956 -2.345208 -1.218523 -2.098102 -1.658312 -1.658312 
C -2.098102 -1.218523 -2.345208 -0.621956 -2.345208 0 
C -2.345208 0.621956 -2.098102 1.218523 -1.658312 1.658312 
C -1.218523 2.098102 -0.621956 2.345208 0 2.345208 
z
" style="stroke: #ffffff; stroke-width: 0.3"/>
    </defs>
    <g clip-path="url(#pf9165d701a)">
     <use xlink:href="#m553a510220" x="180.583348" y="147.534593" style="fill: #bbbbbb; stroke: #ffffff; stroke-width: 0.3"/>
    </g>
   </g>
   <g id="PathCollection_2">
    <defs>
     <path id="m752b740209" d="M 0 2.345208 
C 0.621956 2.345208 1.218523 2.098102 1.658312 1.658312 
C 2.098102 1.218523 2.345208 0.621956 2.345208 0 
C 2.345208 -0.621956 2.098102 -1.218523 1.658312 -1.658312 
C 1.218523 -2.098102 0.621956 -2.345208 0 -2.345208 
C -0.621956 -2.345208 -1.218523 -2.098102 -1.658312 -1.658312 
C -2.098102 -1.218523 -2.345208 -0.621956 -2.345208 0 
C -2.345208 0.621956 -2.098102 1.218523 -1.658312 1.658312 
C -1.218523 2.098102 -0.621956 2.345208 0 2.345208 
z
" style="stroke: #ffffff; stroke-width: 0.3"/>
    </defs>
    <g clip-path="url(#pf9165d701a)">
     <use xlink:href="#m752b740209" x="226.084783" y="150.510004" style="fill: #1f77b4; stroke: #ffffff; stroke-width: 0.3"/>
     <use xlink:href="#m752b740209" x="213.996319" y="152.859156" style="fill: #1f77b4; stroke: #ffffff; stroke-width: 0.3"/>
     <use xlink:href="#m752b740209" x="170.240879" y="112.700973" style="fill: #1f77b4; stroke: #ffffff; stroke-width: 0.3"/>
     <use xlink:href="#m752b740209" x="172.715544" y="92.991579" style="fill: #1f77b4; stroke: #ffffff; stroke-width: 0.3"/>
     <use xlink:href="#m752b740209" x="247.618953" y="155.479933" style="fill: #1f77b4; stroke: #ffffff; stroke-width: 0.3"/>
     <use xlink:href="#m752b740209" x="151.945784" y="85.972982" style="fill: #1f77b4; stroke: #ffffff; stroke-width: 0.3"/>
     <use xlink:href="#m752b740209" x="185.577955" y="118.440683" style="fill: #1f77b4; stroke: #ffffff; stroke-width: 0.3"/>
     <use xlink:href="#m752b740209" x="187.835198" y="125.186324" style="fill: #1f77b4; stroke: #ffffff; stroke-width: 0.3"/>
     <use xlink:href="#m752b740209" x="178.278721" y="121.17178" style="fill: #1f77b4; stroke: #ffffff; stroke-width: 0.3"/>
     <use xlink:href="#m752b740209" x="230.74556" y="151.033487" style="fill: #1f77b4; stroke: #ffffff; stroke-width: 0.3"/>
     <use xlink:href="#m752b740209" x="212.124679" y="142.931016" style="fill: #1f77b4; stroke: #ffffff; stroke-width: 0.3"/>
     <use xlink:href="#m752b740209" x="205.41327" y="138.77137" style="fill: #1f77b4; stroke: #ffffff; stroke-width: 0.3"/>
     <use xlink:href="#m752b740209" x="169.437014" y="120.354166" style="fill: #1f77b4; stroke: #ffffff; stroke-width: 0.3"/>
     <use xlink:href="#m752b740209" x="172.420679" y="118.503595" style="fill: #1f77b4; stroke: #ffffff; stroke-width: 0.3"/>
     <use xlink:href="#m752b740209" x="244.011487" y="162.659291" style="fill: #1f77b4; stroke: #ffffff; stroke-width: 0.3"/>
     <use xlink:href="#m752b740209" x="231.727881" y="144.475231" style="fill: #1f77b4; stroke: #ffffff; stroke-width: 0.3"/>
     <use xlink:href="#m752b740209" x="169.645194" y="133.420182" style="fill: #1f77b4; stroke: #ffffff; stroke-width: 0.3"/>
     <use xlink:href="#m752b740209" x="218.862278" y="147.950203" style="fill: #1f77b4; stroke: #ffffff; stroke-width: 0.3"/>
     <use xlink:href="#m752b740209" x="158.587334" y="106.64076" style="fill: #1f77b4; stroke: #ffffff; stroke-width: 0.3"/>
     <use xlink:href="#m752b740209" x="245.370569" y="163.722805" style="fill: #1f77b4; stroke: #ffffff; stroke-width: 0.3"/>
     <use xlink:href="#m752b740209" x="215.058106" y="145.362105" style="fill: #1f77b4; stroke: #ffffff; stroke-width: 0.3"/>
     <use xlink:href="#m752b740209" x="241.057062" y="163.860808" style="fill: #1f77b4; stroke: #ffffff; stroke-width: 0.3"/>
     <use xlink:href="#m752b740209" x="217.229857" y="155.087388" style="fill: #1f77b4; stroke: #ffffff; stroke-width: 0.3"/>
     <use xlink:href="#m752b740209" x="169.311518" y="81.208442" style="fill: #1f77b4; stroke: #ffffff; stroke-width: 0.3"/>
     <use xlink:href="#m752b740209" x="196.261518" y="139.893069" style="fill: #1f77b4; stroke: #ffffff; stroke-width: 0.3"/>
     <use xlink:href="#m752b740209" x="167.656991" y="108.799112" style="fill: #1f77b4; stroke: #ffffff; stroke-width: 0.3"/>
     <use xlink:href="#m752b740209" x="198.288466" y="132.211324" style="fill: #1f77b4; stroke: #ffffff; stroke-width: 0.3"/>
     <use xlink:href="#m752b740209" x="213.887336" y="151.069231" style="fill: #1f77b4; stroke: #ffffff; stroke-width: 0.3"/>
     <use xlink:href="#m752b740209" x="186.677151" y="130.212269" style="fill: #1f77b4; stroke: #ffffff; stroke-width: 0.3"/>
     <use xlink:href="#m752b740209" x="164.250134" y="82.353519" style="fill: #1f77b4; stroke: #ffffff; stroke-width: 0.3"/>
     <use xlink:href="#m752b740209" x="178.271846" y="124.12003" style="fill: #1f77b4; stroke: #ffffff; stroke-width: 0.3"/>
     <use xlink:href="#m752b740209" x="236.930207" y="160.118097" style="fill: #1f77b4; stroke: #ffffff; stroke-width: 0.3"/>
     <use xlink:href="#m752b740209" x="199.781419" y="134.344656" style="fill: #1f77b4; stroke: #ffffff; stroke-width: 0.3"/>
     <use xlink:href="#m752b740209" x="170.71119" y="109.493614" style="fill: #1f77b4; stroke: #ffffff; stroke-width: 0.3"/>
     <use xlink:href="#m752b740209" x="158.502149" y="89.389462" style="fill: #1f77b4; stroke: #ffffff; stroke-width: 0.3"/>
     <use xlink:href="#m752b740209" x="202.473501" y="132.142977" style="fill: #1f77b4; stroke: #ffffff; stroke-width: 0.3"/>
     <use xlink:href="#m752b740209" x="245.189737" y="145.740849" style="fill: #1f77b4; stroke: #ffffff; stroke-width: 0.3"/>
     <use xlink:href="#m752b740209" x="167.167922" y="103.884234" style="fill: #1f77b4; stroke: #ffffff; stroke-width: 0.3"/>
     <use xlink:href="#m752b740209" x="176.211842" y="126.045216" style="fill: #1f77b4; stroke: #ffffff; stroke-width: 0.3"/>
     <use xlink:href="#m752b740209" x="158.609631" y="86.602041" style="fill: #1f77b4; stroke: #ffffff; stroke-width: 0.3"/>
     <use xlink:href="#m752b740209" x="194.286511" y="139.197026" style="fill: #1f77b4; stroke: #ffffff; stroke-width: 0.3"/>
     <use xlink:href="#m752b740209" x="161.842276" y="86.208714" style="fill: #1f77b4; stroke: #ffffff; stroke-width: 0.3"/>
     <use xlink:href="#m752b740209" x="178.611809" y="109.227843" style="fill: #1f77b4; stroke: #ffffff; stroke-width: 0.3"/>
     <use xlink:href="#m752b740209" x="220.736153" y="138.14341" style="fill: #1f77b4; stroke: #ffffff; stroke-width: 0.3"/>
     <use xlink:href="#m752b740209" x="158.625395" y="84.572574" style="fill: #1f77b4; stroke: #ffffff; stroke-width: 0.3"/>
     <use xlink:href="#m752b740209" x="161.498356" y="110.742398" style="fill: #1f77b4; stroke: #ffffff; stroke-width: 0.3"/>
     <use xlink:href="#m752b740209" x="159.537514" y="98.560721" style="fill: #1f77b4; stroke: #ffffff; stroke-width: 0.3"/>
     <use xlink:href="#m752b740209" x="225.559413" y="155.581123" style="fill: #1f77b4; stroke: #ffffff; stroke-width: 0.3"/>
     <use xlink:href="#m752b740209" x="170.865906" y="113.694306" style="fill: #1f77b4; stroke: #ffffff; stroke-width: 0.3"/>
    </g>
   </g>
   <g id="PathCollection_3">
    <defs>
     <path id="m7b791a8460" d="M 0 2.345208 
C 0.621956 2.345208 1.218523 2.098102 1.658312 1.658312 
C 2.098102 1.218523 2.345208 0.621956 2.345208 0 
C 2.345208 -0.621956 2.098102 -1.218523 1.658312 -1.658312 
C 1.218523 -2.098102 0.621956 -2.345208 0 -2.345208 
C -0.621956 -2.345208 -1.218523 -2.098102 -1.658312 -1.658312 
C -2.098102 -1.218523 -2.345208 -0.621956 -2.345208 0 
C -2.345208 0.621956 -2.098102 1.218523 -1.658312 1.658312 
C -1.218523 2.098102 -0.621956 2.345208 0 2.345208 
z
" style="stroke: #ffffff; stroke-width: 0.3"/>
    </defs>
    <g clip-path="url(#pf9165d701a)">
     <use xlink:href="#m7b791a8460" x="269.257126" y="96.524588" style="fill: #ff7f0e; stroke: #ffffff; stroke-width: 0.3"/>
     <use xlink:href="#m7b791a8460" x="233.462899" y="59.087658" style="fill: #ff7f0e; stroke: #ffffff; stroke-width: 0.3"/>
     <use xlink:href="#m7b791a8460" x="258.597719" y="94.877903" style="fill: #ff7f0e; stroke: #ffffff; stroke-width: 0.3"/>
     <use xlink:href="#m7b791a8460" x="283.497445" y="92.717082" style="fill: #ff7f0e; stroke: #ffffff; stroke-width: 0.3"/>
     <use xlink:href="#m7b791a8460" x="286.950063" y="117.758263" style="fill: #ff7f0e; stroke: #ffffff; stroke-width: 0.3"/>
     <use xlink:href="#m7b791a8460" x="268.697064" y="94.067894" style="fill: #ff7f0e; stroke: #ffffff; stroke-width: 0.3"/>
     <use xlink:href="#m7b791a8460" x="264.878081" y="77.780062" style="fill: #ff7f0e; stroke: #ffffff; stroke-width: 0.3"/>
     <use xlink:href="#m7b791a8460" x="245.829922" y="65.187577" style="fill: #ff7f0e; stroke: #ffffff; stroke-width: 0.3"/>
     <use xlink:href="#m7b791a8460" x="271.028306" y="99.573223" style="fill: #ff7f0e; stroke: #ffffff; stroke-width: 0.3"/>
     <use xlink:href="#m7b791a8460" x="283.682699" y="123.891669" style="fill: #ff7f0e; stroke: #ffffff; stroke-width: 0.3"/>
     <use xlink:href="#m7b791a8460" x="280.192069" y="81.321287" style="fill: #ff7f0e; stroke: #ffffff; stroke-width: 0.3"/>
     <use xlink:href="#m7b791a8460" x="278.945416" y="127.261974" style="fill: #ff7f0e; stroke: #ffffff; stroke-width: 0.3"/>
     <use xlink:href="#m7b791a8460" x="253.328869" y="74.106054" style="fill: #ff7f0e; stroke: #ffffff; stroke-width: 0.3"/>
     <use xlink:href="#m7b791a8460" x="271.346457" y="80.326505" style="fill: #ff7f0e; stroke: #ffffff; stroke-width: 0.3"/>
     <use xlink:href="#m7b791a8460" x="270.167545" y="92.008412" style="fill: #ff7f0e; stroke: #ffffff; stroke-width: 0.3"/>
     <use xlink:href="#m7b791a8460" x="296.470676" y="117.244559" style="fill: #ff7f0e; stroke: #ffffff; stroke-width: 0.3"/>
     <use xlink:href="#m7b791a8460" x="238.090193" y="54.110807" style="fill: #ff7f0e; stroke: #ffffff; stroke-width: 0.3"/>
     <use xlink:href="#m7b791a8460" x="269.549088" y="89.050785" style="fill: #ff7f0e; stroke: #ffffff; stroke-width: 0.3"/>
     <use xlink:href="#m7b791a8460" x="284.808274" y="111.950884" style="fill: #ff7f0e; stroke: #ffffff; stroke-width: 0.3"/>
     <use xlink:href="#m7b791a8460" x="249.318085" y="67.962095" style="fill: #ff7f0e; stroke: #ffffff; stroke-width: 0.3"/>
     <use xlink:href="#m7b791a8460" x="233.426286" y="57.006361" style="fill: #ff7f0e; stroke: #ffffff; stroke-width: 0.3"/>
     <use xlink:href="#m7b791a8460" x="278.784219" y="70.480324" style="fill: #ff7f0e; stroke: #ffffff; stroke-width: 0.3"/>
     <use xlink:href="#m7b791a8460" x="245.445598" y="67.056821" style="fill: #ff7f0e; stroke: #ffffff; stroke-width: 0.3"/>
     <use xlink:href="#m7b791a8460" x="202.563131" y="43.597775" style="fill: #ff7f0e; stroke: #ffffff; stroke-width: 0.3"/>
     <use xlink:href="#m7b791a8460" x="212.301263" y="47.00416" style="fill: #ff7f0e; stroke: #ffffff; stroke-width: 0.3"/>
     <use xlink:href="#m7b791a8460" x="224.034305" y="48.627075" style="fill: #ff7f0e; stroke: #ffffff; stroke-width: 0.3"/>
     <use xlink:href="#m7b791a8460" x="287.918233" y="102.915325" style="fill: #ff7f0e; stroke: #ffffff; stroke-width: 0.3"/>
     <use xlink:href="#m7b791a8460" x="216.101734" y="46.742554" style="fill: #ff7f0e; stroke: #ffffff; stroke-width: 0.3"/>
     <use xlink:href="#m7b791a8460" x="241.580432" y="59.883983" style="fill: #ff7f0e; stroke: #ffffff; stroke-width: 0.3"/>
     <use xlink:href="#m7b791a8460" x="283.830192" y="117.693525" style="fill: #ff7f0e; stroke: #ffffff; stroke-width: 0.3"/>
     <use xlink:href="#m7b791a8460" x="274.499577" y="78.472727" style="fill: #ff7f0e; stroke: #ffffff; stroke-width: 0.3"/>
     <use xlink:href="#m7b791a8460" x="274.126973" y="104.248348" style="fill: #ff7f0e; stroke: #ffffff; stroke-width: 0.3"/>
     <use xlink:href="#m7b791a8460" x="243.410285" y="64.569799" style="fill: #ff7f0e; stroke: #ffffff; stroke-width: 0.3"/>
     <use xlink:href="#m7b791a8460" x="237.639514" y="62.92632" style="fill: #ff7f0e; stroke: #ffffff; stroke-width: 0.3"/>
     <use xlink:href="#m7b791a8460" x="210.380388" y="60.685635" style="fill: #ff7f0e; stroke: #ffffff; stroke-width: 0.3"/>
     <use xlink:href="#m7b791a8460" x="252.95209" y="72.866919" style="fill: #ff7f0e; stroke: #ffffff; stroke-width: 0.3"/>
     <use xlink:href="#m7b791a8460" x="221.798207" y="57.608804" style="fill: #ff7f0e; stroke: #ffffff; stroke-width: 0.3"/>
     <use xlink:href="#m7b791a8460" x="273.070682" y="92.075852" style="fill: #ff7f0e; stroke: #ffffff; stroke-width: 0.3"/>
     <use xlink:href="#m7b791a8460" x="216.927567" y="44.611616" style="fill: #ff7f0e; stroke: #ffffff; stroke-width: 0.3"/>
     <use xlink:href="#m7b791a8460" x="227.593629" y="45.036091" style="fill: #ff7f0e; stroke: #ffffff; stroke-width: 0.3"/>
     <use xlink:href="#m7b791a8460" x="248.55123" y="71.913462" style="fill: #ff7f0e; stroke: #ffffff; stroke-width: 0.3"/>
     <use xlink:href="#m7b791a8460" x="281.655555" y="99.828446" style="fill: #ff7f0e; stroke: #ffffff; stroke-width: 0.3"/>
     <use xlink:href="#m7b791a8460" x="258.347446" y="65.620156" style="fill: #ff7f0e; stroke: #ffffff; stroke-width: 0.3"/>
     <use xlink:href="#m7b791a8460" x="273.890969" y="102.866372" style="fill: #ff7f0e; stroke: #ffffff; stroke-width: 0.3"/>
     <use xlink:href="#m7b791a8460" x="261.377796" y="61.117822" style="fill: #ff7f0e; stroke: #ffffff; stroke-width: 0.3"/>
     <use xlink:href="#m7b791a8460" x="287.23655" y="121.824102" style="fill: #ff7f0e; stroke: #ffffff; stroke-width: 0.3"/>
     <use xlink:href="#m7b791a8460" x="262.131863" y="69.161357" style="fill: #ff7f0e; stroke: #ffffff; stroke-width: 0.3"/>
    </g>
   </g>
   <g id="PathCollection_4">
    <defs>
     <path id="mee1f8ba238" d="M 0 2.345208 
C 0.621956 2.345208 1.218523 2.098102 1.658312 1.658312 
C 2.098102 1.218523 2.345208 0.621956 2.345208 0 
C 2.345208 -0.621956 2.098102 -1.218523 1.658312 -1.658312 
C 1.218523 -2.098102 0.621956 -2.345208 0 -2.345208 
C -0.621956 -2.345208 -1.218523 -2.098102 -1.658312 -1.658312 
C -2.098102 -1.218523 -2.345208 -0.621956 -2.345208 0 
C -2.345208 0.621956 -2.098102 1.218523 -1.658312 1.658312 
C -1.218523 2.098102 -0.621956 2.345208 0 2.345208 
z
" style="stroke: #ffffff; stroke-width: 0.3"/>
    </defs>
    <g clip-path="url(#pf9165d701a)">
     <use xlink:href="#mee1f8ba238" x="395.688307" y="116.18137" style="fill: #2ca02c; stroke: #ffffff; stroke-width: 0.3"/>
     <use xlink:href="#mee1f8ba238" x="301.623707" y="157.634152" style="fill: #2ca02c; stroke: #ffffff; stroke-width: 0.3"/>
     <use xlink:href="#mee1f8ba238" x="325.33144" y="160.478385" style="fill: #2ca02c; stroke: #ffffff; stroke-width: 0.3"/>
     <use xlink:href="#mee1f8ba238" x="385.346079" y="120.956695" style="fill: #2ca02c; stroke: #ffffff; stroke-width: 0.3"/>
     <use xlink:href="#mee1f8ba238" x="372.958917" y="145.122394" style="fill: #2ca02c; stroke: #ffffff; stroke-width: 0.3"/>
     <use xlink:href="#mee1f8ba238" x="370.941468" y="145.087494" style="fill: #2ca02c; stroke: #ffffff; stroke-width: 0.3"/>
     <use xlink:href="#mee1f8ba238" x="363.007584" y="146.079819" style="fill: #2ca02c; stroke: #ffffff; stroke-width: 0.3"/>
     <use xlink:href="#mee1f8ba238" x="263.21898" y="170.365802" style="fill: #2ca02c; stroke: #ffffff; stroke-width: 0.3"/>
     <use xlink:href="#mee1f8ba238" x="319.168982" y="153.622349" style="fill: #2ca02c; stroke: #ffffff; stroke-width: 0.3"/>
     <use xlink:href="#mee1f8ba238" x="302.470766" y="168.074379" style="fill: #2ca02c; stroke: #ffffff; stroke-width: 0.3"/>
     <use xlink:href="#mee1f8ba238" x="296.199077" y="165.909952" style="fill: #2ca02c; stroke: #ffffff; stroke-width: 0.3"/>
     <use xlink:href="#mee1f8ba238" x="389.203004" y="118.253696" style="fill: #2ca02c; stroke: #ffffff; stroke-width: 0.3"/>
     <use xlink:href="#mee1f8ba238" x="417.173003" y="99.608897" style="fill: #2ca02c; stroke: #ffffff; stroke-width: 0.3"/>
     <use xlink:href="#mee1f8ba238" x="386.398492" y="121.826213" style="fill: #2ca02c; stroke: #ffffff; stroke-width: 0.3"/>
     <use xlink:href="#mee1f8ba238" x="408.58703" y="92.307403" style="fill: #2ca02c; stroke: #ffffff; stroke-width: 0.3"/>
     <use xlink:href="#mee1f8ba238" x="416.350129" y="77.032558" style="fill: #2ca02c; stroke: #ffffff; stroke-width: 0.3"/>
     <use xlink:href="#mee1f8ba238" x="356.207596" y="149.229178" style="fill: #2ca02c; stroke: #ffffff; stroke-width: 0.3"/>
     <use xlink:href="#mee1f8ba238" x="349.170896" y="159.129765" style="fill: #2ca02c; stroke: #ffffff; stroke-width: 0.3"/>
     <use xlink:href="#mee1f8ba238" x="404.970157" y="137.045015" style="fill: #2ca02c; stroke: #ffffff; stroke-width: 0.3"/>
     <use xlink:href="#mee1f8ba238" x="335.455519" y="154.93964" style="fill: #2ca02c; stroke: #ffffff; stroke-width: 0.3"/>
     <use xlink:href="#mee1f8ba238" x="381.599923" y="137.250308" style="fill: #2ca02c; stroke: #ffffff; stroke-width: 0.3"/>
     <use xlink:href="#mee1f8ba238" x="274.269059" y="160.277064" style="fill: #2ca02c; stroke: #ffffff; stroke-width: 0.3"/>
     <use xlink:href="#mee1f8ba238" x="300.315563" y="165.789597" style="fill: #2ca02c; stroke: #ffffff; stroke-width: 0.3"/>
     <use xlink:href="#mee1f8ba238" x="274.355826" y="163.779983" style="fill: #2ca02c; stroke: #ffffff; stroke-width: 0.3"/>
     <use xlink:href="#mee1f8ba238" x="265.588999" y="160.836452" style="fill: #2ca02c; stroke: #ffffff; stroke-width: 0.3"/>
     <use xlink:href="#mee1f8ba238" x="285.823133" y="166.818483" style="fill: #2ca02c; stroke: #ffffff; stroke-width: 0.3"/>
     <use xlink:href="#mee1f8ba238" x="325.108331" y="163.416557" style="fill: #2ca02c; stroke: #ffffff; stroke-width: 0.3"/>
     <use xlink:href="#mee1f8ba238" x="408.88602" y="98.686584" style="fill: #2ca02c; stroke: #ffffff; stroke-width: 0.3"/>
     <use xlink:href="#mee1f8ba238" x="412.595256" y="83.519578" style="fill: #2ca02c; stroke: #ffffff; stroke-width: 0.3"/>
     <use xlink:href="#mee1f8ba238" x="349.158254" y="145.434066" style="fill: #2ca02c; stroke: #ffffff; stroke-width: 0.3"/>
     <use xlink:href="#mee1f8ba238" x="293.082702" y="164.35282" style="fill: #2ca02c; stroke: #ffffff; stroke-width: 0.3"/>
     <use xlink:href="#mee1f8ba238" x="273.628196" y="157.023837" style="fill: #2ca02c; stroke: #ffffff; stroke-width: 0.3"/>
     <use xlink:href="#mee1f8ba238" x="402.181958" y="107.497081" style="fill: #2ca02c; stroke: #ffffff; stroke-width: 0.3"/>
     <use xlink:href="#mee1f8ba238" x="264.545334" y="167.216754" style="fill: #2ca02c; stroke: #ffffff; stroke-width: 0.3"/>
     <use xlink:href="#mee1f8ba238" x="404.745239" y="84.397419" style="fill: #2ca02c; stroke: #ffffff; stroke-width: 0.3"/>
     <use xlink:href="#mee1f8ba238" x="318.679959" y="164.010361" style="fill: #2ca02c; stroke: #ffffff; stroke-width: 0.3"/>
     <use xlink:href="#mee1f8ba238" x="266.946911" y="163.119687" style="fill: #2ca02c; stroke: #ffffff; stroke-width: 0.3"/>
     <use xlink:href="#mee1f8ba238" x="358.036925" y="162.398655" style="fill: #2ca02c; stroke: #ffffff; stroke-width: 0.3"/>
     <use xlink:href="#mee1f8ba238" x="299.757122" y="170.314747" style="fill: #2ca02c; stroke: #ffffff; stroke-width: 0.3"/>
     <use xlink:href="#mee1f8ba238" x="402.824302" y="99.067746" style="fill: #2ca02c; stroke: #ffffff; stroke-width: 0.3"/>
     <use xlink:href="#mee1f8ba238" x="312.508424" y="164.277813" style="fill: #2ca02c; stroke: #ffffff; stroke-width: 0.3"/>
     <use xlink:href="#mee1f8ba238" x="385.838057" y="145.428055" style="fill: #2ca02c; stroke: #ffffff; stroke-width: 0.3"/>
     <use xlink:href="#mee1f8ba238" x="342.680555" y="153.728919" style="fill: #2ca02c; stroke: #ffffff; stroke-width: 0.3"/>
     <use xlink:href="#mee1f8ba238" x="279.370737" y="170.779273" style="fill: #2ca02c; stroke: #ffffff; stroke-width: 0.3"/>
     <use xlink:href="#mee1f8ba238" x="401.877651" y="126.246678" style="fill: #2ca02c; stroke: #ffffff; stroke-width: 0.3"/>
     <use xlink:href="#mee1f8ba238" x="402.920194" y="129.925381" style="fill: #2ca02c; stroke: #ffffff; stroke-width: 0.3"/>
     <use xlink:href="#mee1f8ba238" x="377.565858" y="138.564023" style="fill: #2ca02c; stroke: #ffffff; stroke-width: 0.3"/>
     <use xlink:href="#mee1f8ba238" x="385.830627" y="124.107672" style="fill: #2ca02c; stroke: #ffffff; stroke-width: 0.3"/>
     <use xlink:href="#mee1f8ba238" x="402.753194" y="129.597331" style="fill: #2ca02c; stroke: #ffffff; stroke-width: 0.3"/>
     <use xlink:href="#mee1f8ba238" x="372.899619" y="132.500246" style="fill: #2ca02c; stroke: #ffffff; stroke-width: 0.3"/>
     <use xlink:href="#mee1f8ba238" x="412.791979" y="79.58059" style="fill: #2ca02c; stroke: #ffffff; stroke-width: 0.3"/>
     <use xlink:href="#mee1f8ba238" x="345.270546" y="155.744775" style="fill: #2ca02c; stroke: #ffffff; stroke-width: 0.3"/>
     <use xlink:href="#mee1f8ba238" x="348.440669" y="160.079844" style="fill: #2ca02c; stroke: #ffffff; stroke-width: 0.3"/>
     <use xlink:href="#mee1f8ba238" x="403.601556" y="115.936795" style="fill: #2ca02c; stroke: #ffffff; stroke-width: 0.3"/>
     <use xlink:href="#mee1f8ba238" x="381.444447" y="140.481924" style="fill: #2ca02c; stroke: #ffffff; stroke-width: 0.3"/>
     <use xlink:href="#mee1f8ba238" x="393.842745" y="133.92305" style="fill: #2ca02c; stroke: #ffffff; stroke-width: 0.3"/>
     <use xlink:href="#mee1f8ba238" x="411.342878" y="96.655563" style="fill: #2ca02c; stroke: #ffffff; stroke-width: 0.3"/>
     <use xlink:href="#mee1f8ba238" x="412.083352" y="95.38465" style="fill: #2ca02c; stroke: #ffffff; stroke-width: 0.3"/>
     <use xlink:href="#mee1f8ba238" x="296.176904" y="158.734585" style="fill: #2ca02c; stroke: #ffffff; stroke-width: 0.3"/>
     <use xlink:href="#mee1f8ba238" x="340.48317" y="151.61965" style="fill: #2ca02c; stroke: #ffffff; stroke-width: 0.3"/>
     <use xlink:href="#mee1f8ba238" x="272.049057" y="162.279599" style="fill: #2ca02c; stroke: #ffffff; stroke-width: 0.3"/>
     <use xlink:href="#mee1f8ba238" x="332.331282" y="156.966206" style="fill: #2ca02c; stroke: #ffffff; stroke-width: 0.3"/>
     <use xlink:href="#mee1f8ba238" x="418.037988" y="94.46993" style="fill: #2ca02c; stroke: #ffffff; stroke-width: 0.3"/>
     <use xlink:href="#mee1f8ba238" x="357.371864" y="156.162825" style="fill: #2ca02c; stroke: #ffffff; stroke-width: 0.3"/>
     <use xlink:href="#mee1f8ba238" x="396.263019" y="110.924108" style="fill: #2ca02c; stroke: #ffffff; stroke-width: 0.3"/>
     <use xlink:href="#mee1f8ba238" x="306.291926" y="170.704167" style="fill: #2ca02c; stroke: #ffffff; stroke-width: 0.3"/>
     <use xlink:href="#mee1f8ba238" x="414.810066" y="95.14622" style="fill: #2ca02c; stroke: #ffffff; stroke-width: 0.3"/>
     <use xlink:href="#mee1f8ba238" x="380.176141" y="138.852336" style="fill: #2ca02c; stroke: #ffffff; stroke-width: 0.3"/>
     <use xlink:href="#mee1f8ba238" x="405.498678" y="104.05245" style="fill: #2ca02c; stroke: #ffffff; stroke-width: 0.3"/>
     <use xlink:href="#mee1f8ba238" x="354.366243" y="142.401017" style="fill: #2ca02c; stroke: #ffffff; stroke-width: 0.3"/>
    </g>
   </g>
   <g id="PathCollection_5">
    <defs>
     <path id="m13d7be5aef" d="M 0 2.345208 
C 0.621956 2.345208 1.218523 2.098102 1.658312 1.658312 
C 2.098102 1.218523 2.345208 0.621956 2.345208 0 
C 2.345208 -0.621956 2.098102 -1.218523 1.658312 -1.658312 
C 1.218523 -2.098102 0.621956 -2.345208 0 -2.345208 
C -0.621956 -2.345208 -1.218523 -2.098102 -1.658312 -1.658312 
C -2.098102 -1.218523 -2.345208 -0.621956 -2.345208 0 
C -2.345208 0.621956 -2.098102 1.218523 -1.658312 1.658312 
C -1.218523 2.098102 -0.621956 2.345208 0 2.345208 
z
" style="stroke: #ffffff; stroke-width: 0.3"/>
    </defs>
    <g clip-path="url(#pf9165d701a)">
     <use xlink:href="#m13d7be5aef" x="99.493014" y="62.787109" style="fill: #9467bd; stroke: #ffffff; stroke-width: 0.3"/>
     <use xlink:href="#m13d7be5aef" x="99.380378" y="48.882863" style="fill: #9467bd; stroke: #ffffff; stroke-width: 0.3"/>
     <use xlink:href="#m13d7be5aef" x="78.943059" y="64.887703" style="fill: #9467bd; stroke: #ffffff; stroke-width: 0.3"/>
     <use xlink:href="#m13d7be5aef" x="180.636987" y="49.539462" style="fill: #9467bd; stroke: #ffffff; stroke-width: 0.3"/>
     <use xlink:href="#m13d7be5aef" x="154.8157" y="38.588204" style="fill: #9467bd; stroke: #ffffff; stroke-width: 0.3"/>
     <use xlink:href="#m13d7be5aef" x="90.026708" y="72.10602" style="fill: #9467bd; stroke: #ffffff; stroke-width: 0.3"/>
     <use xlink:href="#m13d7be5aef" x="141.630639" y="43.389592" style="fill: #9467bd; stroke: #ffffff; stroke-width: 0.3"/>
     <use xlink:href="#m13d7be5aef" x="28.262287" y="121.135394" style="fill: #9467bd; stroke: #ffffff; stroke-width: 0.3"/>
     <use xlink:href="#m13d7be5aef" x="174.774733" y="41.453797" style="fill: #9467bd; stroke: #ffffff; stroke-width: 0.3"/>
     <use xlink:href="#m13d7be5aef" x="52.154973" y="78.252126" style="fill: #9467bd; stroke: #ffffff; stroke-width: 0.3"/>
     <use xlink:href="#m13d7be5aef" x="188.188416" y="46.114704" style="fill: #9467bd; stroke: #ffffff; stroke-width: 0.3"/>
     <use xlink:href="#m13d7be5aef" x="171.071211" y="48.049528" style="fill: #9467bd; stroke: #ffffff; stroke-width: 0.3"/>
     <use xlink:href="#m13d7be5aef" x="185.161492" y="30.406675" style="fill: #9467bd; stroke: #ffffff; stroke-width: 0.3"/>
     <use xlink:href="#m13d7be5aef" x="37.93065" y="101.532035" style="fill: #9467bd; stroke: #ffffff; stroke-width: 0.3"/>
     <use xlink:href="#m13d7be5aef" x="57.035217" y="79.206822" style="fill: #9467bd; stroke: #ffffff; stroke-width: 0.3"/>
     <use xlink:href="#m13d7be5aef" x="53.04098" y="89.980675" style="fill: #9467bd; stroke: #ffffff; stroke-width: 0.3"/>
     <use xlink:href="#m13d7be5aef" x="55.647622" y="72.428852" style="fill: #9467bd; stroke: #ffffff; stroke-width: 0.3"/>
     <use xlink:href="#m13d7be5aef" x="150.820556" y="30.425396" style="fill: #9467bd; stroke: #ffffff; stroke-width: 0.3"/>
     <use xlink:href="#m13d7be5aef" x="134.965707" y="45.18887" style="fill: #9467bd; stroke: #ffffff; stroke-width: 0.3"/>
     <use xlink:href="#m13d7be5aef" x="57.838844" y="97.618066" style="fill: #9467bd; stroke: #ffffff; stroke-width: 0.3"/>
     <use xlink:href="#m13d7be5aef" x="82.862131" y="51.197725" style="fill: #9467bd; stroke: #ffffff; stroke-width: 0.3"/>
     <use xlink:href="#m13d7be5aef" x="164.774831" y="35.13794" style="fill: #9467bd; stroke: #ffffff; stroke-width: 0.3"/>
     <use xlink:href="#m13d7be5aef" x="40.368563" y="118.21114" style="fill: #9467bd; stroke: #ffffff; stroke-width: 0.3"/>
     <use xlink:href="#m13d7be5aef" x="47.952992" y="89.03057" style="fill: #9467bd; stroke: #ffffff; stroke-width: 0.3"/>
     <use xlink:href="#m13d7be5aef" x="82.08906" y="51.118365" style="fill: #9467bd; stroke: #ffffff; stroke-width: 0.3"/>
     <use xlink:href="#m13d7be5aef" x="47.682721" y="75.746596" style="fill: #9467bd; stroke: #ffffff; stroke-width: 0.3"/>
     <use xlink:href="#m13d7be5aef" x="136.66131" y="33.903705" style="fill: #9467bd; stroke: #ffffff; stroke-width: 0.3"/>
     <use xlink:href="#m13d7be5aef" x="38.656955" y="121.889175" style="fill: #9467bd; stroke: #ffffff; stroke-width: 0.3"/>
     <use xlink:href="#m13d7be5aef" x="32.088786" y="110.124071" style="fill: #9467bd; stroke: #ffffff; stroke-width: 0.3"/>
     <use xlink:href="#m13d7be5aef" x="129.833764" y="49.063886" style="fill: #9467bd; stroke: #ffffff; stroke-width: 0.3"/>
     <use xlink:href="#m13d7be5aef" x="68.112465" y="66.062517" style="fill: #9467bd; stroke: #ffffff; stroke-width: 0.3"/>
     <use xlink:href="#m13d7be5aef" x="114.10413" y="46.878175" style="fill: #9467bd; stroke: #ffffff; stroke-width: 0.3"/>
     <use xlink:href="#m13d7be5aef" x="188.047638" y="45.16774" style="fill: #9467bd; stroke: #ffffff; stroke-width: 0.3"/>
     <use xlink:href="#m13d7be5aef" x="28.414364" y="91.421523" style="fill: #9467bd; stroke: #ffffff; stroke-width: 0.3"/>
     <use xlink:href="#m13d7be5aef" x="75.766809" y="68.41519" style="fill: #9467bd; stroke: #ffffff; stroke-width: 0.3"/>
     <use xlink:href="#m13d7be5aef" x="188.477045" y="47.330542" style="fill: #9467bd; stroke: #ffffff; stroke-width: 0.3"/>
     <use xlink:href="#m13d7be5aef" x="33.868681" y="124.571248" style="fill: #9467bd; stroke: #ffffff; stroke-width: 0.3"/>
     <use xlink:href="#m13d7be5aef" x="100.175784" y="47.226713" style="fill: #9467bd; stroke: #ffffff; stroke-width: 0.3"/>
     <use xlink:href="#m13d7be5aef" x="81.540121" y="73.545" style="fill: #9467bd; stroke: #ffffff; stroke-width: 0.3"/>
     <use xlink:href="#m13d7be5aef" x="81.557566" y="65.831272" style="fill: #9467bd; stroke: #ffffff; stroke-width: 0.3"/>
     <use xlink:href="#m13d7be5aef" x="36.225449" y="76.241019" style="fill: #9467bd; stroke: #ffffff; stroke-width: 0.3"/>
     <use xlink:href="#m13d7be5aef" x="62.912383" y="65.40062" style="fill: #9467bd; stroke: #ffffff; stroke-width: 0.3"/>
     <use xlink:href="#m13d7be5aef" x="43.371422" y="88.137865" style="fill: #9467bd; stroke: #ffffff; stroke-width: 0.3"/>
     <use xlink:href="#m13d7be5aef" x="72.197555" y="70.716459" style="fill: #9467bd; stroke: #ffffff; stroke-width: 0.3"/>
     <use xlink:href="#m13d7be5aef" x="164.468739" y="32.510906" style="fill: #9467bd; stroke: #ffffff; stroke-width: 0.3"/>
     <use xlink:href="#m13d7be5aef" x="51.062308" y="113.181512" style="fill: #9467bd; stroke: #ffffff; stroke-width: 0.3"/>
     <use xlink:href="#m13d7be5aef" x="48.549036" y="86.254496" style="fill: #9467bd; stroke: #ffffff; stroke-width: 0.3"/>
     <use xlink:href="#m13d7be5aef" x="161.154552" y="42.925047" style="fill: #9467bd; stroke: #ffffff; stroke-width: 0.3"/>
     <use xlink:href="#m13d7be5aef" x="126.892209" y="47.816716" style="fill: #9467bd; stroke: #ffffff; stroke-width: 0.3"/>
     <use xlink:href="#m13d7be5aef" x="40.460667" y="85.497657" style="fill: #9467bd; stroke: #ffffff; stroke-width: 0.3"/>
     <use xlink:href="#m13d7be5aef" x="194.366768" y="39.268725" style="fill: #9467bd; stroke: #ffffff; stroke-width: 0.3"/>
     <use xlink:href="#m13d7be5aef" x="44.987365" y="91.675954" style="fill: #9467bd; stroke: #ffffff; stroke-width: 0.3"/>
     <use xlink:href="#m13d7be5aef" x="83.86854" y="54.606727" style="fill: #9467bd; stroke: #ffffff; stroke-width: 0.3"/>
     <use xlink:href="#m13d7be5aef" x="139.358837" y="50.418168" style="fill: #9467bd; stroke: #ffffff; stroke-width: 0.3"/>
     <use xlink:href="#m13d7be5aef" x="127.251611" y="42.628178" style="fill: #9467bd; stroke: #ffffff; stroke-width: 0.3"/>
     <use xlink:href="#m13d7be5aef" x="27.163636" y="119.60735" style="fill: #9467bd; stroke: #ffffff; stroke-width: 0.3"/>
     <use xlink:href="#m13d7be5aef" x="95.397156" y="54.487826" style="fill: #9467bd; stroke: #ffffff; stroke-width: 0.3"/>
     <use xlink:href="#m13d7be5aef" x="177.375288" y="44.011697" style="fill: #9467bd; stroke: #ffffff; stroke-width: 0.3"/>
     <use xlink:href="#m13d7be5aef" x="158.725487" y="44.9517" style="fill: #9467bd; stroke: #ffffff; stroke-width: 0.3"/>
     <use xlink:href="#m13d7be5aef" x="76.7113" y="61.569756" style="fill: #9467bd; stroke: #ffffff; stroke-width: 0.3"/>
     <use xlink:href="#m13d7be5aef" x="152.546453" y="37.377846" style="fill: #9467bd; stroke: #ffffff; stroke-width: 0.3"/>
     <use xlink:href="#m13d7be5aef" x="145.179253" y="46.937733" style="fill: #9467bd; stroke: #ffffff; stroke-width: 0.3"/>
     <use xlink:href="#m13d7be5aef" x="38.16211" y="107.889906" style="fill: #9467bd; stroke: #ffffff; stroke-width: 0.3"/>
     <use xlink:href="#m13d7be5aef" x="65.852949" y="66.609884" style="fill: #9467bd; stroke: #ffffff; stroke-width: 0.3"/>
     <use xlink:href="#m13d7be5aef" x="114.439323" y="36.623447" style="fill: #9467bd; stroke: #ffffff; stroke-width: 0.3"/>
     <use xlink:href="#m13d7be5aef" x="34.501705" y="104.823712" style="fill: #9467bd; stroke: #ffffff; stroke-width: 0.3"/>
     <use xlink:href="#m13d7be5aef" x="109.053104" y="46.920898" style="fill: #9467bd; stroke: #ffffff; stroke-width: 0.3"/>
     <use xlink:href="#m13d7be5aef" x="106.524665" y="47.288434" style="fill: #9467bd; stroke: #ffffff; stroke-width: 0.3"/>
     <use xlink:href="#m13d7be5aef" x="145.954487" y="44.566487" style="fill: #9467bd; stroke: #ffffff; stroke-width: 0.3"/>
     <use xlink:href="#m13d7be5aef" x="75.264426" y="53.834794" style="fill: #9467bd; stroke: #ffffff; stroke-width: 0.3"/>
     <use xlink:href="#m13d7be5aef" x="98.834805" y="58.582527" style="fill: #9467bd; stroke: #ffffff; stroke-width: 0.3"/>
     <use xlink:href="#m13d7be5aef" x="47.912366" y="93.732152" style="fill: #9467bd; stroke: #ffffff; stroke-width: 0.3"/>
     <use xlink:href="#m13d7be5aef" x="52.744509" y="91.929586" style="fill: #9467bd; stroke: #ffffff; stroke-width: 0.3"/>
    </g>
   </g>
   <g id="patch_3">
    <path d="M 226.084783 164.351112 
C 229.755488 164.351112 233.276344 162.892725 235.871924 160.297145 
C 238.467504 157.701565 239.925891 154.180709 239.925891 150.510004 
C 239.925891 146.839299 238.467504 143.318443 235.871924 140.722863 
C 233.276344 138.127283 229.755488 136.668896 226.084783 136.668896 
C 222.414078 136.668896 218.893222 138.127283 216.297642 140.722863 
C 213.702062 143.318443 212.243675 146.839299 212.243675 150.510004 
C 212.243675 154.180709 213.702062 157.701565 216.297642 160.297145 
C 218.893222 162.892725 222.414078 164.351112 226.084783 164.351112 
L 226.084783 164.351112 
z
" clip-path="url(#pf9165d701a)" style="fill: none; opacity: 0.55; stroke: #555555; stroke-linejoin: miter"/>
   </g>
   <g id="patch_4">
    <path d="M 141.630639 57.2307 
C 145.301344 57.2307 148.8222 55.772314 151.41778 53.176733 
C 154.013361 50.581153 155.471747 47.060297 155.471747 43.389592 
C 155.471747 39.718887 154.013361 36.198031 151.41778 33.602451 
C 148.8222 31.006871 145.301344 29.548484 141.630639 29.548484 
C 137.959934 29.548484 134.439078 31.006871 131.843498 33.602451 
C 129.247918 36.198031 127.789531 39.718887 127.789531 43.389592 
C 127.789531 47.060297 129.247918 50.581153 131.843498 53.176733 
C 134.439078 55.772314 137.959934 57.2307 141.630639 57.2307 
L 141.630639 57.2307 
z
" clip-path="url(#pf9165d701a)" style="fill: none; opacity: 0.55; stroke: #555555; stroke-linejoin: miter"/>
   </g>
   <g id="patch_5">
    <path d="M 134.965707 59.029977 
C 138.636411 59.029977 142.157268 57.571591 144.752848 54.976011 
C 147.348428 52.380431 148.806814 48.859574 148.806814 45.18887 
C 148.806814 41.518165 147.348428 37.997309 144.752848 35.401728 
C 142.157268 32.806148 138.636411 31.347762 134.965707 31.347762 
C 131.295002 31.347762 127.774146 32.806148 125.178565 35.401728 
C 122.582985 37.997309 121.124599 41.518165 121.124599 45.18887 
C 121.124599 48.859574 122.582985 52.380431 125.178565 54.976011 
C 127.774146 57.571591 131.295002 59.029977 134.965707 59.029977 
L 134.965707 59.029977 
z
" clip-path="url(#pf9165d701a)" style="fill: none; opacity: 0.55; stroke: #555555; stroke-linejoin: miter"/>
   </g>
   <g id="patch_6">
    <path d="M 274.269059 174.118172 
C 277.939763 174.118172 281.46062 172.659786 284.0562 170.064205 
C 286.65178 167.468625 288.110166 163.947769 288.110166 160.277064 
C 288.110166 156.60636 286.65178 153.085503 284.0562 150.489923 
C 281.46062 147.894343 277.939763 146.435956 274.269059 146.435956 
C 270.598354 146.435956 267.077498 147.894343 264.481917 150.489923 
C 261.886337 153.085503 260.427951 156.60636 260.427951 160.277064 
C 260.427951 163.947769 261.886337 167.468625 264.481917 170.064205 
C 267.077498 172.659786 270.598354 174.118172 274.269059 174.118172 
L 274.269059 174.118172 
z
" clip-path="url(#pf9165d701a)" style="fill: none; opacity: 0.55; stroke: #555555; stroke-linejoin: miter"/>
   </g>
   <g id="patch_7">
    <path d="M 412.595256 97.360686 
C 416.265961 97.360686 419.786817 95.902299 422.382397 93.306719 
C 424.977977 90.711139 426.436364 87.190282 426.436364 83.519578 
C 426.436364 79.848873 424.977977 76.328017 422.382397 73.732437 
C 419.786817 71.136856 416.265961 69.67847 412.595256 69.67847 
C 408.924551 69.67847 405.403695 71.136856 402.808115 73.732437 
C 400.212534 76.328017 398.754148 79.848873 398.754148 83.519578 
C 398.754148 87.190282 400.212534 90.711139 402.808115 93.306719 
C 405.403695 95.902299 408.924551 97.360686 412.595256 97.360686 
L 412.595256 97.360686 
z
" clip-path="url(#pf9165d701a)" style="fill: none; opacity: 0.55; stroke: #555555; stroke-linejoin: miter"/>
   </g>
   <g id="patch_8">
    <path d="M 236.930207 173.959205 
C 240.600912 173.959205 244.121768 172.500818 246.717348 169.905238 
C 249.312928 167.309658 250.771315 163.788802 250.771315 160.118097 
C 250.771315 156.447392 249.312928 152.926536 246.717348 150.330956 
C 244.121768 147.735376 240.600912 146.276989 236.930207 146.276989 
C 233.259502 146.276989 229.738646 147.735376 227.143066 150.330956 
C 224.547485 152.926536 223.089099 156.447392 223.089099 160.118097 
C 223.089099 163.788802 224.547485 167.309658 227.143066 169.905238 
C 229.738646 172.500818 233.259502 173.959205 236.930207 173.959205 
L 236.930207 173.959205 
z
" clip-path="url(#pf9165d701a)" style="fill: none; opacity: 0.55; stroke: #555555; stroke-linejoin: miter"/>
   </g>
   <g id="patch_9">
    <path d="M 202.473501 145.984085 
C 206.144206 145.984085 209.665062 144.525698 212.260642 141.930118 
C 214.856222 139.334538 216.314609 135.813682 216.314609 132.142977 
C 216.314609 128.472272 214.856222 124.951416 212.260642 122.355836 
C 209.665062 119.760256 206.144206 118.301869 202.473501 118.301869 
C 198.802796 118.301869 195.28194 119.760256 192.68636 122.355836 
C 190.090779 124.951416 188.632393 128.472272 188.632393 132.142977 
C 188.632393 135.813682 190.090779 139.334538 192.68636 141.930118 
C 195.28194 144.525698 198.802796 145.984085 202.473501 145.984085 
L 202.473501 145.984085 
z
" clip-path="url(#pf9165d701a)" style="fill: none; opacity: 0.55; stroke: #555555; stroke-linejoin: miter"/>
   </g>
   <g id="patch_10">
    <path d="M 178.611809 123.068951 
C 182.282514 123.068951 185.80337 121.610564 188.39895 119.014984 
C 190.994531 116.419404 192.452917 112.898548 192.452917 109.227843 
C 192.452917 105.557138 190.994531 102.036282 188.39895 99.440702 
C 185.80337 96.845122 182.282514 95.386735 178.611809 95.386735 
C 174.941104 95.386735 171.420248 96.845122 168.824668 99.440702 
C 166.229088 102.036282 164.770701 105.557138 164.770701 109.227843 
C 164.770701 112.898548 166.229088 116.419404 168.824668 119.014984 
C 171.420248 121.610564 174.941104 123.068951 178.611809 123.068951 
L 178.611809 123.068951 
z
" clip-path="url(#pf9165d701a)" style="fill: none; opacity: 0.55; stroke: #555555; stroke-linejoin: miter"/>
   </g>
   <g id="matplotlib.axis_1"/>
   <g id="matplotlib.axis_2"/>
   <g id="patch_11">
    <path d="M 7.2 181.346656 
L 7.2 22.32 
" style="fill: none; stroke: #555555; stroke-width: 0.8; stroke-linejoin: miter; stroke-linecap: square"/>
   </g>
   <g id="patch_12">
    <path d="M 446.4 181.346656 
L 446.4 22.32 
" style="fill: none; stroke: #555555; stroke-width: 0.8; stroke-linejoin: miter; stroke-linecap: square"/>
   </g>
   <g id="patch_13">
    <path d="M 7.2 181.346656 
L 446.4 181.346656 
" style="fill: none; stroke: #555555; stroke-width: 0.8; stroke-linejoin: miter; stroke-linecap: square"/>
   </g>
   <g id="patch_14">
    <path d="M 7.2 22.32 
L 446.4 22.32 
" style="fill: none; stroke: #555555; stroke-width: 0.8; stroke-linejoin: miter; stroke-linecap: square"/>
   </g>
   <g id="text_1">
    <!-- DBSCAN $\epsilon$-neighborhoods connect core points -->
    <g transform="translate(88.14 16.32) scale(0.12 -0.12)">
     <defs>
      <path id="DejaVuSans-44" d="M 1259 4147 
L 1259 519 
L 2022 519 
Q 2988 519 3436 956 
Q 3884 1394 3884 2338 
Q 3884 3275 3436 3711 
Q 2988 4147 2022 4147 
L 1259 4147 
z
M 628 4666 
L 1925 4666 
Q 3281 4666 3915 4102 
Q 4550 3538 4550 2338 
Q 4550 1131 3912 565 
Q 3275 0 1925 0 
L 628 0 
L 628 4666 
z
" transform="scale(0.015625)"/>
      <path id="DejaVuSans-42" d="M 1259 2228 
L 1259 519 
L 2272 519 
Q 2781 519 3026 730 
Q 3272 941 3272 1375 
Q 3272 1813 3026 2020 
Q 2781 2228 2272 2228 
L 1259 2228 
z
M 1259 4147 
L 1259 2741 
L 2194 2741 
Q 2656 2741 2882 2914 
Q 3109 3088 3109 3444 
Q 3109 3797 2882 3972 
Q 2656 4147 2194 4147 
L 1259 4147 
z
M 628 4666 
L 2241 4666 
Q 2963 4666 3353 4366 
Q 3744 4066 3744 3513 
Q 3744 3084 3544 2831 
Q 3344 2578 2956 2516 
Q 3422 2416 3680 2098 
Q 3938 1781 3938 1306 
Q 3938 681 3513 340 
Q 3088 0 2303 0 
L 628 0 
L 628 4666 
z
" transform="scale(0.015625)"/>
      <path id="DejaVuSans-53" d="M 3425 4513 
L 3425 3897 
Q 3066 4069 2747 4153 
Q 2428 4238 2131 4238 
Q 1616 4238 1336 4038 
Q 1056 3838 1056 3469 
Q 1056 3159 1242 3001 
Q 1428 2844 1947 2747 
L 2328 2669 
Q 3034 2534 3370 2195 
Q 3706 1856 3706 1288 
Q 3706 609 3251 259 
Q 2797 -91 1919 -91 
Q 1588 -91 1214 -16 
Q 841 59 441 206 
L 441 856 
Q 825 641 1194 531 
Q 1563 422 1919 422 
Q 2459 422 2753 634 
Q 3047 847 3047 1241 
Q 3047 1584 2836 1778 
Q 2625 1972 2144 2069 
L 1759 2144 
Q 1053 2284 737 2584 
Q 422 2884 422 3419 
Q 422 4038 858 4394 
Q 1294 4750 2059 4750 
Q 2388 4750 2728 4690 
Q 3069 4631 3425 4513 
z
" transform="scale(0.015625)"/>
      <path id="DejaVuSans-43" d="M 4122 4306 
L 4122 3641 
Q 3803 3938 3442 4084 
Q 3081 4231 2675 4231 
Q 1875 4231 1450 3742 
Q 1025 3253 1025 2328 
Q 1025 1406 1450 917 
Q 1875 428 2675 428 
Q 3081 428 3442 575 
Q 3803 722 4122 1019 
L 4122 359 
Q 3791 134 3420 21 
Q 3050 -91 2638 -91 
Q 1578 -91 968 557 
Q 359 1206 359 2328 
Q 359 3453 968 4101 
Q 1578 4750 2638 4750 
Q 3056 4750 3426 4639 
Q 3797 4528 4122 4306 
z
" transform="scale(0.015625)"/>
      <path id="DejaVuSans-41" d="M 2188 4044 
L 1331 1722 
L 3047 1722 
L 2188 4044 
z
M 1831 4666 
L 2547 4666 
L 4325 0 
L 3669 0 
L 3244 1197 
L 1141 1197 
L 716 0 
L 50 0 
L 1831 4666 
z
" transform="scale(0.015625)"/>
      <path id="DejaVuSans-4e" d="M 628 4666 
L 1478 4666 
L 3547 763 
L 3547 4666 
L 4159 4666 
L 4159 0 
L 3309 0 
L 1241 3903 
L 1241 0 
L 628 0 
L 628 4666 
z
" transform="scale(0.015625)"/>
      <path id="DejaVuSans-20" transform="scale(0.015625)"/>
      <path id="DejaVuSans-Oblique-3b5" d="M 1263 1888 
Q 925 1963 778 2166 
Q 669 2309 669 2503 
Q 669 3034 1175 3344 
Q 1575 3588 2188 3588 
Q 2425 3588 2684 3550 
Q 2944 3513 3234 3438 
L 3134 2916 
Q 2847 3006 2606 3047 
Q 2359 3088 2138 3088 
Q 1766 3088 1522 2944 
Q 1228 2772 1228 2522 
Q 1228 2356 1381 2241 
Q 1563 2103 1925 2103 
L 2409 2103 
L 2319 1628 
L 1856 1628 
Q 1425 1628 1172 1469 
Q 828 1253 828 916 
Q 828 703 1013 563 
Q 1244 388 1716 388 
Q 2006 388 2284 444 
Q 2563 503 2806 619 
L 2700 84 
Q 2403 -3 2131 -47 
Q 1859 -91 1609 -91 
Q 866 -91 516 194 
Q 250 413 250 781 
Q 250 1278 600 1584 
Q 859 1813 1263 1888 
z
" transform="scale(0.015625)"/>
      <path id="DejaVuSans-2d" d="M 313 2009 
L 1997 2009 
L 1997 1497 
L 313 1497 
L 313 2009 
z
" transform="scale(0.015625)"/>
      <path id="DejaVuSans-6e" d="M 3513 2113 
L 3513 0 
L 2938 0 
L 2938 2094 
Q 2938 2591 2744 2837 
Q 2550 3084 2163 3084 
Q 1697 3084 1428 2787 
Q 1159 2491 1159 1978 
L 1159 0 
L 581 0 
L 581 3500 
L 1159 3500 
L 1159 2956 
Q 1366 3272 1645 3428 
Q 1925 3584 2291 3584 
Q 2894 3584 3203 3211 
Q 3513 2838 3513 2113 
z
" transform="scale(0.015625)"/>
      <path id="DejaVuSans-65" d="M 3597 1894 
L 3597 1613 
L 953 1613 
Q 991 1019 1311 708 
Q 1631 397 2203 397 
Q 2534 397 2845 478 
Q 3156 559 3463 722 
L 3463 178 
Q 3153 47 2828 -22 
Q 2503 -91 2169 -91 
Q 1331 -91 842 396 
Q 353 884 353 1716 
Q 353 2575 817 3079 
Q 1281 3584 2069 3584 
Q 2775 3584 3186 3129 
Q 3597 2675 3597 1894 
z
M 3022 2063 
Q 3016 2534 2758 2815 
Q 2500 3097 2075 3097 
Q 1594 3097 1305 2825 
Q 1016 2553 972 2059 
L 3022 2063 
z
" transform="scale(0.015625)"/>
      <path id="DejaVuSans-69" d="M 603 3500 
L 1178 3500 
L 1178 0 
L 603 0 
L 603 3500 
z
M 603 4863 
L 1178 4863 
L 1178 4134 
L 603 4134 
L 603 4863 
z
" transform="scale(0.015625)"/>
      <path id="DejaVuSans-67" d="M 2906 1791 
Q 2906 2416 2648 2759 
Q 2391 3103 1925 3103 
Q 1463 3103 1205 2759 
Q 947 2416 947 1791 
Q 947 1169 1205 825 
Q 1463 481 1925 481 
Q 2391 481 2648 825 
Q 2906 1169 2906 1791 
z
M 3481 434 
Q 3481 -459 3084 -895 
Q 2688 -1331 1869 -1331 
Q 1566 -1331 1297 -1286 
Q 1028 -1241 775 -1147 
L 775 -588 
Q 1028 -725 1275 -790 
Q 1522 -856 1778 -856 
Q 2344 -856 2625 -561 
Q 2906 -266 2906 331 
L 2906 616 
Q 2728 306 2450 153 
Q 2172 0 1784 0 
Q 1141 0 747 490 
Q 353 981 353 1791 
Q 353 2603 747 3093 
Q 1141 3584 1784 3584 
Q 2172 3584 2450 3431 
Q 2728 3278 2906 2969 
L 2906 3500 
L 3481 3500 
L 3481 434 
z
" transform="scale(0.015625)"/>
      <path id="DejaVuSans-68" d="M 3513 2113 
L 3513 0 
L 2938 0 
L 2938 2094 
Q 2938 2591 2744 2837 
Q 2550 3084 2163 3084 
Q 1697 3084 1428 2787 
Q 1159 2491 1159 1978 
L 1159 0 
L 581 0 
L 581 4863 
L 1159 4863 
L 1159 2956 
Q 1366 3272 1645 3428 
Q 1925 3584 2291 3584 
Q 2894 3584 3203 3211 
Q 3513 2838 3513 2113 
z
" transform="scale(0.015625)"/>
      <path id="DejaVuSans-62" d="M 3116 1747 
Q 3116 2381 2855 2742 
Q 2594 3103 2138 3103 
Q 1681 3103 1420 2742 
Q 1159 2381 1159 1747 
Q 1159 1113 1420 752 
Q 1681 391 2138 391 
Q 2594 391 2855 752 
Q 3116 1113 3116 1747 
z
M 1159 2969 
Q 1341 3281 1617 3432 
Q 1894 3584 2278 3584 
Q 2916 3584 3314 3078 
Q 3713 2572 3713 1747 
Q 3713 922 3314 415 
Q 2916 -91 2278 -91 
Q 1894 -91 1617 61 
Q 1341 213 1159 525 
L 1159 0 
L 581 0 
L 581 4863 
L 1159 4863 
L 1159 2969 
z
" transform="scale(0.015625)"/>
      <path id="DejaVuSans-6f" d="M 1959 3097 
Q 1497 3097 1228 2736 
Q 959 2375 959 1747 
Q 959 1119 1226 758 
Q 1494 397 1959 397 
Q 2419 397 2687 759 
Q 2956 1122 2956 1747 
Q 2956 2369 2687 2733 
Q 2419 3097 1959 3097 
z
M 1959 3584 
Q 2709 3584 3137 3096 
Q 3566 2609 3566 1747 
Q 3566 888 3137 398 
Q 2709 -91 1959 -91 
Q 1206 -91 779 398 
Q 353 888 353 1747 
Q 353 2609 779 3096 
Q 1206 3584 1959 3584 
z
" transform="scale(0.015625)"/>
      <path id="DejaVuSans-72" d="M 2631 2963 
Q 2534 3019 2420 3045 
Q 2306 3072 2169 3072 
Q 1681 3072 1420 2755 
Q 1159 2438 1159 1844 
L 1159 0 
L 581 0 
L 581 3500 
L 1159 3500 
L 1159 2956 
Q 1341 3275 1631 3429 
Q 1922 3584 2338 3584 
Q 2397 3584 2469 3576 
Q 2541 3569 2628 3553 
L 2631 2963 
z
" transform="scale(0.015625)"/>
      <path id="DejaVuSans-64" d="M 2906 2969 
L 2906 4863 
L 3481 4863 
L 3481 0 
L 2906 0 
L 2906 525 
Q 2725 213 2448 61 
Q 2172 -91 1784 -91 
Q 1150 -91 751 415 
Q 353 922 353 1747 
Q 353 2572 751 3078 
Q 1150 3584 1784 3584 
Q 2172 3584 2448 3432 
Q 2725 3281 2906 2969 
z
M 947 1747 
Q 947 1113 1208 752 
Q 1469 391 1925 391 
Q 2381 391 2643 752 
Q 2906 1113 2906 1747 
Q 2906 2381 2643 2742 
Q 2381 3103 1925 3103 
Q 1469 3103 1208 2742 
Q 947 2381 947 1747 
z
" transform="scale(0.015625)"/>
      <path id="DejaVuSans-73" d="M 2834 3397 
L 2834 2853 
Q 2591 2978 2328 3040 
Q 2066 3103 1784 3103 
Q 1356 3103 1142 2972 
Q 928 2841 928 2578 
Q 928 2378 1081 2264 
Q 1234 2150 1697 2047 
L 1894 2003 
Q 2506 1872 2764 1633 
Q 3022 1394 3022 966 
Q 3022 478 2636 193 
Q 2250 -91 1575 -91 
Q 1294 -91 989 -36 
Q 684 19 347 128 
L 347 722 
Q 666 556 975 473 
Q 1284 391 1588 391 
Q 1994 391 2212 530 
Q 2431 669 2431 922 
Q 2431 1156 2273 1281 
Q 2116 1406 1581 1522 
L 1381 1569 
Q 847 1681 609 1914 
Q 372 2147 372 2553 
Q 372 3047 722 3315 
Q 1072 3584 1716 3584 
Q 2034 3584 2315 3537 
Q 2597 3491 2834 3397 
z
" transform="scale(0.015625)"/>
      <path id="DejaVuSans-63" d="M 3122 3366 
L 3122 2828 
Q 2878 2963 2633 3030 
Q 2388 3097 2138 3097 
Q 1578 3097 1268 2742 
Q 959 2388 959 1747 
Q 959 1106 1268 751 
Q 1578 397 2138 397 
Q 2388 397 2633 464 
Q 2878 531 3122 666 
L 3122 134 
Q 2881 22 2623 -34 
Q 2366 -91 2075 -91 
Q 1284 -91 818 406 
Q 353 903 353 1747 
Q 353 2603 823 3093 
Q 1294 3584 2113 3584 
Q 2378 3584 2631 3529 
Q 2884 3475 3122 3366 
z
" transform="scale(0.015625)"/>
      <path id="DejaVuSans-74" d="M 1172 4494 
L 1172 3500 
L 2356 3500 
L 2356 3053 
L 1172 3053 
L 1172 1153 
Q 1172 725 1289 603 
Q 1406 481 1766 481 
L 2356 481 
L 2356 0 
L 1766 0 
Q 1100 0 847 248 
Q 594 497 594 1153 
L 594 3053 
L 172 3053 
L 172 3500 
L 594 3500 
L 594 4494 
L 1172 4494 
z
" transform="scale(0.015625)"/>
      <path id="DejaVuSans-70" d="M 1159 525 
L 1159 -1331 
L 581 -1331 
L 581 3500 
L 1159 3500 
L 1159 2969 
Q 1341 3281 1617 3432 
Q 1894 3584 2278 3584 
Q 2916 3584 3314 3078 
Q 3713 2572 3713 1747 
Q 3713 922 3314 415 
Q 2916 -91 2278 -91 
Q 1894 -91 1617 61 
Q 1341 213 1159 525 
z
M 3116 1747 
Q 3116 2381 2855 2742 
Q 2594 3103 2138 3103 
Q 1681 3103 1420 2742 
Q 1159 2381 1159 1747 
Q 1159 1113 1420 752 
Q 1681 391 2138 391 
Q 2594 391 2855 752 
Q 3116 1113 3116 1747 
z
" transform="scale(0.015625)"/>
     </defs>
     <use xlink:href="#DejaVuSans-44" transform="translate(0 0.015625)"/>
     <use xlink:href="#DejaVuSans-42" transform="translate(77.001953 0.015625)"/>
     <use xlink:href="#DejaVuSans-53" transform="translate(145.605469 0.015625)"/>
     <use xlink:href="#DejaVuSans-43" transform="translate(209.082031 0.015625)"/>
     <use xlink:href="#DejaVuSans-41" transform="translate(278.90625 0.015625)"/>
     <use xlink:href="#DejaVuSans-4e" transform="translate(347.314453 0.015625)"/>
     <use xlink:href="#DejaVuSans-20" transform="translate(422.119141 0.015625)"/>
     <use xlink:href="#DejaVuSans-Oblique-3b5" transform="translate(453.90625 0.015625)"/>
     <use xlink:href="#DejaVuSans-2d" transform="translate(507.958984 0.015625)"/>
     <use xlink:href="#DejaVuSans-6e" transform="translate(544.042969 0.015625)"/>
     <use xlink:href="#DejaVuSans-65" transform="translate(607.421875 0.015625)"/>
     <use xlink:href="#DejaVuSans-69" transform="translate(668.945312 0.015625)"/>
     <use xlink:href="#DejaVuSans-67" transform="translate(696.728516 0.015625)"/>
     <use xlink:href="#DejaVuSans-68" transform="translate(760.205078 0.015625)"/>
     <use xlink:href="#DejaVuSans-62" transform="translate(823.583984 0.015625)"/>
     <use xlink:href="#DejaVuSans-6f" transform="translate(887.060547 0.015625)"/>
     <use xlink:href="#DejaVuSans-72" transform="translate(948.242188 0.015625)"/>
     <use xlink:href="#DejaVuSans-68" transform="translate(989.355469 0.015625)"/>
     <use xlink:href="#DejaVuSans-6f" transform="translate(1052.734375 0.015625)"/>
     <use xlink:href="#DejaVuSans-6f" transform="translate(1113.916016 0.015625)"/>
     <use xlink:href="#DejaVuSans-64" transform="translate(1175.097656 0.015625)"/>
     <use xlink:href="#DejaVuSans-73" transform="translate(1238.574219 0.015625)"/>
     <use xlink:href="#DejaVuSans-20" transform="translate(1290.673828 0.015625)"/>
     <use xlink:href="#DejaVuSans-63" transform="translate(1322.460938 0.015625)"/>
     <use xlink:href="#DejaVuSans-6f" transform="translate(1377.441406 0.015625)"/>
     <use xlink:href="#DejaVuSans-6e" transform="translate(1438.623047 0.015625)"/>
     <use xlink:href="#DejaVuSans-6e" transform="translate(1502.001953 0.015625)"/>
     <use xlink:href="#DejaVuSans-65" transform="translate(1565.380859 0.015625)"/>
     <use xlink:href="#DejaVuSans-63" transform="translate(1626.904297 0.015625)"/>
     <use xlink:href="#DejaVuSans-74" transform="translate(1681.884766 0.015625)"/>
     <use xlink:href="#DejaVuSans-20" transform="translate(1721.09375 0.015625)"/>
     <use xlink:href="#DejaVuSans-63" transform="translate(1752.880859 0.015625)"/>
     <use xlink:href="#DejaVuSans-6f" transform="translate(1807.861328 0.015625)"/>
     <use xlink:href="#DejaVuSans-72" transform="translate(1869.042969 0.015625)"/>
     <use xlink:href="#DejaVuSans-65" transform="translate(1910.15625 0.015625)"/>
     <use xlink:href="#DejaVuSans-20" transform="translate(1971.679688 0.015625)"/>
     <use xlink:href="#DejaVuSans-70" transform="translate(2003.466797 0.015625)"/>
     <use xlink:href="#DejaVuSans-6f" transform="translate(2066.943359 0.015625)"/>
     <use xlink:href="#DejaVuSans-69" transform="translate(2128.125 0.015625)"/>
     <use xlink:href="#DejaVuSans-6e" transform="translate(2155.908203 0.015625)"/>
     <use xlink:href="#DejaVuSans-74" transform="translate(2219.287109 0.015625)"/>
     <use xlink:href="#DejaVuSans-73" transform="translate(2258.496094 0.015625)"/>
    </g>
   </g>
  </g>
 </g>
 <defs>
  <clipPath id="pf9165d701a">
   <rect x="7.2" y="22.32" width="439.2" height="159.026656"/>
  </clipPath>
 </defs>
</svg>
